<?xml version="1.0" encoding="UTF-8"?>
<svg xmlns="http://www.w3.org/2000/svg" xmlns:xlink="http://www.w3.org/1999/xlink" width="263.505859" height="179.029859" viewBox="0 0 263.505859 179.029859">
<defs>
<g>
<g id="glyph-0-0">
<path d="M 2.53125 -0.265625 C 2.925781 -0.265625 3.222656 -0.484375 3.421875 -0.921875 C 3.617188 -1.359375 3.71875 -2.015625 3.71875 -2.890625 C 3.71875 -3.773438 3.617188 -4.429688 3.421875 -4.859375 C 3.222656 -5.296875 2.925781 -5.515625 2.53125 -5.515625 C 2.132812 -5.515625 1.835938 -5.296875 1.640625 -4.859375 C 1.441406 -4.429688 1.34375 -3.773438 1.34375 -2.890625 C 1.34375 -2.015625 1.441406 -1.359375 1.640625 -0.921875 C 1.835938 -0.484375 2.132812 -0.265625 2.53125 -0.265625 Z M 2.53125 0.109375 C 1.894531 0.109375 1.398438 -0.148438 1.046875 -0.671875 C 0.703125 -1.203125 0.53125 -1.941406 0.53125 -2.890625 C 0.53125 -3.835938 0.703125 -4.578125 1.046875 -5.109375 C 1.398438 -5.640625 1.894531 -5.90625 2.53125 -5.90625 C 3.15625 -5.90625 3.644531 -5.640625 4 -5.109375 C 4.351562 -4.578125 4.53125 -3.835938 4.53125 -2.890625 C 4.53125 -1.941406 4.351562 -1.203125 4 -0.671875 C 3.644531 -0.148438 3.15625 0.109375 2.53125 0.109375 Z M 2.53125 0.109375 "/>
</g>
<g id="glyph-0-1">
<path d="M 1.015625 -4.421875 L 0.578125 -4.421875 L 0.578125 -5.453125 C 0.859375 -5.597656 1.140625 -5.707031 1.421875 -5.78125 C 1.703125 -5.863281 1.976562 -5.90625 2.25 -5.90625 C 2.851562 -5.90625 3.328125 -5.757812 3.671875 -5.46875 C 4.023438 -5.175781 4.203125 -4.773438 4.203125 -4.265625 C 4.203125 -3.703125 3.804688 -3.023438 3.015625 -2.234375 C 2.953125 -2.171875 2.90625 -2.125 2.875 -2.09375 L 1.40625 -0.640625 L 3.828125 -0.640625 L 3.828125 -1.34375 L 4.28125 -1.34375 L 4.28125 0 L 0.546875 0 L 0.546875 -0.421875 L 2.296875 -2.171875 C 2.679688 -2.566406 2.957031 -2.925781 3.125 -3.25 C 3.289062 -3.570312 3.375 -3.910156 3.375 -4.265625 C 3.375 -4.660156 3.269531 -4.96875 3.0625 -5.1875 C 2.863281 -5.40625 2.585938 -5.515625 2.234375 -5.515625 C 1.859375 -5.515625 1.570312 -5.421875 1.375 -5.234375 C 1.175781 -5.054688 1.054688 -4.785156 1.015625 -4.421875 Z M 1.015625 -4.421875 "/>
</g>
<g id="glyph-0-2">
<path d="M 2.78125 -1.96875 L 2.78125 -5.046875 L 0.796875 -1.96875 Z M 4.484375 0 L 1.84375 0 L 1.84375 -0.40625 L 2.78125 -0.40625 L 2.78125 -1.546875 L 0.25 -1.546875 L 0.25 -1.96875 L 2.78125 -5.90625 L 3.546875 -5.90625 L 3.546875 -1.96875 L 4.65625 -1.96875 L 4.65625 -1.546875 L 3.546875 -1.546875 L 3.546875 -0.40625 L 4.484375 -0.40625 Z M 4.484375 0 "/>
</g>
<g id="glyph-0-3">
<path d="M 2.609375 -0.265625 C 2.972656 -0.265625 3.25 -0.398438 3.4375 -0.671875 C 3.632812 -0.941406 3.734375 -1.328125 3.734375 -1.828125 C 3.734375 -2.328125 3.632812 -2.710938 3.4375 -2.984375 C 3.25 -3.253906 2.972656 -3.390625 2.609375 -3.390625 C 2.234375 -3.390625 1.945312 -3.257812 1.75 -3 C 1.5625 -2.738281 1.46875 -2.363281 1.46875 -1.875 C 1.46875 -1.363281 1.5625 -0.96875 1.75 -0.6875 C 1.945312 -0.40625 2.234375 -0.265625 2.609375 -0.265625 Z M 1.328125 -3.1875 C 1.503906 -3.382812 1.703125 -3.53125 1.921875 -3.625 C 2.148438 -3.71875 2.40625 -3.765625 2.6875 -3.765625 C 3.257812 -3.765625 3.710938 -3.59375 4.046875 -3.25 C 4.390625 -2.90625 4.5625 -2.429688 4.5625 -1.828125 C 4.5625 -1.242188 4.378906 -0.773438 4.015625 -0.421875 C 3.648438 -0.0664062 3.171875 0.109375 2.578125 0.109375 C 1.921875 0.109375 1.414062 -0.128906 1.0625 -0.609375 C 0.707031 -1.097656 0.53125 -1.796875 0.53125 -2.703125 C 0.53125 -3.722656 0.738281 -4.507812 1.15625 -5.0625 C 1.570312 -5.625 2.160156 -5.90625 2.921875 -5.90625 C 3.128906 -5.90625 3.34375 -5.882812 3.5625 -5.84375 C 3.789062 -5.800781 4.019531 -5.742188 4.25 -5.671875 L 4.25 -4.71875 L 3.8125 -4.71875 C 3.78125 -4.976562 3.679688 -5.175781 3.515625 -5.3125 C 3.347656 -5.445312 3.125 -5.515625 2.84375 -5.515625 C 2.332031 -5.515625 1.953125 -5.320312 1.703125 -4.9375 C 1.460938 -4.5625 1.335938 -3.976562 1.328125 -3.1875 Z M 1.328125 -3.1875 "/>
</g>
<g id="glyph-0-4">
<path d="M 3.703125 -1.578125 C 3.703125 -1.992188 3.597656 -2.316406 3.390625 -2.546875 C 3.191406 -2.773438 2.90625 -2.890625 2.53125 -2.890625 C 2.15625 -2.890625 1.863281 -2.773438 1.65625 -2.546875 C 1.445312 -2.316406 1.34375 -1.992188 1.34375 -1.578125 C 1.34375 -1.160156 1.445312 -0.835938 1.65625 -0.609375 C 1.863281 -0.378906 2.15625 -0.265625 2.53125 -0.265625 C 2.90625 -0.265625 3.191406 -0.378906 3.390625 -0.609375 C 3.597656 -0.835938 3.703125 -1.160156 3.703125 -1.578125 Z M 3.546875 -4.40625 C 3.546875 -4.75 3.457031 -5.019531 3.28125 -5.21875 C 3.101562 -5.414062 2.851562 -5.515625 2.53125 -5.515625 C 2.207031 -5.515625 1.957031 -5.414062 1.78125 -5.21875 C 1.601562 -5.019531 1.515625 -4.75 1.515625 -4.40625 C 1.515625 -4.050781 1.601562 -3.773438 1.78125 -3.578125 C 1.957031 -3.378906 2.207031 -3.28125 2.53125 -3.28125 C 2.851562 -3.28125 3.101562 -3.378906 3.28125 -3.578125 C 3.457031 -3.773438 3.546875 -4.050781 3.546875 -4.40625 Z M 3.125 -3.09375 C 3.5625 -3.03125 3.90625 -2.863281 4.15625 -2.59375 C 4.40625 -2.332031 4.53125 -1.992188 4.53125 -1.578125 C 4.53125 -1.035156 4.351562 -0.617188 4 -0.328125 C 3.65625 -0.0351562 3.164062 0.109375 2.53125 0.109375 C 1.882812 0.109375 1.390625 -0.0351562 1.046875 -0.328125 C 0.703125 -0.617188 0.53125 -1.035156 0.53125 -1.578125 C 0.53125 -1.992188 0.648438 -2.332031 0.890625 -2.59375 C 1.140625 -2.863281 1.488281 -3.03125 1.9375 -3.09375 C 1.539062 -3.15625 1.238281 -3.300781 1.03125 -3.53125 C 0.820312 -3.757812 0.71875 -4.050781 0.71875 -4.40625 C 0.71875 -4.863281 0.878906 -5.226562 1.203125 -5.5 C 1.523438 -5.769531 1.96875 -5.90625 2.53125 -5.90625 C 3.09375 -5.90625 3.53125 -5.769531 3.84375 -5.5 C 4.164062 -5.226562 4.328125 -4.863281 4.328125 -4.40625 C 4.328125 -4.050781 4.222656 -3.757812 4.015625 -3.53125 C 3.804688 -3.300781 3.507812 -3.15625 3.125 -3.09375 Z M 3.125 -3.09375 "/>
</g>
<g id="glyph-0-5">
<path d="M 1.125 0 L 1.125 -0.40625 L 2.140625 -0.40625 L 2.140625 -5.234375 L 0.96875 -4.484375 L 0.96875 -4.984375 L 2.390625 -5.90625 L 2.921875 -5.90625 L 2.921875 -0.40625 L 3.9375 -0.40625 L 3.9375 0 Z M 1.125 0 "/>
</g>
<g id="glyph-0-6">
<path d="M 2.8125 -4.125 L 4.15625 -4.125 L 4.15625 -0.40625 L 4.828125 -0.40625 L 4.828125 0 L 3.4375 0 L 3.4375 -0.734375 C 3.300781 -0.453125 3.128906 -0.238281 2.921875 -0.09375 C 2.710938 0.0390625 2.46875 0.109375 2.1875 0.109375 C 1.726562 0.109375 1.390625 -0.0195312 1.171875 -0.28125 C 0.960938 -0.539062 0.859375 -0.945312 0.859375 -1.5 L 0.859375 -3.71875 L 0.21875 -3.71875 L 0.21875 -4.125 L 1.578125 -4.125 L 1.578125 -1.71875 C 1.578125 -1.21875 1.640625 -0.875 1.765625 -0.6875 C 1.890625 -0.5 2.109375 -0.40625 2.421875 -0.40625 C 2.753906 -0.40625 3.003906 -0.523438 3.171875 -0.765625 C 3.347656 -1.015625 3.4375 -1.375 3.4375 -1.84375 L 3.4375 -3.71875 L 2.8125 -3.71875 Z M 2.8125 -4.125 "/>
</g>
<g id="glyph-0-7">
<path d="M 1.625 -2.265625 L 1.625 -1.859375 C 1.625 -1.359375 1.71875 -0.976562 1.90625 -0.71875 C 2.101562 -0.457031 2.382812 -0.328125 2.75 -0.328125 C 3.113281 -0.328125 3.390625 -0.472656 3.578125 -0.765625 C 3.765625 -1.066406 3.859375 -1.5 3.859375 -2.0625 C 3.859375 -2.632812 3.765625 -3.066406 3.578125 -3.359375 C 3.390625 -3.648438 3.113281 -3.796875 2.75 -3.796875 C 2.382812 -3.796875 2.101562 -3.664062 1.90625 -3.40625 C 1.71875 -3.144531 1.625 -2.765625 1.625 -2.265625 Z M 0.921875 -3.71875 L 0.234375 -3.71875 L 0.234375 -4.125 L 1.625 -4.125 L 1.625 -3.484375 C 1.769531 -3.742188 1.945312 -3.929688 2.15625 -4.046875 C 2.375 -4.171875 2.644531 -4.234375 2.96875 -4.234375 C 3.476562 -4.234375 3.890625 -4.03125 4.203125 -3.625 C 4.523438 -3.226562 4.6875 -2.707031 4.6875 -2.0625 C 4.6875 -1.414062 4.523438 -0.890625 4.203125 -0.484375 C 3.890625 -0.0859375 3.476562 0.109375 2.96875 0.109375 C 2.644531 0.109375 2.375 0.0507812 2.15625 -0.0625 C 1.945312 -0.1875 1.769531 -0.378906 1.625 -0.640625 L 1.625 1.234375 L 2.3125 1.234375 L 2.3125 1.65625 L 0.234375 1.65625 L 0.234375 1.234375 L 0.921875 1.234375 Z M 0.921875 -3.71875 "/>
</g>
<g id="glyph-0-8">
<path d="M 4.171875 -0.40625 L 4.859375 -0.40625 L 4.859375 0 L 3.453125 0 L 3.453125 -0.640625 C 3.316406 -0.378906 3.140625 -0.1875 2.921875 -0.0625 C 2.710938 0.0507812 2.445312 0.109375 2.125 0.109375 C 1.613281 0.109375 1.195312 -0.0859375 0.875 -0.484375 C 0.550781 -0.890625 0.390625 -1.414062 0.390625 -2.0625 C 0.390625 -2.707031 0.550781 -3.226562 0.875 -3.625 C 1.195312 -4.03125 1.613281 -4.234375 2.125 -4.234375 C 2.445312 -4.234375 2.710938 -4.171875 2.921875 -4.046875 C 3.140625 -3.929688 3.316406 -3.742188 3.453125 -3.484375 L 3.453125 -5.625 L 2.78125 -5.625 L 2.78125 -6.046875 L 4.171875 -6.046875 Z M 3.453125 -1.859375 L 3.453125 -2.265625 C 3.453125 -2.765625 3.359375 -3.144531 3.171875 -3.40625 C 2.984375 -3.664062 2.707031 -3.796875 2.34375 -3.796875 C 1.976562 -3.796875 1.703125 -3.648438 1.515625 -3.359375 C 1.328125 -3.066406 1.234375 -2.632812 1.234375 -2.0625 C 1.234375 -1.5 1.328125 -1.066406 1.515625 -0.765625 C 1.703125 -0.472656 1.976562 -0.328125 2.34375 -0.328125 C 2.707031 -0.328125 2.984375 -0.457031 3.171875 -0.71875 C 3.359375 -0.976562 3.453125 -1.359375 3.453125 -1.859375 Z M 3.453125 -1.859375 "/>
</g>
<g id="glyph-0-9">
<path d="M 3.171875 -1.296875 L 3.171875 -2.171875 L 2.25 -2.171875 C 1.894531 -2.171875 1.628906 -2.09375 1.453125 -1.9375 C 1.273438 -1.789062 1.1875 -1.554688 1.1875 -1.234375 C 1.1875 -0.953125 1.273438 -0.722656 1.453125 -0.546875 C 1.628906 -0.378906 1.867188 -0.296875 2.171875 -0.296875 C 2.472656 -0.296875 2.710938 -0.390625 2.890625 -0.578125 C 3.078125 -0.765625 3.171875 -1.003906 3.171875 -1.296875 Z M 3.875 -2.578125 L 3.875 -0.40625 L 4.515625 -0.40625 L 4.515625 0 L 3.171875 0 L 3.171875 -0.453125 C 3.003906 -0.253906 2.816406 -0.109375 2.609375 -0.015625 C 2.410156 0.0664062 2.171875 0.109375 1.890625 0.109375 C 1.429688 0.109375 1.066406 -0.0078125 0.796875 -0.25 C 0.523438 -0.5 0.390625 -0.828125 0.390625 -1.234375 C 0.390625 -1.660156 0.546875 -1.992188 0.859375 -2.234375 C 1.171875 -2.472656 1.601562 -2.59375 2.15625 -2.59375 L 3.171875 -2.59375 L 3.171875 -2.875 C 3.171875 -3.1875 3.070312 -3.425781 2.875 -3.59375 C 2.6875 -3.769531 2.421875 -3.859375 2.078125 -3.859375 C 1.796875 -3.859375 1.566406 -3.789062 1.390625 -3.65625 C 1.222656 -3.53125 1.117188 -3.34375 1.078125 -3.09375 L 0.71875 -3.09375 L 0.71875 -3.921875 C 0.96875 -4.023438 1.207031 -4.101562 1.4375 -4.15625 C 1.675781 -4.207031 1.90625 -4.234375 2.125 -4.234375 C 2.695312 -4.234375 3.128906 -4.09375 3.421875 -3.8125 C 3.722656 -3.53125 3.875 -3.117188 3.875 -2.578125 Z M 3.875 -2.578125 "/>
</g>
<g id="glyph-0-10">
<path d="M 0.859375 -3.71875 L 0.234375 -3.71875 L 0.234375 -4.125 L 0.859375 -4.125 L 0.859375 -5.40625 L 1.578125 -5.40625 L 1.578125 -4.125 L 2.921875 -4.125 L 2.921875 -3.71875 L 1.578125 -3.71875 L 1.578125 -1.09375 C 1.578125 -0.738281 1.609375 -0.507812 1.671875 -0.40625 C 1.742188 -0.3125 1.867188 -0.265625 2.046875 -0.265625 C 2.234375 -0.265625 2.367188 -0.320312 2.453125 -0.4375 C 2.546875 -0.550781 2.59375 -0.726562 2.59375 -0.96875 L 3.140625 -0.96875 C 3.117188 -0.59375 3.015625 -0.316406 2.828125 -0.140625 C 2.640625 0.0234375 2.359375 0.109375 1.984375 0.109375 C 1.578125 0.109375 1.285156 0.0195312 1.109375 -0.15625 C 0.941406 -0.34375 0.859375 -0.65625 0.859375 -1.09375 Z M 0.859375 -3.71875 "/>
</g>
<g id="glyph-0-11">
<path d="M 0.765625 -5.40625 C 0.765625 -5.53125 0.804688 -5.632812 0.890625 -5.71875 C 0.984375 -5.8125 1.09375 -5.859375 1.21875 -5.859375 C 1.332031 -5.859375 1.429688 -5.8125 1.515625 -5.71875 C 1.609375 -5.632812 1.65625 -5.53125 1.65625 -5.40625 C 1.65625 -5.289062 1.609375 -5.1875 1.515625 -5.09375 C 1.429688 -5.007812 1.332031 -4.96875 1.21875 -4.96875 C 1.09375 -4.96875 0.984375 -5.007812 0.890625 -5.09375 C 0.804688 -5.1875 0.765625 -5.289062 0.765625 -5.40625 Z M 1.6875 -0.40625 L 2.359375 -0.40625 L 2.359375 0 L 0.28125 0 L 0.28125 -0.40625 L 0.96875 -0.40625 L 0.96875 -3.71875 L 0.28125 -3.71875 L 0.28125 -4.125 L 1.6875 -4.125 Z M 1.6875 -0.40625 "/>
</g>
<g id="glyph-0-12">
<path d="M 0.328125 0 L 0.328125 -0.40625 L 0.96875 -0.40625 L 0.96875 -3.71875 L 0.28125 -3.71875 L 0.28125 -4.125 L 1.6875 -4.125 L 1.6875 -3.390625 C 1.820312 -3.671875 1.992188 -3.878906 2.203125 -4.015625 C 2.410156 -4.160156 2.65625 -4.234375 2.9375 -4.234375 C 3.394531 -4.234375 3.726562 -4.101562 3.9375 -3.84375 C 4.15625 -3.582031 4.265625 -3.175781 4.265625 -2.625 L 4.265625 -0.40625 L 4.90625 -0.40625 L 4.90625 0 L 2.921875 0 L 2.921875 -0.40625 L 3.546875 -0.40625 L 3.546875 -2.40625 C 3.546875 -2.90625 3.484375 -3.25 3.359375 -3.4375 C 3.234375 -3.625 3.015625 -3.71875 2.703125 -3.71875 C 2.367188 -3.71875 2.113281 -3.597656 1.9375 -3.359375 C 1.769531 -3.117188 1.6875 -2.765625 1.6875 -2.296875 L 1.6875 -0.40625 L 2.3125 -0.40625 L 2.3125 0 Z M 0.328125 0 "/>
</g>
<g id="glyph-0-13">
<path d="M 4.171875 -3.71875 L 4.171875 -0.09375 C 4.171875 0.5 4.007812 0.957031 3.6875 1.28125 C 3.363281 1.601562 2.898438 1.765625 2.296875 1.765625 C 2.023438 1.765625 1.765625 1.738281 1.515625 1.6875 C 1.265625 1.644531 1.023438 1.570312 0.796875 1.46875 L 0.796875 0.609375 L 1.171875 0.609375 C 1.210938 0.878906 1.320312 1.070312 1.5 1.1875 C 1.675781 1.3125 1.925781 1.375 2.25 1.375 C 2.664062 1.375 2.96875 1.253906 3.15625 1.015625 C 3.351562 0.785156 3.453125 0.414062 3.453125 -0.09375 L 3.453125 -0.640625 C 3.316406 -0.378906 3.140625 -0.1875 2.921875 -0.0625 C 2.710938 0.0507812 2.445312 0.109375 2.125 0.109375 C 1.613281 0.109375 1.195312 -0.0859375 0.875 -0.484375 C 0.550781 -0.890625 0.390625 -1.414062 0.390625 -2.0625 C 0.390625 -2.707031 0.550781 -3.226562 0.875 -3.625 C 1.195312 -4.03125 1.613281 -4.234375 2.125 -4.234375 C 2.445312 -4.234375 2.710938 -4.171875 2.921875 -4.046875 C 3.140625 -3.929688 3.316406 -3.742188 3.453125 -3.484375 L 3.453125 -4.125 L 4.859375 -4.125 L 4.859375 -3.71875 Z M 3.453125 -2.265625 C 3.453125 -2.765625 3.359375 -3.144531 3.171875 -3.40625 C 2.984375 -3.664062 2.707031 -3.796875 2.34375 -3.796875 C 1.976562 -3.796875 1.703125 -3.648438 1.515625 -3.359375 C 1.328125 -3.066406 1.234375 -2.632812 1.234375 -2.0625 C 1.234375 -1.5 1.328125 -1.066406 1.515625 -0.765625 C 1.703125 -0.472656 1.976562 -0.328125 2.34375 -0.328125 C 2.707031 -0.328125 2.984375 -0.457031 3.171875 -0.71875 C 3.359375 -0.976562 3.453125 -1.359375 3.453125 -1.859375 Z M 3.453125 -2.265625 "/>
</g>
<g id="glyph-0-14">
</g>
<g id="glyph-0-15">
<path d="M 2.53125 1.234375 C 1.90625 0.953125 1.429688 0.507812 1.109375 -0.09375 C 0.785156 -0.707031 0.625 -1.476562 0.625 -2.40625 C 0.625 -3.320312 0.785156 -4.085938 1.109375 -4.703125 C 1.429688 -5.316406 1.90625 -5.765625 2.53125 -6.046875 L 2.53125 -5.65625 C 2.132812 -5.382812 1.847656 -5 1.671875 -4.5 C 1.503906 -4 1.421875 -3.300781 1.421875 -2.40625 C 1.421875 -1.5 1.503906 -0.796875 1.671875 -0.296875 C 1.847656 0.203125 2.132812 0.585938 2.53125 0.859375 Z M 2.53125 1.234375 "/>
</g>
<g id="glyph-0-16">
<path d="M 0.5625 1.234375 L 0.5625 0.859375 C 0.957031 0.585938 1.242188 0.203125 1.421875 -0.296875 C 1.597656 -0.796875 1.6875 -1.5 1.6875 -2.40625 C 1.6875 -3.300781 1.597656 -4 1.421875 -4.5 C 1.242188 -5 0.957031 -5.382812 0.5625 -5.65625 L 0.5625 -6.046875 C 1.195312 -5.765625 1.671875 -5.316406 1.984375 -4.703125 C 2.304688 -4.085938 2.46875 -3.320312 2.46875 -2.40625 C 2.46875 -1.476562 2.304688 -0.707031 1.984375 -0.09375 C 1.671875 0.507812 1.195312 0.953125 0.5625 1.234375 Z M 0.5625 1.234375 "/>
</g>
<g id="glyph-0-17">
<path d="M 0.328125 0 L 0.328125 -0.40625 L 0.96875 -0.40625 L 0.96875 -5.625 L 0.28125 -5.625 L 0.28125 -6.046875 L 1.6875 -6.046875 L 1.6875 -3.390625 C 1.820312 -3.671875 1.992188 -3.878906 2.203125 -4.015625 C 2.410156 -4.160156 2.65625 -4.234375 2.9375 -4.234375 C 3.394531 -4.234375 3.726562 -4.101562 3.9375 -3.84375 C 4.15625 -3.582031 4.265625 -3.175781 4.265625 -2.625 L 4.265625 -0.40625 L 4.90625 -0.40625 L 4.90625 0 L 2.921875 0 L 2.921875 -0.40625 L 3.546875 -0.40625 L 3.546875 -2.40625 C 3.546875 -2.90625 3.484375 -3.25 3.359375 -3.4375 C 3.234375 -3.625 3.015625 -3.71875 2.703125 -3.71875 C 2.367188 -3.71875 2.113281 -3.59375 1.9375 -3.34375 C 1.769531 -3.101562 1.6875 -2.753906 1.6875 -2.296875 L 1.6875 -0.40625 L 2.3125 -0.40625 L 2.3125 0 Z M 0.328125 0 "/>
</g>
<g id="glyph-0-18">
<path d="M 4.3125 -1.984375 L 1.234375 -1.984375 L 1.234375 -1.953125 C 1.234375 -1.398438 1.335938 -0.976562 1.546875 -0.6875 C 1.753906 -0.40625 2.0625 -0.265625 2.46875 -0.265625 C 2.78125 -0.265625 3.035156 -0.347656 3.234375 -0.515625 C 3.441406 -0.679688 3.585938 -0.925781 3.671875 -1.25 L 4.234375 -1.25 C 4.117188 -0.800781 3.910156 -0.460938 3.609375 -0.234375 C 3.304688 -0.00390625 2.90625 0.109375 2.40625 0.109375 C 1.800781 0.109375 1.3125 -0.0859375 0.9375 -0.484375 C 0.570312 -0.878906 0.390625 -1.40625 0.390625 -2.0625 C 0.390625 -2.71875 0.566406 -3.242188 0.921875 -3.640625 C 1.285156 -4.035156 1.765625 -4.234375 2.359375 -4.234375 C 2.984375 -4.234375 3.460938 -4.039062 3.796875 -3.65625 C 4.128906 -3.28125 4.300781 -2.722656 4.3125 -1.984375 Z M 3.46875 -2.40625 C 3.445312 -2.882812 3.34375 -3.242188 3.15625 -3.484375 C 2.96875 -3.734375 2.703125 -3.859375 2.359375 -3.859375 C 2.023438 -3.859375 1.765625 -3.734375 1.578125 -3.484375 C 1.390625 -3.242188 1.273438 -2.882812 1.234375 -2.40625 Z M 3.46875 -2.40625 "/>
</g>
<g id="glyph-0-19">
<path d="M 3.796875 -4.140625 L 3.796875 -3.109375 L 3.390625 -3.109375 C 3.378906 -3.304688 3.320312 -3.457031 3.21875 -3.5625 C 3.113281 -3.664062 2.96875 -3.71875 2.78125 -3.71875 C 2.425781 -3.71875 2.15625 -3.59375 1.96875 -3.34375 C 1.78125 -3.101562 1.6875 -2.753906 1.6875 -2.296875 L 1.6875 -0.40625 L 2.515625 -0.40625 L 2.515625 0 L 0.328125 0 L 0.328125 -0.40625 L 0.96875 -0.40625 L 0.96875 -3.71875 L 0.28125 -3.71875 L 0.28125 -4.125 L 1.6875 -4.125 L 1.6875 -3.390625 C 1.820312 -3.679688 2 -3.894531 2.21875 -4.03125 C 2.445312 -4.164062 2.71875 -4.234375 3.03125 -4.234375 C 3.144531 -4.234375 3.265625 -4.222656 3.390625 -4.203125 C 3.523438 -4.191406 3.660156 -4.171875 3.796875 -4.140625 Z M 3.796875 -4.140625 "/>
</g>
<g id="glyph-0-20">
<path d="M 1.625 -0.40625 L 2.3125 -0.40625 L 2.3125 0 L 0.234375 0 L 0.234375 -0.40625 L 0.921875 -0.40625 L 0.921875 -5.625 L 0.234375 -5.625 L 0.234375 -6.046875 L 1.625 -6.046875 Z M 1.625 -0.40625 "/>
</g>
<g id="glyph-1-0">
<path d="M 4.296875 -4.640625 L 5.484375 -1.015625 L 6.53125 -4.171875 L 5.859375 -4.171875 L 5.859375 -4.640625 L 7.546875 -4.640625 L 7.546875 -4.171875 L 7.03125 -4.171875 L 5.640625 0 L 4.984375 0 L 3.828125 -3.46875 L 2.6875 0 L 2.046875 0 L 0.671875 -4.171875 L 0.140625 -4.171875 L 0.140625 -4.640625 L 2.25 -4.640625 L 2.25 -4.171875 L 1.5 -4.171875 L 2.53125 -1.015625 L 3.734375 -4.640625 Z M 4.296875 -4.640625 "/>
</g>
<g id="glyph-1-1">
<path d="M 0.875 -6.09375 C 0.875 -6.226562 0.921875 -6.34375 1.015625 -6.4375 C 1.109375 -6.539062 1.226562 -6.59375 1.375 -6.59375 C 1.5 -6.59375 1.609375 -6.539062 1.703125 -6.4375 C 1.804688 -6.34375 1.859375 -6.226562 1.859375 -6.09375 C 1.859375 -5.957031 1.8125 -5.835938 1.71875 -5.734375 C 1.625 -5.640625 1.507812 -5.59375 1.375 -5.59375 C 1.226562 -5.59375 1.109375 -5.640625 1.015625 -5.734375 C 0.921875 -5.835938 0.875 -5.957031 0.875 -6.09375 Z M 1.890625 -0.46875 L 2.65625 -0.46875 L 2.65625 0 L 0.328125 0 L 0.328125 -0.46875 L 1.09375 -0.46875 L 1.09375 -4.171875 L 0.328125 -4.171875 L 0.328125 -4.640625 L 1.890625 -4.640625 Z M 1.890625 -0.46875 "/>
</g>
<g id="glyph-1-2">
<path d="M 0.375 0 L 0.375 -0.46875 L 1.09375 -0.46875 L 1.09375 -4.171875 L 0.328125 -4.171875 L 0.328125 -4.640625 L 1.890625 -4.640625 L 1.890625 -3.828125 C 2.046875 -4.140625 2.238281 -4.375 2.46875 -4.53125 C 2.707031 -4.695312 2.988281 -4.78125 3.3125 -4.78125 C 3.820312 -4.78125 4.195312 -4.628906 4.4375 -4.328125 C 4.675781 -4.035156 4.796875 -3.578125 4.796875 -2.953125 L 4.796875 -0.46875 L 5.515625 -0.46875 L 5.515625 0 L 3.296875 0 L 3.296875 -0.46875 L 3.984375 -0.46875 L 3.984375 -2.703125 C 3.984375 -3.265625 3.914062 -3.648438 3.78125 -3.859375 C 3.644531 -4.078125 3.398438 -4.1875 3.046875 -4.1875 C 2.671875 -4.1875 2.382812 -4.050781 2.1875 -3.78125 C 1.988281 -3.507812 1.890625 -3.113281 1.890625 -2.59375 L 1.890625 -0.46875 L 2.59375 -0.46875 L 2.59375 0 Z M 0.375 0 "/>
</g>
<g id="glyph-1-3">
<path d="M 4.703125 -0.46875 L 5.46875 -0.46875 L 5.46875 0 L 3.890625 0 L 3.890625 -0.71875 C 3.734375 -0.425781 3.53125 -0.210938 3.28125 -0.078125 C 3.039062 0.0546875 2.742188 0.125 2.390625 0.125 C 1.816406 0.125 1.347656 -0.0976562 0.984375 -0.546875 C 0.628906 -1.003906 0.453125 -1.597656 0.453125 -2.328125 C 0.453125 -3.054688 0.628906 -3.644531 0.984375 -4.09375 C 1.347656 -4.550781 1.816406 -4.78125 2.390625 -4.78125 C 2.742188 -4.78125 3.039062 -4.707031 3.28125 -4.5625 C 3.53125 -4.425781 3.734375 -4.210938 3.890625 -3.921875 L 3.890625 -6.34375 L 3.140625 -6.34375 L 3.140625 -6.796875 L 4.703125 -6.796875 Z M 3.890625 -2.09375 L 3.890625 -2.546875 C 3.890625 -3.109375 3.78125 -3.535156 3.5625 -3.828125 C 3.351562 -4.117188 3.046875 -4.265625 2.640625 -4.265625 C 2.222656 -4.265625 1.910156 -4.101562 1.703125 -3.78125 C 1.492188 -3.457031 1.390625 -2.972656 1.390625 -2.328125 C 1.390625 -1.679688 1.492188 -1.191406 1.703125 -0.859375 C 1.910156 -0.535156 2.222656 -0.375 2.640625 -0.375 C 3.046875 -0.375 3.351562 -0.519531 3.5625 -0.8125 C 3.78125 -1.101562 3.890625 -1.53125 3.890625 -2.09375 Z M 3.890625 -2.09375 "/>
</g>
<g id="glyph-1-4">
<path d="M 2.6875 -0.3125 C 3.125 -0.3125 3.453125 -0.476562 3.671875 -0.8125 C 3.890625 -1.15625 4 -1.660156 4 -2.328125 C 4 -2.992188 3.890625 -3.492188 3.671875 -3.828125 C 3.453125 -4.171875 3.125 -4.34375 2.6875 -4.34375 C 2.257812 -4.34375 1.9375 -4.171875 1.71875 -3.828125 C 1.5 -3.492188 1.390625 -2.992188 1.390625 -2.328125 C 1.390625 -1.660156 1.5 -1.15625 1.71875 -0.8125 C 1.9375 -0.476562 2.257812 -0.3125 2.6875 -0.3125 Z M 2.6875 0.125 C 2.007812 0.125 1.46875 -0.0976562 1.0625 -0.546875 C 0.65625 -0.992188 0.453125 -1.585938 0.453125 -2.328125 C 0.453125 -3.066406 0.65625 -3.660156 1.0625 -4.109375 C 1.46875 -4.554688 2.007812 -4.78125 2.6875 -4.78125 C 3.375 -4.78125 3.921875 -4.554688 4.328125 -4.109375 C 4.734375 -3.660156 4.9375 -3.066406 4.9375 -2.328125 C 4.9375 -1.585938 4.734375 -0.992188 4.328125 -0.546875 C 3.921875 -0.0976562 3.375 0.125 2.6875 0.125 Z M 2.6875 0.125 "/>
</g>
<g id="glyph-1-5">
</g>
<g id="glyph-1-6">
<path d="M 0.5 -0.265625 L 0.5 -1.34375 L 0.96875 -1.34375 C 0.976562 -1 1.082031 -0.738281 1.28125 -0.5625 C 1.488281 -0.394531 1.796875 -0.3125 2.203125 -0.3125 C 2.566406 -0.3125 2.84375 -0.378906 3.03125 -0.515625 C 3.21875 -0.648438 3.3125 -0.847656 3.3125 -1.109375 C 3.3125 -1.304688 3.238281 -1.46875 3.09375 -1.59375 C 2.957031 -1.71875 2.671875 -1.851562 2.234375 -2 L 1.640625 -2.1875 C 1.242188 -2.320312 0.957031 -2.484375 0.78125 -2.671875 C 0.601562 -2.867188 0.515625 -3.113281 0.515625 -3.40625 C 0.515625 -3.832031 0.671875 -4.164062 0.984375 -4.40625 C 1.296875 -4.65625 1.722656 -4.78125 2.265625 -4.78125 C 2.515625 -4.78125 2.773438 -4.742188 3.046875 -4.671875 C 3.316406 -4.609375 3.597656 -4.515625 3.890625 -4.390625 L 3.890625 -3.390625 L 3.421875 -3.390625 C 3.410156 -3.679688 3.304688 -3.910156 3.109375 -4.078125 C 2.910156 -4.253906 2.640625 -4.34375 2.296875 -4.34375 C 1.960938 -4.34375 1.707031 -4.28125 1.53125 -4.15625 C 1.351562 -4.039062 1.265625 -3.863281 1.265625 -3.625 C 1.265625 -3.425781 1.332031 -3.269531 1.46875 -3.15625 C 1.601562 -3.039062 1.863281 -2.921875 2.25 -2.796875 L 2.890625 -2.59375 C 3.328125 -2.457031 3.644531 -2.285156 3.84375 -2.078125 C 4.039062 -1.878906 4.140625 -1.617188 4.140625 -1.296875 C 4.140625 -0.847656 3.96875 -0.5 3.625 -0.25 C 3.289062 0 2.828125 0.125 2.234375 0.125 C 1.929688 0.125 1.640625 0.09375 1.359375 0.03125 C 1.078125 -0.03125 0.789062 -0.128906 0.5 -0.265625 Z M 0.5 -0.265625 "/>
</g>
<g id="glyph-1-7">
<path d="M 0.96875 -4.171875 L 0.265625 -4.171875 L 0.265625 -4.640625 L 0.96875 -4.640625 L 0.96875 -6.09375 L 1.78125 -6.09375 L 1.78125 -4.640625 L 3.28125 -4.640625 L 3.28125 -4.171875 L 1.78125 -4.171875 L 1.78125 -1.234375 C 1.78125 -0.835938 1.816406 -0.582031 1.890625 -0.46875 C 1.960938 -0.363281 2.101562 -0.3125 2.3125 -0.3125 C 2.519531 -0.3125 2.671875 -0.367188 2.765625 -0.484375 C 2.859375 -0.609375 2.910156 -0.8125 2.921875 -1.09375 L 3.53125 -1.09375 C 3.507812 -0.664062 3.394531 -0.351562 3.1875 -0.15625 C 2.976562 0.03125 2.660156 0.125 2.234375 0.125 C 1.773438 0.125 1.445312 0.0234375 1.25 -0.171875 C 1.0625 -0.378906 0.96875 -0.734375 0.96875 -1.234375 Z M 0.96875 -4.171875 "/>
</g>
<g id="glyph-1-8">
<path d="M 4.859375 -2.234375 L 1.390625 -2.234375 L 1.390625 -2.203125 C 1.390625 -1.578125 1.503906 -1.101562 1.734375 -0.78125 C 1.972656 -0.46875 2.320312 -0.3125 2.78125 -0.3125 C 3.132812 -0.3125 3.421875 -0.398438 3.640625 -0.578125 C 3.867188 -0.765625 4.03125 -1.039062 4.125 -1.40625 L 4.78125 -1.40625 C 4.644531 -0.894531 4.40625 -0.507812 4.0625 -0.25 C 3.71875 0 3.265625 0.125 2.703125 0.125 C 2.023438 0.125 1.476562 -0.0976562 1.0625 -0.546875 C 0.65625 -0.992188 0.453125 -1.585938 0.453125 -2.328125 C 0.453125 -3.054688 0.648438 -3.644531 1.046875 -4.09375 C 1.453125 -4.550781 1.988281 -4.78125 2.65625 -4.78125 C 3.351562 -4.78125 3.890625 -4.5625 4.265625 -4.125 C 4.640625 -3.6875 4.835938 -3.054688 4.859375 -2.234375 Z M 3.90625 -2.703125 C 3.882812 -3.242188 3.769531 -3.648438 3.5625 -3.921875 C 3.351562 -4.203125 3.050781 -4.34375 2.65625 -4.34375 C 2.28125 -4.34375 1.984375 -4.203125 1.765625 -3.921875 C 1.554688 -3.648438 1.429688 -3.242188 1.390625 -2.703125 Z M 3.90625 -2.703125 "/>
</g>
<g id="glyph-1-9">
<path d="M 1.84375 -2.546875 L 1.84375 -2.09375 C 1.84375 -1.53125 1.945312 -1.101562 2.15625 -0.8125 C 2.375 -0.519531 2.6875 -0.375 3.09375 -0.375 C 3.5 -0.375 3.804688 -0.535156 4.015625 -0.859375 C 4.234375 -1.191406 4.34375 -1.679688 4.34375 -2.328125 C 4.34375 -2.972656 4.234375 -3.457031 4.015625 -3.78125 C 3.804688 -4.101562 3.5 -4.265625 3.09375 -4.265625 C 2.6875 -4.265625 2.375 -4.117188 2.15625 -3.828125 C 1.945312 -3.535156 1.84375 -3.109375 1.84375 -2.546875 Z M 1.03125 -4.171875 L 0.265625 -4.171875 L 0.265625 -4.640625 L 1.84375 -4.640625 L 1.84375 -3.921875 C 2 -4.210938 2.195312 -4.425781 2.4375 -4.5625 C 2.675781 -4.707031 2.976562 -4.78125 3.34375 -4.78125 C 3.914062 -4.78125 4.378906 -4.550781 4.734375 -4.09375 C 5.097656 -3.644531 5.28125 -3.054688 5.28125 -2.328125 C 5.28125 -1.597656 5.097656 -1.003906 4.734375 -0.546875 C 4.378906 -0.0976562 3.914062 0.125 3.34375 0.125 C 2.976562 0.125 2.675781 0.0546875 2.4375 -0.078125 C 2.195312 -0.210938 2 -0.425781 1.84375 -0.71875 L 1.84375 1.390625 L 2.59375 1.390625 L 2.59375 1.859375 L 0.265625 1.859375 L 0.265625 1.390625 L 1.03125 1.390625 Z M 1.03125 -4.171875 "/>
</g>
<g id="glyph-1-10">
<path d="M 2.859375 1.390625 C 2.148438 1.078125 1.613281 0.578125 1.25 -0.109375 C 0.882812 -0.804688 0.703125 -1.671875 0.703125 -2.703125 C 0.703125 -3.742188 0.882812 -4.609375 1.25 -5.296875 C 1.613281 -5.984375 2.148438 -6.484375 2.859375 -6.796875 L 2.859375 -6.375 C 2.410156 -6.0625 2.085938 -5.625 1.890625 -5.0625 C 1.691406 -4.507812 1.59375 -3.722656 1.59375 -2.703125 C 1.59375 -1.691406 1.691406 -0.90625 1.890625 -0.34375 C 2.085938 0.21875 2.410156 0.65625 2.859375 0.96875 Z M 2.859375 1.390625 "/>
</g>
<g id="glyph-1-11">
<path d="M 4.703125 -4.171875 L 4.703125 1.390625 L 5.46875 1.390625 L 5.46875 1.859375 L 3.140625 1.859375 L 3.140625 1.390625 L 3.890625 1.390625 L 3.890625 -0.71875 C 3.734375 -0.425781 3.53125 -0.210938 3.28125 -0.078125 C 3.039062 0.0546875 2.742188 0.125 2.390625 0.125 C 1.816406 0.125 1.347656 -0.0976562 0.984375 -0.546875 C 0.628906 -1.003906 0.453125 -1.597656 0.453125 -2.328125 C 0.453125 -3.054688 0.628906 -3.644531 0.984375 -4.09375 C 1.347656 -4.550781 1.816406 -4.78125 2.390625 -4.78125 C 2.742188 -4.78125 3.039062 -4.707031 3.28125 -4.5625 C 3.53125 -4.425781 3.734375 -4.210938 3.890625 -3.921875 L 3.890625 -4.640625 L 5.46875 -4.640625 L 5.46875 -4.171875 Z M 3.890625 -2.546875 C 3.890625 -3.109375 3.78125 -3.535156 3.5625 -3.828125 C 3.351562 -4.117188 3.046875 -4.265625 2.640625 -4.265625 C 2.222656 -4.265625 1.910156 -4.101562 1.703125 -3.78125 C 1.492188 -3.457031 1.390625 -2.972656 1.390625 -2.328125 C 1.390625 -1.679688 1.492188 -1.191406 1.703125 -0.859375 C 1.910156 -0.535156 2.222656 -0.375 2.640625 -0.375 C 3.046875 -0.375 3.351562 -0.519531 3.5625 -0.8125 C 3.78125 -1.101562 3.890625 -1.53125 3.890625 -2.09375 Z M 3.890625 -2.546875 "/>
</g>
<g id="glyph-1-12">
<path d="M 3.171875 -4.640625 L 4.671875 -4.640625 L 4.671875 -0.46875 L 5.4375 -0.46875 L 5.4375 0 L 3.875 0 L 3.875 -0.828125 C 3.71875 -0.515625 3.519531 -0.273438 3.28125 -0.109375 C 3.050781 0.046875 2.78125 0.125 2.46875 0.125 C 1.957031 0.125 1.578125 -0.0195312 1.328125 -0.3125 C 1.085938 -0.601562 0.96875 -1.0625 0.96875 -1.6875 L 0.96875 -4.171875 L 0.234375 -4.171875 L 0.234375 -4.640625 L 1.78125 -4.640625 L 1.78125 -1.9375 C 1.78125 -1.375 1.847656 -0.988281 1.984375 -0.78125 C 2.117188 -0.570312 2.363281 -0.46875 2.71875 -0.46875 C 3.09375 -0.46875 3.378906 -0.601562 3.578125 -0.875 C 3.773438 -1.144531 3.875 -1.539062 3.875 -2.0625 L 3.875 -4.171875 L 3.171875 -4.171875 Z M 3.171875 -4.640625 "/>
</g>
<g id="glyph-1-13">
<path d="M 3.5625 -1.453125 L 3.5625 -2.4375 L 2.53125 -2.4375 C 2.125 -2.4375 1.820312 -2.347656 1.625 -2.171875 C 1.4375 -2.003906 1.34375 -1.742188 1.34375 -1.390625 C 1.34375 -1.066406 1.441406 -0.8125 1.640625 -0.625 C 1.835938 -0.4375 2.101562 -0.34375 2.4375 -0.34375 C 2.78125 -0.34375 3.050781 -0.445312 3.25 -0.65625 C 3.457031 -0.863281 3.5625 -1.128906 3.5625 -1.453125 Z M 4.375 -2.90625 L 4.375 -0.46875 L 5.078125 -0.46875 L 5.078125 0 L 3.5625 0 L 3.5625 -0.5 C 3.382812 -0.28125 3.175781 -0.117188 2.9375 -0.015625 C 2.707031 0.078125 2.4375 0.125 2.125 0.125 C 1.613281 0.125 1.207031 -0.0078125 0.90625 -0.28125 C 0.601562 -0.550781 0.453125 -0.921875 0.453125 -1.390625 C 0.453125 -1.867188 0.625 -2.238281 0.96875 -2.5 C 1.3125 -2.769531 1.800781 -2.90625 2.4375 -2.90625 L 3.5625 -2.90625 L 3.5625 -3.234375 C 3.5625 -3.585938 3.453125 -3.859375 3.234375 -4.046875 C 3.023438 -4.242188 2.726562 -4.34375 2.34375 -4.34375 C 2.019531 -4.34375 1.765625 -4.269531 1.578125 -4.125 C 1.390625 -3.976562 1.269531 -3.757812 1.21875 -3.46875 L 0.796875 -3.46875 L 0.796875 -4.421875 C 1.078125 -4.535156 1.347656 -4.625 1.609375 -4.6875 C 1.878906 -4.75 2.140625 -4.78125 2.390625 -4.78125 C 3.035156 -4.78125 3.523438 -4.617188 3.859375 -4.296875 C 4.203125 -3.972656 4.375 -3.507812 4.375 -2.90625 Z M 4.375 -2.90625 "/>
</g>
<g id="glyph-1-14">
<path d="M 4.28125 -4.65625 L 4.28125 -3.5 L 3.8125 -3.5 C 3.800781 -3.726562 3.738281 -3.894531 3.625 -4 C 3.507812 -4.113281 3.34375 -4.171875 3.125 -4.171875 C 2.726562 -4.171875 2.421875 -4.035156 2.203125 -3.765625 C 1.992188 -3.492188 1.890625 -3.101562 1.890625 -2.59375 L 1.890625 -0.46875 L 2.828125 -0.46875 L 2.828125 0 L 0.375 0 L 0.375 -0.46875 L 1.09375 -0.46875 L 1.09375 -4.1875 L 0.328125 -4.1875 L 0.328125 -4.640625 L 1.890625 -4.640625 L 1.890625 -3.828125 C 2.054688 -4.148438 2.257812 -4.390625 2.5 -4.546875 C 2.75 -4.703125 3.050781 -4.78125 3.40625 -4.78125 C 3.539062 -4.78125 3.679688 -4.769531 3.828125 -4.75 C 3.972656 -4.726562 4.125 -4.695312 4.28125 -4.65625 Z M 4.28125 -4.65625 "/>
</g>
<g id="glyph-1-15">
<path d="M 0.640625 1.390625 L 0.640625 0.96875 C 1.085938 0.65625 1.40625 0.21875 1.59375 -0.34375 C 1.789062 -0.90625 1.890625 -1.691406 1.890625 -2.703125 C 1.890625 -3.722656 1.789062 -4.507812 1.59375 -5.0625 C 1.40625 -5.625 1.085938 -6.0625 0.640625 -6.375 L 0.640625 -6.796875 C 1.347656 -6.484375 1.878906 -5.984375 2.234375 -5.296875 C 2.597656 -4.609375 2.78125 -3.742188 2.78125 -2.703125 C 2.78125 -1.671875 2.597656 -0.804688 2.234375 -0.109375 C 1.878906 0.578125 1.347656 1.078125 0.640625 1.390625 Z M 0.640625 1.390625 "/>
</g>
<g id="glyph-2-0">
<path d="M 0.59375 -1.96875 L 4.078125 -1.96875 L 4.078125 -1.53125 L 0.59375 -1.53125 Z M 0.59375 -1.96875 "/>
</g>
<g id="glyph-2-1">
<path d="M 0.59375 -3.828125 L 4.640625 -3.828125 L 4.640625 -3.390625 L 2.828125 -3.390625 L 2.828125 0 L 2.390625 0 L 2.390625 -3.390625 L 0.59375 -3.390625 Z M 0.59375 -3.828125 "/>
</g>
<g id="glyph-3-0">
<path d="M 0.796875 0 L 0.796875 -0.28125 L 1.5 -0.28125 L 1.5 -3.65625 L 0.671875 -3.125 L 0.671875 -3.484375 L 1.671875 -4.125 L 2.046875 -4.125 L 2.046875 -0.28125 L 2.75 -0.28125 L 2.75 0 Z M 0.796875 0 "/>
</g>
<g id="glyph-3-1">
<path d="M 1.8125 -0.1875 C 2.070312 -0.1875 2.269531 -0.28125 2.40625 -0.46875 C 2.539062 -0.65625 2.609375 -0.925781 2.609375 -1.28125 C 2.609375 -1.632812 2.539062 -1.90625 2.40625 -2.09375 C 2.269531 -2.28125 2.070312 -2.375 1.8125 -2.375 C 1.5625 -2.375 1.367188 -2.28125 1.234375 -2.09375 C 1.097656 -1.914062 1.03125 -1.65625 1.03125 -1.3125 C 1.03125 -0.945312 1.097656 -0.664062 1.234375 -0.46875 C 1.367188 -0.28125 1.5625 -0.1875 1.8125 -0.1875 Z M 0.9375 -2.234375 C 1.0625 -2.367188 1.203125 -2.46875 1.359375 -2.53125 C 1.515625 -2.601562 1.6875 -2.640625 1.875 -2.640625 C 2.28125 -2.640625 2.597656 -2.515625 2.828125 -2.265625 C 3.066406 -2.023438 3.1875 -1.695312 3.1875 -1.28125 C 3.1875 -0.863281 3.0625 -0.53125 2.8125 -0.28125 C 2.5625 -0.0390625 2.222656 0.078125 1.796875 0.078125 C 1.335938 0.078125 0.984375 -0.0859375 0.734375 -0.421875 C 0.492188 -0.765625 0.375 -1.253906 0.375 -1.890625 C 0.375 -2.597656 0.519531 -3.144531 0.8125 -3.53125 C 1.101562 -3.925781 1.515625 -4.125 2.046875 -4.125 C 2.179688 -4.125 2.328125 -4.109375 2.484375 -4.078125 C 2.648438 -4.054688 2.816406 -4.019531 2.984375 -3.96875 L 2.984375 -3.296875 L 2.671875 -3.296875 C 2.648438 -3.484375 2.578125 -3.625 2.453125 -3.71875 C 2.335938 -3.8125 2.179688 -3.859375 1.984375 -3.859375 C 1.628906 -3.859375 1.363281 -3.722656 1.1875 -3.453125 C 1.019531 -3.191406 0.9375 -2.785156 0.9375 -2.234375 Z M 0.9375 -2.234375 "/>
</g>
<g id="glyph-3-2">
<path d="M 1.9375 -1.375 L 1.9375 -3.53125 L 0.5625 -1.375 Z M 3.140625 0 L 1.296875 0 L 1.296875 -0.28125 L 1.9375 -0.28125 L 1.9375 -1.078125 L 0.171875 -1.078125 L 0.171875 -1.375 L 1.953125 -4.125 L 2.484375 -4.125 L 2.484375 -1.375 L 3.265625 -1.375 L 3.265625 -1.078125 L 2.484375 -1.078125 L 2.484375 -0.28125 L 3.140625 -0.28125 Z M 3.140625 0 "/>
</g>
<g id="glyph-3-3">
<path d="M 0.71875 -3.09375 L 0.40625 -3.09375 L 0.40625 -3.8125 C 0.601562 -3.914062 0.796875 -3.992188 0.984375 -4.046875 C 1.179688 -4.097656 1.375 -4.125 1.5625 -4.125 C 1.988281 -4.125 2.320312 -4.019531 2.5625 -3.8125 C 2.8125 -3.613281 2.9375 -3.335938 2.9375 -2.984375 C 2.9375 -2.585938 2.660156 -2.113281 2.109375 -1.5625 C 2.066406 -1.519531 2.03125 -1.488281 2 -1.46875 L 0.984375 -0.453125 L 2.671875 -0.453125 L 2.671875 -0.9375 L 3 -0.9375 L 3 0 L 0.375 0 L 0.375 -0.296875 L 1.609375 -1.53125 C 1.878906 -1.800781 2.070312 -2.046875 2.1875 -2.265625 C 2.300781 -2.492188 2.359375 -2.734375 2.359375 -2.984375 C 2.359375 -3.253906 2.285156 -3.46875 2.140625 -3.625 C 2.003906 -3.78125 1.8125 -3.859375 1.5625 -3.859375 C 1.300781 -3.859375 1.097656 -3.789062 0.953125 -3.65625 C 0.816406 -3.53125 0.738281 -3.34375 0.71875 -3.09375 Z M 0.71875 -3.09375 "/>
</g>
<g id="glyph-3-4">
<path d="M 1.765625 -0.1875 C 2.046875 -0.1875 2.253906 -0.335938 2.390625 -0.640625 C 2.523438 -0.953125 2.59375 -1.414062 2.59375 -2.03125 C 2.59375 -2.644531 2.523438 -3.101562 2.390625 -3.40625 C 2.253906 -3.707031 2.046875 -3.859375 1.765625 -3.859375 C 1.492188 -3.859375 1.285156 -3.707031 1.140625 -3.40625 C 1.003906 -3.101562 0.9375 -2.644531 0.9375 -2.03125 C 0.9375 -1.414062 1.003906 -0.953125 1.140625 -0.640625 C 1.285156 -0.335938 1.492188 -0.1875 1.765625 -0.1875 Z M 1.765625 0.078125 C 1.328125 0.078125 0.984375 -0.101562 0.734375 -0.46875 C 0.484375 -0.84375 0.359375 -1.363281 0.359375 -2.03125 C 0.359375 -2.6875 0.484375 -3.195312 0.734375 -3.5625 C 0.984375 -3.9375 1.328125 -4.125 1.765625 -4.125 C 2.210938 -4.125 2.554688 -3.9375 2.796875 -3.5625 C 3.046875 -3.195312 3.171875 -2.6875 3.171875 -2.03125 C 3.171875 -1.363281 3.046875 -0.84375 2.796875 -0.46875 C 2.554688 -0.101562 2.210938 0.078125 1.765625 0.078125 Z M 1.765625 0.078125 "/>
</g>
<g id="glyph-3-5">
<path d="M 2.59375 -1.109375 C 2.59375 -1.398438 2.519531 -1.625 2.375 -1.78125 C 2.226562 -1.945312 2.023438 -2.03125 1.765625 -2.03125 C 1.503906 -2.03125 1.300781 -1.945312 1.15625 -1.78125 C 1.007812 -1.625 0.9375 -1.398438 0.9375 -1.109375 C 0.9375 -0.816406 1.007812 -0.585938 1.15625 -0.421875 C 1.300781 -0.265625 1.503906 -0.1875 1.765625 -0.1875 C 2.023438 -0.1875 2.226562 -0.265625 2.375 -0.421875 C 2.519531 -0.585938 2.59375 -0.816406 2.59375 -1.109375 Z M 2.484375 -3.078125 C 2.484375 -3.328125 2.421875 -3.519531 2.296875 -3.65625 C 2.171875 -3.789062 1.992188 -3.859375 1.765625 -3.859375 C 1.546875 -3.859375 1.375 -3.789062 1.25 -3.65625 C 1.125 -3.519531 1.0625 -3.328125 1.0625 -3.078125 C 1.0625 -2.828125 1.125 -2.632812 1.25 -2.5 C 1.375 -2.363281 1.546875 -2.296875 1.765625 -2.296875 C 1.992188 -2.296875 2.171875 -2.363281 2.296875 -2.5 C 2.421875 -2.632812 2.484375 -2.828125 2.484375 -3.078125 Z M 2.1875 -2.15625 C 2.488281 -2.113281 2.726562 -2 2.90625 -1.8125 C 3.082031 -1.632812 3.171875 -1.398438 3.171875 -1.109375 C 3.171875 -0.722656 3.046875 -0.425781 2.796875 -0.21875 C 2.554688 -0.0195312 2.210938 0.078125 1.765625 0.078125 C 1.316406 0.078125 0.972656 -0.0195312 0.734375 -0.21875 C 0.492188 -0.425781 0.375 -0.722656 0.375 -1.109375 C 0.375 -1.398438 0.457031 -1.632812 0.625 -1.8125 C 0.800781 -2 1.046875 -2.113281 1.359375 -2.15625 C 1.078125 -2.207031 0.863281 -2.3125 0.71875 -2.46875 C 0.570312 -2.625 0.5 -2.828125 0.5 -3.078125 C 0.5 -3.398438 0.609375 -3.65625 0.828125 -3.84375 C 1.054688 -4.03125 1.367188 -4.125 1.765625 -4.125 C 2.160156 -4.125 2.46875 -4.03125 2.6875 -3.84375 C 2.914062 -3.65625 3.03125 -3.398438 3.03125 -3.078125 C 3.03125 -2.828125 2.957031 -2.625 2.8125 -2.46875 C 2.664062 -2.3125 2.457031 -2.207031 2.1875 -2.15625 Z M 2.1875 -2.15625 "/>
</g>
<g id="glyph-4-0">
<path d="M -4.65625 -4.28125 L -3.5 -4.28125 L -3.5 -3.8125 C -3.726562 -3.800781 -3.894531 -3.738281 -4 -3.625 C -4.113281 -3.507812 -4.171875 -3.34375 -4.171875 -3.125 C -4.171875 -2.726562 -4.035156 -2.421875 -3.765625 -2.203125 C -3.492188 -1.992188 -3.101562 -1.890625 -2.59375 -1.890625 L -0.46875 -1.890625 L -0.46875 -2.828125 L 0 -2.828125 L 0 -0.375 L -0.46875 -0.375 L -0.46875 -1.09375 L -4.1875 -1.09375 L -4.1875 -0.328125 L -4.640625 -0.328125 L -4.640625 -1.890625 L -3.828125 -1.890625 C -4.148438 -2.054688 -4.390625 -2.257812 -4.546875 -2.5 C -4.703125 -2.75 -4.78125 -3.050781 -4.78125 -3.40625 C -4.78125 -3.539062 -4.769531 -3.679688 -4.75 -3.828125 C -4.726562 -3.972656 -4.695312 -4.125 -4.65625 -4.28125 Z M -4.65625 -4.28125 "/>
</g>
<g id="glyph-4-1">
<path d="M -2.234375 -4.859375 L -2.234375 -1.390625 L -2.203125 -1.390625 C -1.578125 -1.390625 -1.101562 -1.503906 -0.78125 -1.734375 C -0.46875 -1.972656 -0.3125 -2.320312 -0.3125 -2.78125 C -0.3125 -3.132812 -0.398438 -3.421875 -0.578125 -3.640625 C -0.765625 -3.867188 -1.039062 -4.03125 -1.40625 -4.125 L -1.40625 -4.78125 C -0.894531 -4.644531 -0.507812 -4.40625 -0.25 -4.0625 C 0 -3.71875 0.125 -3.265625 0.125 -2.703125 C 0.125 -2.023438 -0.0976562 -1.476562 -0.546875 -1.0625 C -0.992188 -0.65625 -1.585938 -0.453125 -2.328125 -0.453125 C -3.054688 -0.453125 -3.644531 -0.648438 -4.09375 -1.046875 C -4.550781 -1.453125 -4.78125 -1.988281 -4.78125 -2.65625 C -4.78125 -3.351562 -4.5625 -3.890625 -4.125 -4.265625 C -3.6875 -4.640625 -3.054688 -4.835938 -2.234375 -4.859375 Z M -2.703125 -3.90625 C -3.242188 -3.882812 -3.648438 -3.769531 -3.921875 -3.5625 C -4.203125 -3.351562 -4.34375 -3.050781 -4.34375 -2.65625 C -4.34375 -2.28125 -4.203125 -1.984375 -3.921875 -1.765625 C -3.648438 -1.554688 -3.242188 -1.429688 -2.703125 -1.390625 Z M -2.703125 -3.90625 "/>
</g>
<g id="glyph-4-2">
<path d="M -0.46875 -1.84375 L -0.46875 -2.59375 L 0 -2.59375 L 0 -0.265625 L -0.46875 -0.265625 L -0.46875 -1.03125 L -6.34375 -1.03125 L -6.34375 -0.265625 L -6.796875 -0.265625 L -6.796875 -1.84375 Z M -0.46875 -1.84375 "/>
</g>
<g id="glyph-4-3">
<path d="M -1.453125 -3.5625 L -2.4375 -3.5625 L -2.4375 -2.53125 C -2.4375 -2.125 -2.347656 -1.820312 -2.171875 -1.625 C -2.003906 -1.4375 -1.742188 -1.34375 -1.390625 -1.34375 C -1.066406 -1.34375 -0.8125 -1.441406 -0.625 -1.640625 C -0.4375 -1.835938 -0.34375 -2.101562 -0.34375 -2.4375 C -0.34375 -2.78125 -0.445312 -3.050781 -0.65625 -3.25 C -0.863281 -3.457031 -1.128906 -3.5625 -1.453125 -3.5625 Z M -2.90625 -4.375 L -0.46875 -4.375 L -0.46875 -5.078125 L 0 -5.078125 L 0 -3.5625 L -0.5 -3.5625 C -0.28125 -3.382812 -0.117188 -3.175781 -0.015625 -2.9375 C 0.078125 -2.707031 0.125 -2.4375 0.125 -2.125 C 0.125 -1.613281 -0.0078125 -1.207031 -0.28125 -0.90625 C -0.550781 -0.601562 -0.921875 -0.453125 -1.390625 -0.453125 C -1.867188 -0.453125 -2.238281 -0.625 -2.5 -0.96875 C -2.769531 -1.3125 -2.90625 -1.800781 -2.90625 -2.4375 L -2.90625 -3.5625 L -3.234375 -3.5625 C -3.585938 -3.5625 -3.859375 -3.453125 -4.046875 -3.234375 C -4.242188 -3.023438 -4.34375 -2.726562 -4.34375 -2.34375 C -4.34375 -2.019531 -4.269531 -1.765625 -4.125 -1.578125 C -3.976562 -1.390625 -3.757812 -1.269531 -3.46875 -1.21875 L -3.46875 -0.796875 L -4.421875 -0.796875 C -4.535156 -1.078125 -4.625 -1.347656 -4.6875 -1.609375 C -4.75 -1.878906 -4.78125 -2.140625 -4.78125 -2.390625 C -4.78125 -3.035156 -4.617188 -3.523438 -4.296875 -3.859375 C -3.972656 -4.203125 -3.507812 -4.375 -2.90625 -4.375 Z M -2.90625 -4.375 "/>
</g>
<g id="glyph-4-4">
<path d="M -4.171875 -0.96875 L -4.171875 -0.265625 L -4.640625 -0.265625 L -4.640625 -0.96875 L -6.09375 -0.96875 L -6.09375 -1.78125 L -4.640625 -1.78125 L -4.640625 -3.28125 L -4.171875 -3.28125 L -4.171875 -1.78125 L -1.234375 -1.78125 C -0.835938 -1.78125 -0.582031 -1.816406 -0.46875 -1.890625 C -0.363281 -1.960938 -0.3125 -2.101562 -0.3125 -2.3125 C -0.3125 -2.519531 -0.367188 -2.671875 -0.484375 -2.765625 C -0.609375 -2.859375 -0.8125 -2.910156 -1.09375 -2.921875 L -1.09375 -3.53125 C -0.664062 -3.507812 -0.351562 -3.394531 -0.15625 -3.1875 C 0.03125 -2.976562 0.125 -2.660156 0.125 -2.234375 C 0.125 -1.773438 0.0234375 -1.445312 -0.171875 -1.25 C -0.378906 -1.0625 -0.734375 -0.96875 -1.234375 -0.96875 Z M -4.171875 -0.96875 "/>
</g>
<g id="glyph-4-5">
<path d="M -6.09375 -0.875 C -6.226562 -0.875 -6.34375 -0.921875 -6.4375 -1.015625 C -6.539062 -1.109375 -6.59375 -1.226562 -6.59375 -1.375 C -6.59375 -1.5 -6.539062 -1.609375 -6.4375 -1.703125 C -6.34375 -1.804688 -6.226562 -1.859375 -6.09375 -1.859375 C -5.957031 -1.859375 -5.835938 -1.8125 -5.734375 -1.71875 C -5.640625 -1.625 -5.59375 -1.507812 -5.59375 -1.375 C -5.59375 -1.226562 -5.640625 -1.109375 -5.734375 -1.015625 C -5.835938 -0.921875 -5.957031 -0.875 -6.09375 -0.875 Z M -0.46875 -1.890625 L -0.46875 -2.65625 L 0 -2.65625 L 0 -0.328125 L -0.46875 -0.328125 L -0.46875 -1.09375 L -4.171875 -1.09375 L -4.171875 -0.328125 L -4.640625 -0.328125 L -4.640625 -1.890625 Z M -0.46875 -1.890625 "/>
</g>
<g id="glyph-4-6">
<path d="M 0 -2.21875 L -4.171875 -0.5 L -4.171875 0.03125 L -4.640625 0.03125 L -4.640625 -2.109375 L -4.171875 -2.109375 L -4.171875 -1.375 L -0.984375 -2.671875 L -4.171875 -3.984375 L -4.171875 -3.28125 L -4.640625 -3.28125 L -4.640625 -5.03125 L -4.171875 -5.03125 L -4.171875 -4.515625 L 0 -2.796875 Z M 0 -2.21875 "/>
</g>
<g id="glyph-4-7">
</g>
<g id="glyph-4-8">
<path d="M -0.3125 -2.6875 C -0.3125 -3.125 -0.476562 -3.453125 -0.8125 -3.671875 C -1.15625 -3.890625 -1.660156 -4 -2.328125 -4 C -2.992188 -4 -3.492188 -3.890625 -3.828125 -3.671875 C -4.171875 -3.453125 -4.34375 -3.125 -4.34375 -2.6875 C -4.34375 -2.257812 -4.171875 -1.9375 -3.828125 -1.71875 C -3.492188 -1.5 -2.992188 -1.390625 -2.328125 -1.390625 C -1.660156 -1.390625 -1.15625 -1.5 -0.8125 -1.71875 C -0.476562 -1.9375 -0.3125 -2.257812 -0.3125 -2.6875 Z M 0.125 -2.6875 C 0.125 -2.007812 -0.0976562 -1.46875 -0.546875 -1.0625 C -0.992188 -0.65625 -1.585938 -0.453125 -2.328125 -0.453125 C -3.066406 -0.453125 -3.660156 -0.65625 -4.109375 -1.0625 C -4.554688 -1.46875 -4.78125 -2.007812 -4.78125 -2.6875 C -4.78125 -3.375 -4.554688 -3.921875 -4.109375 -4.328125 C -3.660156 -4.734375 -3.066406 -4.9375 -2.328125 -4.9375 C -1.585938 -4.9375 -0.992188 -4.734375 -0.546875 -4.328125 C -0.0976562 -3.921875 0.125 -3.375 0.125 -2.6875 Z M 0.125 -2.6875 "/>
</g>
<g id="glyph-4-9">
<path d="M -0.265625 -0.5 L -1.34375 -0.5 L -1.34375 -0.96875 C -1 -0.976562 -0.738281 -1.082031 -0.5625 -1.28125 C -0.394531 -1.488281 -0.3125 -1.796875 -0.3125 -2.203125 C -0.3125 -2.566406 -0.378906 -2.84375 -0.515625 -3.03125 C -0.648438 -3.21875 -0.847656 -3.3125 -1.109375 -3.3125 C -1.304688 -3.3125 -1.46875 -3.238281 -1.59375 -3.09375 C -1.71875 -2.957031 -1.851562 -2.671875 -2 -2.234375 L -2.1875 -1.640625 C -2.320312 -1.242188 -2.484375 -0.957031 -2.671875 -0.78125 C -2.867188 -0.601562 -3.113281 -0.515625 -3.40625 -0.515625 C -3.832031 -0.515625 -4.164062 -0.671875 -4.40625 -0.984375 C -4.65625 -1.296875 -4.78125 -1.722656 -4.78125 -2.265625 C -4.78125 -2.515625 -4.742188 -2.773438 -4.671875 -3.046875 C -4.609375 -3.316406 -4.515625 -3.597656 -4.390625 -3.890625 L -3.390625 -3.890625 L -3.390625 -3.421875 C -3.679688 -3.410156 -3.910156 -3.304688 -4.078125 -3.109375 C -4.253906 -2.910156 -4.34375 -2.640625 -4.34375 -2.296875 C -4.34375 -1.960938 -4.28125 -1.707031 -4.15625 -1.53125 C -4.039062 -1.351562 -3.863281 -1.265625 -3.625 -1.265625 C -3.425781 -1.265625 -3.269531 -1.332031 -3.15625 -1.46875 C -3.039062 -1.601562 -2.921875 -1.863281 -2.796875 -2.25 L -2.59375 -2.890625 C -2.457031 -3.328125 -2.285156 -3.644531 -2.078125 -3.84375 C -1.878906 -4.039062 -1.617188 -4.140625 -1.296875 -4.140625 C -0.847656 -4.140625 -0.5 -3.96875 -0.25 -3.625 C 0 -3.289062 0.125 -2.828125 0.125 -2.234375 C 0.125 -1.929688 0.09375 -1.640625 0.03125 -1.359375 C -0.03125 -1.078125 -0.128906 -0.789062 -0.265625 -0.5 Z M -0.265625 -0.5 "/>
</g>
<g id="glyph-4-10">
<path d="M -0.453125 -0.84375 C -0.617188 -0.84375 -0.757812 -0.894531 -0.875 -1 C -0.988281 -1.113281 -1.046875 -1.253906 -1.046875 -1.421875 C -1.046875 -1.585938 -0.988281 -1.722656 -0.875 -1.828125 C -0.757812 -1.941406 -0.617188 -2 -0.453125 -2 C -0.296875 -2 -0.160156 -1.941406 -0.046875 -1.828125 C 0.0664062 -1.722656 0.125 -1.585938 0.125 -1.421875 C 0.125 -1.253906 0.0703125 -1.113281 -0.03125 -1 C -0.144531 -0.894531 -0.285156 -0.84375 -0.453125 -0.84375 Z M -0.453125 -0.84375 "/>
</g>
<g id="glyph-4-11">
<path d="M 0 -0.375 L -0.46875 -0.375 L -0.46875 -1.09375 L -4.171875 -1.09375 L -4.171875 -0.328125 L -4.640625 -0.328125 L -4.640625 -1.890625 L -3.828125 -1.890625 C -4.140625 -2.046875 -4.375 -2.238281 -4.53125 -2.46875 C -4.695312 -2.707031 -4.78125 -2.988281 -4.78125 -3.3125 C -4.78125 -3.820312 -4.628906 -4.195312 -4.328125 -4.4375 C -4.035156 -4.675781 -3.578125 -4.796875 -2.953125 -4.796875 L -0.46875 -4.796875 L -0.46875 -5.515625 L 0 -5.515625 L 0 -3.296875 L -0.46875 -3.296875 L -0.46875 -3.984375 L -2.703125 -3.984375 C -3.265625 -3.984375 -3.648438 -3.914062 -3.859375 -3.78125 C -4.078125 -3.644531 -4.1875 -3.398438 -4.1875 -3.046875 C -4.1875 -2.671875 -4.050781 -2.382812 -3.78125 -2.1875 C -3.507812 -1.988281 -3.113281 -1.890625 -2.59375 -1.890625 L -0.46875 -1.890625 L -0.46875 -2.59375 L 0 -2.59375 Z M 0 -0.375 "/>
</g>
<g id="glyph-4-12">
<path d="M -4.171875 -4.703125 L -0.09375 -4.703125 C 0.570312 -4.703125 1.082031 -4.515625 1.4375 -4.140625 C 1.800781 -3.773438 1.984375 -3.253906 1.984375 -2.578125 C 1.984375 -2.273438 1.957031 -1.984375 1.90625 -1.703125 C 1.851562 -1.421875 1.769531 -1.148438 1.65625 -0.890625 L 0.6875 -0.890625 L 0.6875 -1.3125 C 0.988281 -1.363281 1.207031 -1.488281 1.34375 -1.6875 C 1.488281 -1.882812 1.5625 -2.164062 1.5625 -2.53125 C 1.5625 -3 1.425781 -3.34375 1.15625 -3.5625 C 0.882812 -3.78125 0.46875 -3.890625 -0.09375 -3.890625 L -0.71875 -3.890625 C -0.425781 -3.734375 -0.210938 -3.53125 -0.078125 -3.28125 C 0.0546875 -3.039062 0.125 -2.742188 0.125 -2.390625 C 0.125 -1.816406 -0.0976562 -1.347656 -0.546875 -0.984375 C -1.003906 -0.628906 -1.597656 -0.453125 -2.328125 -0.453125 C -3.054688 -0.453125 -3.644531 -0.628906 -4.09375 -0.984375 C -4.550781 -1.347656 -4.78125 -1.816406 -4.78125 -2.390625 C -4.78125 -2.742188 -4.707031 -3.039062 -4.5625 -3.28125 C -4.425781 -3.53125 -4.210938 -3.734375 -3.921875 -3.890625 L -4.640625 -3.890625 L -4.640625 -5.46875 L -4.171875 -5.46875 Z M -2.546875 -3.890625 C -3.109375 -3.890625 -3.535156 -3.78125 -3.828125 -3.5625 C -4.117188 -3.351562 -4.265625 -3.046875 -4.265625 -2.640625 C -4.265625 -2.222656 -4.101562 -1.910156 -3.78125 -1.703125 C -3.457031 -1.492188 -2.972656 -1.390625 -2.328125 -1.390625 C -1.679688 -1.390625 -1.191406 -1.492188 -0.859375 -1.703125 C -0.535156 -1.910156 -0.375 -2.222656 -0.375 -2.640625 C -0.375 -3.046875 -0.519531 -3.351562 -0.8125 -3.5625 C -1.101562 -3.78125 -1.53125 -3.890625 -2.09375 -3.890625 Z M -2.546875 -3.890625 "/>
</g>
<g id="glyph-5-0">
<path d="M -5.625 -4.6875 L -5.625 -4.265625 C -5.875 -4.265625 -6.0625 -4.171875 -6.1875 -3.984375 C -6.3125 -3.804688 -6.375 -3.539062 -6.375 -3.1875 C -6.375 -2.738281 -6.269531 -2.410156 -6.0625 -2.203125 C -5.851562 -1.992188 -5.523438 -1.890625 -5.078125 -1.890625 L -4.640625 -1.890625 L -4.640625 -5 L -0.46875 -5 L -0.46875 -5.765625 L 0 -5.765625 L 0 -3.421875 L -0.46875 -3.421875 L -0.46875 -4.203125 L -4.171875 -4.203125 L -4.171875 -1.890625 L -0.46875 -1.890625 L -0.46875 -2.65625 L 0 -2.65625 L 0 -0.328125 L -0.46875 -0.328125 L -0.46875 -1.09375 L -4.171875 -1.09375 L -4.171875 -0.328125 L -4.640625 -0.328125 L -4.640625 -1.09375 L -5.0625 -1.09375 C -5.632812 -1.09375 -6.066406 -1.257812 -6.359375 -1.59375 C -6.648438 -1.9375 -6.796875 -2.441406 -6.796875 -3.109375 C -6.796875 -3.367188 -6.773438 -3.628906 -6.734375 -3.890625 C -6.703125 -4.160156 -6.648438 -4.425781 -6.578125 -4.6875 Z M -5.625 -4.6875 "/>
</g>
<g id="glyph-6-0">
<path d="M 2.6875 -2.234375 L 1.484375 -0.46875 L 2.203125 -0.46875 L 2.203125 0 L 0.140625 0 L 0.140625 -0.46875 L 0.859375 -0.46875 L 2.390625 -2.6875 L 0.578125 -5.328125 L 0.03125 -5.328125 L 0.03125 -5.796875 L 2.921875 -5.796875 L 2.921875 -5.328125 L 2.28125 -5.328125 L 3.40625 -3.703125 L 4.515625 -5.328125 L 3.84375 -5.328125 L 3.84375 -5.796875 L 5.859375 -5.796875 L 5.859375 -5.328125 L 5.140625 -5.328125 L 3.71875 -3.25 L 5.609375 -0.46875 L 6.15625 -0.46875 L 6.15625 0 L 3.265625 0 L 3.265625 -0.46875 L 3.921875 -0.46875 Z M 2.6875 -2.234375 "/>
</g>
</g>
<clipPath id="clip-0">
<path clip-rule="nonzero" d="M 0.464844 0 L 262.550781 0 L 262.550781 178.066406 L 0.464844 178.066406 Z M 0.464844 0 "/>
</clipPath>
</defs>
<g clip-path="url(#clip-0)">
<path fill-rule="nonzero" fill="rgb(100%, 100%, 100%)" fill-opacity="1" d="M 0.464844 178.066406 L 262.550781 178.066406 L 262.550781 0 L 0.464844 0 Z M 0.464844 178.066406 "/>
</g>
<path fill-rule="nonzero" fill="rgb(100%, 100%, 100%)" fill-opacity="1" d="M 44.671875 148.777344 L 261.117188 148.777344 L 261.117188 5.410156 L 44.671875 5.410156 Z M 44.671875 148.777344 "/>
<path fill="none" stroke-width="0.8" stroke-linecap="butt" stroke-linejoin="round" stroke="rgb(0%, 0%, 0%)" stroke-opacity="1" stroke-miterlimit="10" d="M 53.114874 29.44631 L 53.114874 25.946981 " transform="matrix(0.99461, 0, 0, -0.99461, 0.464366, 178.064947)"/>
<g fill="rgb(0%, 0%, 0%)" fill-opacity="1">
<use xlink:href="#glyph-0-0" x="50.761403" y="161.78543"/>
</g>
<path fill="none" stroke-width="0.8" stroke-linecap="butt" stroke-linejoin="round" stroke="rgb(0%, 0%, 0%)" stroke-opacity="1" stroke-miterlimit="10" d="M 77.539484 29.44631 L 77.539484 25.946981 " transform="matrix(0.99461, 0, 0, -0.99461, 0.464366, 178.064947)"/>
<g fill="rgb(0%, 0%, 0%)" fill-opacity="1">
<use xlink:href="#glyph-0-1" x="72.520859" y="161.78543"/>
</g>
<g fill="rgb(0%, 0%, 0%)" fill-opacity="1">
<use xlink:href="#glyph-0-0" x="77.585321" y="161.78543"/>
</g>
<path fill="none" stroke-width="0.8" stroke-linecap="butt" stroke-linejoin="round" stroke="rgb(0%, 0%, 0%)" stroke-opacity="1" stroke-miterlimit="10" d="M 101.964093 29.44631 L 101.964093 25.946981 " transform="matrix(0.99461, 0, 0, -0.99461, 0.464366, 178.064947)"/>
<g fill="rgb(0%, 0%, 0%)" fill-opacity="1">
<use xlink:href="#glyph-0-2" x="96.813463" y="161.78543"/>
</g>
<g fill="rgb(0%, 0%, 0%)" fill-opacity="1">
<use xlink:href="#glyph-0-0" x="101.877925" y="161.78543"/>
</g>
<path fill="none" stroke-width="0.8" stroke-linecap="butt" stroke-linejoin="round" stroke="rgb(0%, 0%, 0%)" stroke-opacity="1" stroke-miterlimit="10" d="M 126.388702 29.44631 L 126.388702 25.946981 " transform="matrix(0.99461, 0, 0, -0.99461, 0.464366, 178.064947)"/>
<g fill="rgb(0%, 0%, 0%)" fill-opacity="1">
<use xlink:href="#glyph-0-3" x="121.106066" y="161.78543"/>
</g>
<g fill="rgb(0%, 0%, 0%)" fill-opacity="1">
<use xlink:href="#glyph-0-0" x="126.170529" y="161.78543"/>
</g>
<path fill="none" stroke-width="0.8" stroke-linecap="butt" stroke-linejoin="round" stroke="rgb(0%, 0%, 0%)" stroke-opacity="1" stroke-miterlimit="10" d="M 150.813312 29.44631 L 150.813312 25.946981 " transform="matrix(0.99461, 0, 0, -0.99461, 0.464366, 178.064947)"/>
<g fill="rgb(0%, 0%, 0%)" fill-opacity="1">
<use xlink:href="#glyph-0-4" x="145.39867" y="161.78543"/>
</g>
<g fill="rgb(0%, 0%, 0%)" fill-opacity="1">
<use xlink:href="#glyph-0-0" x="150.463133" y="161.78543"/>
</g>
<path fill="none" stroke-width="0.8" stroke-linecap="butt" stroke-linejoin="round" stroke="rgb(0%, 0%, 0%)" stroke-opacity="1" stroke-miterlimit="10" d="M 175.237921 29.44631 L 175.237921 25.946981 " transform="matrix(0.99461, 0, 0, -0.99461, 0.464366, 178.064947)"/>
<g fill="rgb(0%, 0%, 0%)" fill-opacity="1">
<use xlink:href="#glyph-0-5" x="167.158126" y="161.78543"/>
</g>
<g fill="rgb(0%, 0%, 0%)" fill-opacity="1">
<use xlink:href="#glyph-0-0" x="172.222588" y="161.78543"/>
</g>
<g fill="rgb(0%, 0%, 0%)" fill-opacity="1">
<use xlink:href="#glyph-0-0" x="177.287051" y="161.78543"/>
</g>
<path fill="none" stroke-width="0.8" stroke-linecap="butt" stroke-linejoin="round" stroke="rgb(0%, 0%, 0%)" stroke-opacity="1" stroke-miterlimit="10" d="M 199.66253 29.44631 L 199.66253 25.946981 " transform="matrix(0.99461, 0, 0, -0.99461, 0.464366, 178.064947)"/>
<g fill="rgb(0%, 0%, 0%)" fill-opacity="1">
<use xlink:href="#glyph-0-5" x="191.45073" y="161.78543"/>
</g>
<g fill="rgb(0%, 0%, 0%)" fill-opacity="1">
<use xlink:href="#glyph-0-1" x="196.515192" y="161.78543"/>
</g>
<g fill="rgb(0%, 0%, 0%)" fill-opacity="1">
<use xlink:href="#glyph-0-0" x="201.579655" y="161.78543"/>
</g>
<path fill="none" stroke-width="0.8" stroke-linecap="butt" stroke-linejoin="round" stroke="rgb(0%, 0%, 0%)" stroke-opacity="1" stroke-miterlimit="10" d="M 224.08714 29.44631 L 224.08714 25.946981 " transform="matrix(0.99461, 0, 0, -0.99461, 0.464366, 178.064947)"/>
<g fill="rgb(0%, 0%, 0%)" fill-opacity="1">
<use xlink:href="#glyph-0-5" x="215.743334" y="161.78543"/>
</g>
<g fill="rgb(0%, 0%, 0%)" fill-opacity="1">
<use xlink:href="#glyph-0-2" x="220.807796" y="161.78543"/>
</g>
<g fill="rgb(0%, 0%, 0%)" fill-opacity="1">
<use xlink:href="#glyph-0-0" x="225.872259" y="161.78543"/>
</g>
<path fill="none" stroke-width="0.8" stroke-linecap="butt" stroke-linejoin="round" stroke="rgb(0%, 0%, 0%)" stroke-opacity="1" stroke-miterlimit="10" d="M 248.511749 29.44631 L 248.511749 25.946981 " transform="matrix(0.99461, 0, 0, -0.99461, 0.464366, 178.064947)"/>
<g fill="rgb(0%, 0%, 0%)" fill-opacity="1">
<use xlink:href="#glyph-0-5" x="240.035937" y="161.78543"/>
</g>
<g fill="rgb(0%, 0%, 0%)" fill-opacity="1">
<use xlink:href="#glyph-0-3" x="245.1004" y="161.78543"/>
</g>
<g fill="rgb(0%, 0%, 0%)" fill-opacity="1">
<use xlink:href="#glyph-0-0" x="250.164862" y="161.78543"/>
</g>
<g fill="rgb(0%, 0%, 0%)" fill-opacity="1">
<use xlink:href="#glyph-1-0" x="99.970079" y="174.482252"/>
</g>
<g fill="rgb(0%, 0%, 0%)" fill-opacity="1">
<use xlink:href="#glyph-1-1" x="107.632071" y="174.482252"/>
</g>
<g fill="rgb(0%, 0%, 0%)" fill-opacity="1">
<use xlink:href="#glyph-1-2" x="110.493149" y="174.482252"/>
</g>
<g fill="rgb(0%, 0%, 0%)" fill-opacity="1">
<use xlink:href="#glyph-1-3" x="116.258397" y="174.482252"/>
</g>
<g fill="rgb(0%, 0%, 0%)" fill-opacity="1">
<use xlink:href="#glyph-1-4" x="121.991723" y="174.482252"/>
</g>
<g fill="rgb(0%, 0%, 0%)" fill-opacity="1">
<use xlink:href="#glyph-1-0" x="127.383921" y="174.482252"/>
</g>
<g fill="rgb(0%, 0%, 0%)" fill-opacity="1">
<use xlink:href="#glyph-1-5" x="135.045914" y="174.482252"/>
</g>
<g fill="rgb(0%, 0%, 0%)" fill-opacity="1">
<use xlink:href="#glyph-1-6" x="137.891031" y="174.482252"/>
</g>
<g fill="rgb(0%, 0%, 0%)" fill-opacity="1">
<use xlink:href="#glyph-1-7" x="142.489461" y="174.482252"/>
</g>
<g fill="rgb(0%, 0%, 0%)" fill-opacity="1">
<use xlink:href="#glyph-1-8" x="146.080676" y="174.482252"/>
</g>
<g fill="rgb(0%, 0%, 0%)" fill-opacity="1">
<use xlink:href="#glyph-1-9" x="151.381903" y="174.482252"/>
</g>
<g fill="rgb(0%, 0%, 0%)" fill-opacity="1">
<use xlink:href="#glyph-1-5" x="157.115229" y="174.482252"/>
</g>
<g fill="rgb(0%, 0%, 0%)" fill-opacity="1">
<use xlink:href="#glyph-1-10" x="159.960347" y="174.482252"/>
</g>
<g fill="rgb(0%, 0%, 0%)" fill-opacity="1">
<use xlink:href="#glyph-1-11" x="163.4558" y="174.482252"/>
</g>
<g fill="rgb(0%, 0%, 0%)" fill-opacity="1">
<use xlink:href="#glyph-1-12" x="169.189126" y="174.482252"/>
</g>
<g fill="rgb(0%, 0%, 0%)" fill-opacity="1">
<use xlink:href="#glyph-1-13" x="174.954373" y="174.482252"/>
</g>
<g fill="rgb(0%, 0%, 0%)" fill-opacity="1">
<use xlink:href="#glyph-1-14" x="180.28315" y="174.482252"/>
</g>
<g fill="rgb(0%, 0%, 0%)" fill-opacity="1">
<use xlink:href="#glyph-1-7" x="184.556621" y="174.482252"/>
</g>
<g fill="rgb(0%, 0%, 0%)" fill-opacity="1">
<use xlink:href="#glyph-1-8" x="188.147837" y="174.482252"/>
</g>
<g fill="rgb(0%, 0%, 0%)" fill-opacity="1">
<use xlink:href="#glyph-1-14" x="193.449063" y="174.482252"/>
</g>
<g fill="rgb(0%, 0%, 0%)" fill-opacity="1">
<use xlink:href="#glyph-1-6" x="197.722535" y="174.482252"/>
</g>
<g fill="rgb(0%, 0%, 0%)" fill-opacity="1">
<use xlink:href="#glyph-1-15" x="202.320964" y="174.482252"/>
</g>
<path fill="none" stroke-width="0.8" stroke-linecap="butt" stroke-linejoin="round" stroke="rgb(0%, 0%, 0%)" stroke-opacity="1" stroke-miterlimit="10" d="M 44.447064 37.925604 L 40.947735 37.925604 " transform="matrix(0.99461, 0, 0, -0.99461, 0.464366, 178.064947)"/>
<g fill="rgb(0%, 0%, 0%)" fill-opacity="1">
<use xlink:href="#glyph-0-5" x="14.832367" y="143.786032"/>
</g>
<g fill="rgb(0%, 0%, 0%)" fill-opacity="1">
<use xlink:href="#glyph-0-0" x="19.894778" y="143.786032"/>
</g>
<g fill="rgb(0%, 0%, 0%)" fill-opacity="1">
<use xlink:href="#glyph-2-0" x="25.029464" y="140.49984"/>
</g>
<g fill="rgb(0%, 0%, 0%)" fill-opacity="1">
<use xlink:href="#glyph-3-0" x="29.696362" y="140.49984"/>
</g>
<g fill="rgb(0%, 0%, 0%)" fill-opacity="1">
<use xlink:href="#glyph-3-1" x="33.24005" y="140.49984"/>
</g>
<path fill="none" stroke-width="0.8" stroke-linecap="butt" stroke-linejoin="round" stroke="rgb(0%, 0%, 0%)" stroke-opacity="1" stroke-miterlimit="10" d="M 44.447064 54.884193 L 40.947735 54.884193 " transform="matrix(0.99461, 0, 0, -0.99461, 0.464366, 178.064947)"/>
<g fill="rgb(0%, 0%, 0%)" fill-opacity="1">
<use xlink:href="#glyph-0-5" x="14.832367" y="126.919313"/>
</g>
<g fill="rgb(0%, 0%, 0%)" fill-opacity="1">
<use xlink:href="#glyph-0-0" x="19.894778" y="126.919313"/>
</g>
<g fill="rgb(0%, 0%, 0%)" fill-opacity="1">
<use xlink:href="#glyph-2-0" x="25.029464" y="123.633121"/>
</g>
<g fill="rgb(0%, 0%, 0%)" fill-opacity="1">
<use xlink:href="#glyph-3-0" x="29.696362" y="123.633121"/>
</g>
<g fill="rgb(0%, 0%, 0%)" fill-opacity="1">
<use xlink:href="#glyph-3-2" x="33.24005" y="123.633121"/>
</g>
<path fill="none" stroke-width="0.8" stroke-linecap="butt" stroke-linejoin="round" stroke="rgb(0%, 0%, 0%)" stroke-opacity="1" stroke-miterlimit="10" d="M 44.447064 71.842781 L 40.947735 71.842781 " transform="matrix(0.99461, 0, 0, -0.99461, 0.464366, 178.064947)"/>
<g fill="rgb(0%, 0%, 0%)" fill-opacity="1">
<use xlink:href="#glyph-0-5" x="14.832367" y="110.052595"/>
</g>
<g fill="rgb(0%, 0%, 0%)" fill-opacity="1">
<use xlink:href="#glyph-0-0" x="19.894778" y="110.052595"/>
</g>
<g fill="rgb(0%, 0%, 0%)" fill-opacity="1">
<use xlink:href="#glyph-2-0" x="25.029464" y="106.766402"/>
</g>
<g fill="rgb(0%, 0%, 0%)" fill-opacity="1">
<use xlink:href="#glyph-3-0" x="29.696362" y="106.766402"/>
</g>
<g fill="rgb(0%, 0%, 0%)" fill-opacity="1">
<use xlink:href="#glyph-3-3" x="33.24005" y="106.766402"/>
</g>
<path fill="none" stroke-width="0.8" stroke-linecap="butt" stroke-linejoin="round" stroke="rgb(0%, 0%, 0%)" stroke-opacity="1" stroke-miterlimit="10" d="M 44.447064 88.797443 L 40.947735 88.797443 " transform="matrix(0.99461, 0, 0, -0.99461, 0.464366, 178.064947)"/>
<g fill="rgb(0%, 0%, 0%)" fill-opacity="1">
<use xlink:href="#glyph-0-5" x="14.832367" y="93.185876"/>
</g>
<g fill="rgb(0%, 0%, 0%)" fill-opacity="1">
<use xlink:href="#glyph-0-0" x="19.894778" y="93.185876"/>
</g>
<g fill="rgb(0%, 0%, 0%)" fill-opacity="1">
<use xlink:href="#glyph-2-0" x="25.029464" y="89.899683"/>
</g>
<g fill="rgb(0%, 0%, 0%)" fill-opacity="1">
<use xlink:href="#glyph-3-0" x="29.696362" y="89.899683"/>
</g>
<g fill="rgb(0%, 0%, 0%)" fill-opacity="1">
<use xlink:href="#glyph-3-4" x="33.24005" y="89.899683"/>
</g>
<path fill="none" stroke-width="0.8" stroke-linecap="butt" stroke-linejoin="round" stroke="rgb(0%, 0%, 0%)" stroke-opacity="1" stroke-miterlimit="10" d="M 44.447064 105.756031 L 40.947735 105.756031 " transform="matrix(0.99461, 0, 0, -0.99461, 0.464366, 178.064947)"/>
<g fill="rgb(0%, 0%, 0%)" fill-opacity="1">
<use xlink:href="#glyph-0-5" x="18.810808" y="76.319157"/>
</g>
<g fill="rgb(0%, 0%, 0%)" fill-opacity="1">
<use xlink:href="#glyph-0-0" x="23.87322" y="76.319157"/>
</g>
<g fill="rgb(0%, 0%, 0%)" fill-opacity="1">
<use xlink:href="#glyph-2-0" x="29.007905" y="73.032964"/>
</g>
<g fill="rgb(0%, 0%, 0%)" fill-opacity="1">
<use xlink:href="#glyph-3-5" x="33.674803" y="73.032964"/>
</g>
<path fill="none" stroke-width="0.8" stroke-linecap="butt" stroke-linejoin="round" stroke="rgb(0%, 0%, 0%)" stroke-opacity="1" stroke-miterlimit="10" d="M 44.447064 122.71462 L 40.947735 122.71462 " transform="matrix(0.99461, 0, 0, -0.99461, 0.464366, 178.064947)"/>
<g fill="rgb(0%, 0%, 0%)" fill-opacity="1">
<use xlink:href="#glyph-0-5" x="18.810808" y="59.452438"/>
</g>
<g fill="rgb(0%, 0%, 0%)" fill-opacity="1">
<use xlink:href="#glyph-0-0" x="23.87322" y="59.452438"/>
</g>
<g fill="rgb(0%, 0%, 0%)" fill-opacity="1">
<use xlink:href="#glyph-2-0" x="29.007905" y="56.166245"/>
</g>
<g fill="rgb(0%, 0%, 0%)" fill-opacity="1">
<use xlink:href="#glyph-3-1" x="33.674803" y="56.166245"/>
</g>
<path fill="none" stroke-width="0.8" stroke-linecap="butt" stroke-linejoin="round" stroke="rgb(0%, 0%, 0%)" stroke-opacity="1" stroke-miterlimit="10" d="M 44.447064 139.673209 L 40.947735 139.673209 " transform="matrix(0.99461, 0, 0, -0.99461, 0.464366, 178.064947)"/>
<g fill="rgb(0%, 0%, 0%)" fill-opacity="1">
<use xlink:href="#glyph-0-5" x="18.810808" y="42.585719"/>
</g>
<g fill="rgb(0%, 0%, 0%)" fill-opacity="1">
<use xlink:href="#glyph-0-0" x="23.87322" y="42.585719"/>
</g>
<g fill="rgb(0%, 0%, 0%)" fill-opacity="1">
<use xlink:href="#glyph-2-0" x="29.007905" y="39.299526"/>
</g>
<g fill="rgb(0%, 0%, 0%)" fill-opacity="1">
<use xlink:href="#glyph-3-2" x="33.674803" y="39.299526"/>
</g>
<path fill="none" stroke-width="0.8" stroke-linecap="butt" stroke-linejoin="round" stroke="rgb(0%, 0%, 0%)" stroke-opacity="1" stroke-miterlimit="10" d="M 44.447064 156.631797 L 40.947735 156.631797 " transform="matrix(0.99461, 0, 0, -0.99461, 0.464366, 178.064947)"/>
<g fill="rgb(0%, 0%, 0%)" fill-opacity="1">
<use xlink:href="#glyph-0-5" x="18.810808" y="25.719"/>
</g>
<g fill="rgb(0%, 0%, 0%)" fill-opacity="1">
<use xlink:href="#glyph-0-0" x="23.87322" y="25.719"/>
</g>
<g fill="rgb(0%, 0%, 0%)" fill-opacity="1">
<use xlink:href="#glyph-2-0" x="29.007905" y="22.432807"/>
</g>
<g fill="rgb(0%, 0%, 0%)" fill-opacity="1">
<use xlink:href="#glyph-3-3" x="33.674803" y="22.432807"/>
</g>
<path fill="none" stroke-width="0.8" stroke-linecap="butt" stroke-linejoin="round" stroke="rgb(0%, 0%, 0%)" stroke-opacity="1" stroke-miterlimit="10" d="M 44.447064 173.590386 L 40.947735 173.590386 " transform="matrix(0.99461, 0, 0, -0.99461, 0.464366, 178.064947)"/>
<g fill="rgb(0%, 0%, 0%)" fill-opacity="1">
<use xlink:href="#glyph-0-5" x="22.78925" y="8.852281"/>
</g>
<g fill="rgb(0%, 0%, 0%)" fill-opacity="1">
<use xlink:href="#glyph-0-0" x="27.851661" y="8.852281"/>
</g>
<g fill="rgb(0%, 0%, 0%)" fill-opacity="1">
<use xlink:href="#glyph-3-4" x="32.986346" y="5.566088"/>
</g>
<g fill="rgb(0%, 0%, 0%)" fill-opacity="1">
<use xlink:href="#glyph-4-0" x="8.703469" y="135.185695"/>
</g>
<g fill="rgb(0%, 0%, 0%)" fill-opacity="1">
<use xlink:href="#glyph-4-1" x="8.703469" y="130.912224"/>
</g>
<g fill="rgb(0%, 0%, 0%)" fill-opacity="1">
<use xlink:href="#glyph-4-2" x="8.703469" y="125.610998"/>
</g>
<g fill="rgb(0%, 0%, 0%)" fill-opacity="1">
<use xlink:href="#glyph-4-3" x="8.703469" y="122.749919"/>
</g>
<g fill="rgb(0%, 0%, 0%)" fill-opacity="1">
<use xlink:href="#glyph-4-4" x="8.703469" y="117.421143"/>
</g>
<g fill="rgb(0%, 0%, 0%)" fill-opacity="1">
<use xlink:href="#glyph-4-5" x="8.703469" y="113.829928"/>
</g>
<g fill="rgb(0%, 0%, 0%)" fill-opacity="1">
<use xlink:href="#glyph-4-6" x="8.703469" y="110.968849"/>
</g>
<g fill="rgb(0%, 0%, 0%)" fill-opacity="1">
<use xlink:href="#glyph-4-1" x="8.703469" y="105.917569"/>
</g>
<g fill="rgb(0%, 0%, 0%)" fill-opacity="1">
<use xlink:href="#glyph-4-7" x="8.703469" y="100.616343"/>
</g>
<g fill="rgb(0%, 0%, 0%)" fill-opacity="1">
<use xlink:href="#glyph-4-1" x="8.703469" y="97.771225"/>
</g>
<g fill="rgb(0%, 0%, 0%)" fill-opacity="1">
<use xlink:href="#glyph-4-0" x="8.703469" y="92.469999"/>
</g>
<g fill="rgb(0%, 0%, 0%)" fill-opacity="1">
<use xlink:href="#glyph-4-0" x="8.703469" y="88.196527"/>
</g>
<g fill="rgb(0%, 0%, 0%)" fill-opacity="1">
<use xlink:href="#glyph-4-8" x="8.703469" y="83.923056"/>
</g>
<g fill="rgb(0%, 0%, 0%)" fill-opacity="1">
<use xlink:href="#glyph-4-0" x="8.703469" y="78.530857"/>
</g>
<g fill="rgb(0%, 0%, 0%)" fill-opacity="1">
<use xlink:href="#glyph-4-7" x="8.703469" y="74.257386"/>
</g>
<g fill="rgb(0%, 0%, 0%)" fill-opacity="1">
<use xlink:href="#glyph-4-6" x="8.703469" y="71.412268"/>
</g>
<g fill="rgb(0%, 0%, 0%)" fill-opacity="1">
<use xlink:href="#glyph-4-9" x="8.703469" y="66.360988"/>
</g>
<g fill="rgb(0%, 0%, 0%)" fill-opacity="1">
<use xlink:href="#glyph-4-10" x="8.703469" y="61.762559"/>
</g>
<g fill="rgb(0%, 0%, 0%)" fill-opacity="1">
<use xlink:href="#glyph-4-7" x="8.703469" y="58.917441"/>
</g>
<g fill="rgb(0%, 0%, 0%)" fill-opacity="1">
<use xlink:href="#glyph-4-0" x="8.703469" y="56.072323"/>
</g>
<g fill="rgb(0%, 0%, 0%)" fill-opacity="1">
<use xlink:href="#glyph-4-1" x="8.703469" y="51.798851"/>
</g>
<g fill="rgb(0%, 0%, 0%)" fill-opacity="1">
<use xlink:href="#glyph-5-0" x="8.703469" y="46.508026"/>
</g>
<g fill="rgb(0%, 0%, 0%)" fill-opacity="1">
<use xlink:href="#glyph-4-4" x="8.703469" y="40.54522"/>
</g>
<g fill="rgb(0%, 0%, 0%)" fill-opacity="1">
<use xlink:href="#glyph-4-4" x="8.703469" y="36.954005"/>
</g>
<g fill="rgb(0%, 0%, 0%)" fill-opacity="1">
<use xlink:href="#glyph-4-5" x="8.703469" y="33.362789"/>
</g>
<g fill="rgb(0%, 0%, 0%)" fill-opacity="1">
<use xlink:href="#glyph-4-11" x="8.703469" y="30.501711"/>
</g>
<g fill="rgb(0%, 0%, 0%)" fill-opacity="1">
<use xlink:href="#glyph-4-12" x="8.703469" y="24.736464"/>
</g>
<path fill="none" stroke-width="1.2" stroke-linecap="square" stroke-linejoin="round" stroke="rgb(64.312744%, 36.077881%, 14.509583%)" stroke-opacity="1" stroke-miterlimit="10" d="M 54.336301 94.837811 L 55.557728 95.540818 L 56.779155 97.936543 L 58.000582 100.650389 L 59.222008 104.14579 L 61.664862 112.511189 L 62.886289 120.955137 L 64.107716 112.314819 L 65.329143 108.854764 L 66.550569 108.414893 L 67.771996 108.862619 L 68.993423 110.013352 L 71.436277 110.571045 L 72.657704 109.491005 L 73.875203 108.933312 L 75.09663 107.59799 L 76.318057 106.969603 L 77.539484 105.952402 L 81.203764 105.563588 L 83.646618 105.913128 L 84.868045 105.100153 L 86.089471 105.194411 L 89.753752 104.664209 L 94.639459 104.326451 L 98.299812 105.135499 L 100.742666 105.233685 L 101.964093 105.237612 L 103.18552 105.367217 L 104.406947 105.339725 L 105.628373 104.840943 L 106.8498 104.487476 L 108.071227 104.295032 L 109.292654 103.808032 L 110.514081 102.786904 L 111.735508 102.048549 L 112.956934 99.256155 L 114.178361 98.235027 L 115.399788 102.814396 L 116.621215 106.148773 L 117.842642 107.637264 L 119.060141 106.965676 L 120.281568 105.481112 L 121.502995 104.821306 L 122.724422 103.525258 L 123.945849 104.263613 L 125.167275 102.559114 L 126.388702 102.252775 L 127.610129 105.449693 L 128.831556 110.084045 L 130.052983 109.903384 L 131.27441 106.891055 L 132.495836 109.72665 L 133.717263 105.488967 L 134.93869 103.014694 L 136.160117 101.51442 L 137.381544 99.684244 L 138.602971 95.992471 L 139.824397 94.767117 L 141.041897 100.061276 L 142.263324 103.152154 L 143.484751 113.496971 L 144.706177 108.088917 L 145.927604 107.810071 L 147.149031 108.179248 L 148.370458 106.176265 L 149.591885 105.080516 L 150.813312 104.318597 L 152.034738 102.991129 L 153.256165 100.807485 L 154.477592 99.951308 L 155.699019 97.563438 L 156.920446 95.536891 L 158.141873 91.436667 L 159.363299 100.399034 L 160.584726 105.595007 L 161.806153 106.875345 L 163.023653 106.938184 L 164.245079 104.954838 L 165.466506 112.098811 L 166.687933 111.74927 L 167.90936 111.74927 L 169.130787 111.529335 L 170.352214 111.655012 L 171.57364 109.247506 L 172.795067 108.874401 L 174.016494 108.697667 L 175.237921 109.714868 L 176.459348 109.65203 L 177.680775 109.875892 L 182.566482 110.284344 L 183.787909 110.586755 L 185.009336 110.712432 L 186.226835 110.559263 L 187.448262 109.915166 L 188.669689 108.878328 L 189.891116 108.057498 L 191.112542 106.596499 L 192.333969 110.241142 L 193.555396 111.835674 L 194.776823 112.118448 L 195.99825 109.789489 L 197.219677 102.35096 L 198.441103 108.803707 L 203.326811 114.800874 L 204.548238 116.218672 L 205.769664 117.824985 L 206.991091 119.195654 L 208.208591 119.808331 L 209.430018 118.689017 L 210.651444 115.782728 L 211.872871 111.690359 L 213.094298 106.41191 L 214.315725 109.341764 L 215.537152 111.014843 L 216.758579 111.160158 L 217.980005 111.116956 L 219.201432 111.548972 L 220.422859 111.215142 L 221.644286 111.462569 L 222.865713 112.142012 L 224.08714 113.206342 L 225.308566 113.3006 L 226.529993 113.885786 L 230.190346 116.018373 L 231.411773 115.93197 L 233.854627 115.193616 L 237.518907 115.303583 L 239.961761 114.977608 L 242.404615 114.207834 L 243.626042 113.55981 L 244.847468 112.782181 L 246.068895 113.006044 L 247.290322 113.061028 L 248.511749 114.007535 L 249.733176 114.38064 L 250.954603 113.819019 L 252.172102 113.571592 " transform="matrix(0.99461, 0, 0, -0.99461, 0.464366, 178.064947)"/>
<path fill="none" stroke-width="1.2" stroke-linecap="square" stroke-linejoin="round" stroke="rgb(18.431091%, 37.254333%, 58.822632%)" stroke-opacity="1" stroke-miterlimit="10" d="M 54.336301 62.134205 L 55.557728 59.593166 L 56.779155 63.58735 L 58.000582 62.381633 L 59.222008 64.694882 L 60.443435 69.718049 L 61.664862 74.006788 L 62.886289 82.242583 L 64.107716 74.120684 L 65.329143 71.442185 L 67.771996 71.650338 L 68.993423 72.824636 L 70.21485 73.398039 L 71.436277 74.195304 L 72.657704 71.634628 L 73.875203 70.908056 L 75.09663 69.725903 L 76.318057 69.211412 L 77.539484 68.335598 L 78.76091 68.57517 L 81.203764 68.194211 L 82.425191 68.763686 L 83.646618 69.179992 L 84.868045 68.22563 L 86.089471 69.128936 L 87.310898 69.384218 L 88.532325 69.478476 L 89.753752 69.293887 L 90.975179 68.755831 L 92.196606 68.520186 L 94.639459 67.224138 L 97.078386 67.518695 L 98.299812 67.133808 L 99.521239 66.611461 L 100.742666 65.629607 L 103.18552 65.547131 L 104.406947 65.126897 L 105.628373 63.339923 L 106.8498 60.630004 L 108.071227 61.910343 L 109.292654 67.078824 L 112.956934 72.781434 L 114.178361 73.661176 L 115.399788 73.70045 L 116.621215 74.301345 L 117.842642 74.352401 L 119.060141 73.201668 L 120.281568 70.990532 L 121.502995 74.611611 L 122.724422 76.987698 L 123.945849 81.908752 L 127.610129 66.823542 L 128.831556 77.250835 L 130.052983 78.366222 L 131.27441 76.634231 L 132.495836 79.948971 L 133.717263 77.894932 L 134.93869 76.68136 L 136.160117 76.532118 L 138.602971 76.92486 L 139.824397 77.333311 L 141.041897 78.330875 L 142.263324 79.481608 L 143.484751 88.031596 L 144.706177 81.276438 L 145.927604 80.907261 L 147.149031 81.472809 L 148.370458 77.156577 L 149.591885 59.593166 L 150.813312 76.55961 L 152.034738 79.277383 L 153.256165 79.98039 L 155.699019 81.661325 L 156.920446 82.380042 L 159.363299 82.332913 L 160.584726 82.050139 L 161.806153 81.28822 L 163.023653 81.048648 L 164.245079 69.647355 L 165.466506 81.818422 L 166.687933 83.475792 L 167.90936 82.631397 L 169.130787 81.386406 L 170.352214 80.903334 L 171.57364 78.052028 L 172.795067 76.854166 L 174.016494 75.444223 L 175.237921 75.49528 L 176.459348 76.096175 L 177.680775 76.901295 L 180.123628 77.627867 L 181.345055 78.181633 L 183.787909 78.378004 L 185.009336 78.680415 L 186.226835 78.841439 L 187.448262 78.837512 L 189.891116 78.381931 L 191.112542 78.405496 L 192.333969 78.880714 L 193.555396 79.120286 L 194.776823 79.685834 L 195.99825 78.044174 L 197.219677 75.247852 L 198.441103 72.753942 L 199.66253 70.857 L 200.883957 72.632192 L 202.105384 74.030353 L 203.326811 75.660231 L 204.548238 77.918496 L 205.769664 77.007335 L 206.991091 79.709399 L 208.208591 76.575319 L 209.430018 82.164035 L 210.651444 84.441937 L 211.872871 85.412009 L 213.094298 85.718347 L 214.315725 85.070323 L 215.537152 85.266694 L 219.201432 84.492993 L 220.422859 84.229856 L 221.644286 84.229856 L 224.08714 85.345243 L 225.308566 85.993267 L 226.529993 86.880863 L 230.190346 89.033088 L 231.411773 89.146983 L 233.854627 88.597144 L 237.518907 88.569652 L 239.961761 88.34579 L 243.626042 87.968758 L 244.847468 86.896573 L 246.068895 86.876936 L 247.290322 85.45521 L 248.511749 85.003557 L 249.733176 84.885735 L 250.954603 84.905372 L 252.172102 85.074251 " transform="matrix(0.99461, 0, 0, -0.99461, 0.464366, 178.064947)"/>
<path fill="none" stroke-width="0.6" stroke-linecap="square" stroke-linejoin="miter" stroke="rgb(10.588074%, 12.156677%, 15.293884%)" stroke-opacity="1" stroke-miterlimit="10" d="M 44.447064 29.44631 L 44.447064 173.590386 " transform="matrix(0.99461, 0, 0, -0.99461, 0.464366, 178.064947)"/>
<path fill="none" stroke-width="0.6" stroke-linecap="square" stroke-linejoin="miter" stroke="rgb(10.588074%, 12.156677%, 15.293884%)" stroke-opacity="1" stroke-miterlimit="10" d="M 44.447064 29.44631 L 262.065267 29.44631 " transform="matrix(0.99461, 0, 0, -0.99461, 0.464366, 178.064947)"/>
<path fill="none" stroke-width="1.2" stroke-linecap="square" stroke-linejoin="round" stroke="rgb(64.312744%, 36.077881%, 14.509583%)" stroke-opacity="1" stroke-miterlimit="10" d="M 51.64602 161.191529 L 67.646319 161.191529 " transform="matrix(0.99461, 0, 0, -0.99461, 0.464366, 178.064947)"/>
<g fill="rgb(0%, 0%, 0%)" fill-opacity="1">
<use xlink:href="#glyph-0-6" x="74.111143" y="19.991916"/>
</g>
<g fill="rgb(0%, 0%, 0%)" fill-opacity="1">
<use xlink:href="#glyph-0-7" x="79.235717" y="19.991916"/>
</g>
<g fill="rgb(0%, 0%, 0%)" fill-opacity="1">
<use xlink:href="#glyph-0-8" x="84.32921" y="19.991916"/>
</g>
<g fill="rgb(0%, 0%, 0%)" fill-opacity="1">
<use xlink:href="#glyph-0-9" x="89.422703" y="19.991916"/>
</g>
<g fill="rgb(0%, 0%, 0%)" fill-opacity="1">
<use xlink:href="#glyph-0-10" x="94.166528" y="19.991916"/>
</g>
<g fill="rgb(0%, 0%, 0%)" fill-opacity="1">
<use xlink:href="#glyph-0-11" x="97.364044" y="19.991916"/>
</g>
<g fill="rgb(0%, 0%, 0%)" fill-opacity="1">
<use xlink:href="#glyph-0-12" x="99.908848" y="19.991916"/>
</g>
<g fill="rgb(0%, 0%, 0%)" fill-opacity="1">
<use xlink:href="#glyph-0-13" x="105.033423" y="19.991916"/>
</g>
<g fill="rgb(0%, 0%, 0%)" fill-opacity="1">
<use xlink:href="#glyph-0-14" x="110.126915" y="19.991916"/>
</g>
<g fill="rgb(0%, 0%, 0%)" fill-opacity="1">
<use xlink:href="#glyph-0-15" x="112.656178" y="19.991916"/>
</g>
<g fill="rgb(0%, 0%, 0%)" fill-opacity="1">
<use xlink:href="#glyph-6-0" x="115.76045" y="19.991916"/>
</g>
<g fill="rgb(0%, 0%, 0%)" fill-opacity="1">
<use xlink:href="#glyph-2-1" x="123.062609" y="16.705724"/>
</g>
<g fill="rgb(0%, 0%, 0%)" fill-opacity="1">
<use xlink:href="#glyph-6-0" x="129.563437" y="19.991916"/>
</g>
<g fill="rgb(0%, 0%, 0%)" fill-opacity="1">
<use xlink:href="#glyph-0-16" x="135.737014" y="19.991916"/>
</g>
<g fill="rgb(0%, 0%, 0%)" fill-opacity="1">
<use xlink:href="#glyph-2-0" x="138.913561" y="16.705724"/>
</g>
<g fill="rgb(0%, 0%, 0%)" fill-opacity="1">
<use xlink:href="#glyph-3-0" x="143.580459" y="16.705724"/>
</g>
<path fill="none" stroke-width="1.2" stroke-linecap="square" stroke-linejoin="round" stroke="rgb(18.431091%, 37.254333%, 58.822632%)" stroke-opacity="1" stroke-miterlimit="10" d="M 51.64602 149.110793 L 67.646319 149.110793 " transform="matrix(0.99461, 0, 0, -0.99461, 0.464366, 178.064947)"/>
<g fill="rgb(0%, 0%, 0%)" fill-opacity="1">
<use xlink:href="#glyph-0-6" x="74.111143" y="32.541785"/>
</g>
<g fill="rgb(0%, 0%, 0%)" fill-opacity="1">
<use xlink:href="#glyph-0-7" x="79.23926" y="32.541785"/>
</g>
<g fill="rgb(0%, 0%, 0%)" fill-opacity="1">
<use xlink:href="#glyph-0-8" x="84.33555" y="32.541785"/>
</g>
<g fill="rgb(0%, 0%, 0%)" fill-opacity="1">
<use xlink:href="#glyph-0-9" x="89.431841" y="32.541785"/>
</g>
<g fill="rgb(0%, 0%, 0%)" fill-opacity="1">
<use xlink:href="#glyph-0-10" x="94.170257" y="32.541785"/>
</g>
<g fill="rgb(0%, 0%, 0%)" fill-opacity="1">
<use xlink:href="#glyph-0-11" x="97.372809" y="32.541785"/>
</g>
<g fill="rgb(0%, 0%, 0%)" fill-opacity="1">
<use xlink:href="#glyph-0-12" x="99.922897" y="32.541785"/>
</g>
<g fill="rgb(0%, 0%, 0%)" fill-opacity="1">
<use xlink:href="#glyph-0-13" x="105.051015" y="32.541785"/>
</g>
<g fill="rgb(0%, 0%, 0%)" fill-opacity="1">
<use xlink:href="#glyph-0-14" x="110.147305" y="32.541785"/>
</g>
<g fill="rgb(0%, 0%, 0%)" fill-opacity="1">
<use xlink:href="#glyph-0-10" x="112.681479" y="32.541785"/>
</g>
<g fill="rgb(0%, 0%, 0%)" fill-opacity="1">
<use xlink:href="#glyph-0-17" x="115.884031" y="32.541785"/>
</g>
<g fill="rgb(0%, 0%, 0%)" fill-opacity="1">
<use xlink:href="#glyph-0-18" x="121.012148" y="32.541785"/>
<use xlink:href="#glyph-0-14" x="125.722623" y="32.541785"/>
</g>
<g fill="rgb(0%, 0%, 0%)" fill-opacity="1">
<use xlink:href="#glyph-0-10" x="128.256797" y="32.541785"/>
</g>
<g fill="rgb(0%, 0%, 0%)" fill-opacity="1">
<use xlink:href="#glyph-0-19" x="131.459349" y="32.541785"/>
</g>
<g fill="rgb(0%, 0%, 0%)" fill-opacity="1">
<use xlink:href="#glyph-0-11" x="135.266624" y="32.541785"/>
</g>
<g fill="rgb(0%, 0%, 0%)" fill-opacity="1">
<use xlink:href="#glyph-0-9" x="137.816711" y="32.541785"/>
</g>
<g fill="rgb(0%, 0%, 0%)" fill-opacity="1">
<use xlink:href="#glyph-0-12" x="142.555128" y="32.541785"/>
</g>
<g fill="rgb(0%, 0%, 0%)" fill-opacity="1">
<use xlink:href="#glyph-0-13" x="147.683246" y="32.541785"/>
</g>
<g fill="rgb(0%, 0%, 0%)" fill-opacity="1">
<use xlink:href="#glyph-0-20" x="152.779536" y="32.541785"/>
</g>
<g fill="rgb(0%, 0%, 0%)" fill-opacity="1">
<use xlink:href="#glyph-0-18" x="155.329624" y="32.541785"/>
</g>
</svg>
