<?xml version="1.0" encoding="UTF-8"?>
<svg xmlns="http://www.w3.org/2000/svg" xmlns:xlink="http://www.w3.org/1999/xlink" width="280.6775" height="175.186109" viewBox="0 0 280.6775 175.186109">
<defs>
<g>
<g id="glyph-0-0">
<path d="M 2.53125 -0.265625 C 2.925781 -0.265625 3.222656 -0.484375 3.421875 -0.921875 C 3.617188 -1.359375 3.71875 -2.019531 3.71875 -2.90625 C 3.71875 -3.78125 3.617188 -4.4375 3.421875 -4.875 C 3.222656 -5.3125 2.925781 -5.53125 2.53125 -5.53125 C 2.132812 -5.53125 1.835938 -5.3125 1.640625 -4.875 C 1.441406 -4.4375 1.34375 -3.78125 1.34375 -2.90625 C 1.34375 -2.019531 1.441406 -1.359375 1.640625 -0.921875 C 1.835938 -0.484375 2.132812 -0.265625 2.53125 -0.265625 Z M 2.53125 0.109375 C 1.90625 0.109375 1.414062 -0.148438 1.0625 -0.671875 C 0.707031 -1.203125 0.53125 -1.945312 0.53125 -2.90625 C 0.53125 -3.851562 0.707031 -4.59375 1.0625 -5.125 C 1.414062 -5.65625 1.90625 -5.921875 2.53125 -5.921875 C 3.164062 -5.921875 3.660156 -5.65625 4.015625 -5.125 C 4.367188 -4.59375 4.546875 -3.851562 4.546875 -2.90625 C 4.546875 -1.945312 4.367188 -1.203125 4.015625 -0.671875 C 3.660156 -0.148438 3.164062 0.109375 2.53125 0.109375 Z M 2.53125 0.109375 "/>
</g>
<g id="glyph-0-1">
<path d="M 0.75 -0.40625 C 0.75 -0.550781 0.796875 -0.671875 0.890625 -0.765625 C 0.992188 -0.867188 1.117188 -0.921875 1.265625 -0.921875 C 1.410156 -0.921875 1.53125 -0.867188 1.625 -0.765625 C 1.726562 -0.671875 1.78125 -0.550781 1.78125 -0.40625 C 1.78125 -0.257812 1.726562 -0.132812 1.625 -0.03125 C 1.53125 0.0625 1.410156 0.109375 1.265625 0.109375 C 1.117188 0.109375 0.992188 0.0625 0.890625 -0.03125 C 0.796875 -0.132812 0.75 -0.257812 0.75 -0.40625 Z M 0.75 -0.40625 "/>
</g>
<g id="glyph-0-2">
<path d="M 1.015625 -4.421875 L 0.578125 -4.421875 L 0.578125 -5.453125 C 0.859375 -5.609375 1.140625 -5.722656 1.421875 -5.796875 C 1.703125 -5.878906 1.976562 -5.921875 2.25 -5.921875 C 2.851562 -5.921875 3.328125 -5.769531 3.671875 -5.46875 C 4.023438 -5.175781 4.203125 -4.78125 4.203125 -4.28125 C 4.203125 -3.707031 3.804688 -3.023438 3.015625 -2.234375 C 2.953125 -2.179688 2.90625 -2.140625 2.875 -2.109375 L 1.40625 -0.640625 L 3.828125 -0.640625 L 3.828125 -1.359375 L 4.28125 -1.359375 L 4.28125 0 L 0.546875 0 L 0.546875 -0.421875 L 2.296875 -2.1875 C 2.691406 -2.570312 2.972656 -2.925781 3.140625 -3.25 C 3.304688 -3.582031 3.390625 -3.925781 3.390625 -4.28125 C 3.390625 -4.675781 3.285156 -4.984375 3.078125 -5.203125 C 2.878906 -5.421875 2.597656 -5.53125 2.234375 -5.53125 C 1.867188 -5.53125 1.582031 -5.4375 1.375 -5.25 C 1.175781 -5.070312 1.054688 -4.796875 1.015625 -4.421875 Z M 1.015625 -4.421875 "/>
</g>
<g id="glyph-0-3">
<path d="M 2.78125 -1.96875 L 2.78125 -5.0625 L 0.796875 -1.96875 Z M 4.5 0 L 1.84375 0 L 1.84375 -0.40625 L 2.78125 -0.40625 L 2.78125 -1.546875 L 0.25 -1.546875 L 0.25 -1.984375 L 2.796875 -5.921875 L 3.5625 -5.921875 L 3.5625 -1.96875 L 4.671875 -1.96875 L 4.671875 -1.546875 L 3.5625 -1.546875 L 3.5625 -0.40625 L 4.5 -0.40625 Z M 4.5 0 "/>
</g>
<g id="glyph-0-4">
<path d="M 2.609375 -0.265625 C 2.972656 -0.265625 3.253906 -0.398438 3.453125 -0.671875 C 3.648438 -0.941406 3.75 -1.328125 3.75 -1.828125 C 3.75 -2.335938 3.648438 -2.722656 3.453125 -2.984375 C 3.253906 -3.253906 2.972656 -3.390625 2.609375 -3.390625 C 2.234375 -3.390625 1.945312 -3.257812 1.75 -3 C 1.5625 -2.738281 1.46875 -2.363281 1.46875 -1.875 C 1.46875 -1.363281 1.566406 -0.96875 1.765625 -0.6875 C 1.960938 -0.40625 2.242188 -0.265625 2.609375 -0.265625 Z M 1.34375 -3.203125 C 1.519531 -3.390625 1.71875 -3.53125 1.9375 -3.625 C 2.15625 -3.726562 2.40625 -3.78125 2.6875 -3.78125 C 3.269531 -3.78125 3.726562 -3.601562 4.0625 -3.25 C 4.394531 -2.90625 4.5625 -2.429688 4.5625 -1.828125 C 4.5625 -1.242188 4.378906 -0.773438 4.015625 -0.421875 C 3.660156 -0.0664062 3.179688 0.109375 2.578125 0.109375 C 1.921875 0.109375 1.414062 -0.132812 1.0625 -0.625 C 0.707031 -1.113281 0.53125 -1.8125 0.53125 -2.71875 C 0.53125 -3.726562 0.738281 -4.515625 1.15625 -5.078125 C 1.570312 -5.640625 2.160156 -5.921875 2.921875 -5.921875 C 3.128906 -5.921875 3.34375 -5.898438 3.5625 -5.859375 C 3.789062 -5.816406 4.023438 -5.757812 4.265625 -5.6875 L 4.265625 -4.71875 L 3.828125 -4.71875 C 3.796875 -4.976562 3.691406 -5.175781 3.515625 -5.3125 C 3.347656 -5.457031 3.125 -5.53125 2.84375 -5.53125 C 2.34375 -5.53125 1.96875 -5.335938 1.71875 -4.953125 C 1.46875 -4.578125 1.34375 -3.992188 1.34375 -3.203125 Z M 1.34375 -3.203125 "/>
</g>
<g id="glyph-0-5">
<path d="M 3.71875 -1.59375 C 3.71875 -2 3.613281 -2.316406 3.40625 -2.546875 C 3.195312 -2.785156 2.90625 -2.90625 2.53125 -2.90625 C 2.15625 -2.90625 1.863281 -2.785156 1.65625 -2.546875 C 1.457031 -2.316406 1.359375 -2 1.359375 -1.59375 C 1.359375 -1.175781 1.457031 -0.847656 1.65625 -0.609375 C 1.863281 -0.378906 2.15625 -0.265625 2.53125 -0.265625 C 2.90625 -0.265625 3.195312 -0.378906 3.40625 -0.609375 C 3.613281 -0.847656 3.71875 -1.175781 3.71875 -1.59375 Z M 3.546875 -4.40625 C 3.546875 -4.757812 3.457031 -5.035156 3.28125 -5.234375 C 3.101562 -5.429688 2.851562 -5.53125 2.53125 -5.53125 C 2.207031 -5.53125 1.957031 -5.429688 1.78125 -5.234375 C 1.601562 -5.035156 1.515625 -4.757812 1.515625 -4.40625 C 1.515625 -4.050781 1.601562 -3.773438 1.78125 -3.578125 C 1.957031 -3.378906 2.207031 -3.28125 2.53125 -3.28125 C 2.851562 -3.28125 3.101562 -3.378906 3.28125 -3.578125 C 3.457031 -3.773438 3.546875 -4.050781 3.546875 -4.40625 Z M 3.125 -3.09375 C 3.570312 -3.03125 3.914062 -2.863281 4.15625 -2.59375 C 4.40625 -2.332031 4.53125 -2 4.53125 -1.59375 C 4.53125 -1.039062 4.359375 -0.617188 4.015625 -0.328125 C 3.671875 -0.0351562 3.175781 0.109375 2.53125 0.109375 C 1.894531 0.109375 1.398438 -0.0351562 1.046875 -0.328125 C 0.703125 -0.617188 0.53125 -1.039062 0.53125 -1.59375 C 0.53125 -2 0.648438 -2.332031 0.890625 -2.59375 C 1.140625 -2.863281 1.488281 -3.03125 1.9375 -3.09375 C 1.539062 -3.164062 1.238281 -3.3125 1.03125 -3.53125 C 0.820312 -3.757812 0.71875 -4.050781 0.71875 -4.40625 C 0.71875 -4.875 0.878906 -5.242188 1.203125 -5.515625 C 1.523438 -5.785156 1.96875 -5.921875 2.53125 -5.921875 C 3.09375 -5.921875 3.535156 -5.785156 3.859375 -5.515625 C 4.179688 -5.242188 4.34375 -4.875 4.34375 -4.40625 C 4.34375 -4.050781 4.238281 -3.757812 4.03125 -3.53125 C 3.820312 -3.3125 3.519531 -3.164062 3.125 -3.09375 Z M 3.125 -3.09375 "/>
</g>
<g id="glyph-0-6">
<path d="M 1.125 0 L 1.125 -0.40625 L 2.140625 -0.40625 L 2.140625 -5.25 L 0.96875 -4.484375 L 0.96875 -5 L 2.390625 -5.921875 L 2.921875 -5.921875 L 2.921875 -0.40625 L 3.9375 -0.40625 L 3.9375 0 Z M 1.125 0 "/>
</g>
<g id="glyph-0-7">
<path d="M 0.78125 -5.5625 C 1.082031 -5.675781 1.367188 -5.765625 1.640625 -5.828125 C 1.921875 -5.890625 2.1875 -5.921875 2.4375 -5.921875 C 3 -5.921875 3.4375 -5.796875 3.75 -5.546875 C 4.070312 -5.296875 4.234375 -4.957031 4.234375 -4.53125 C 4.234375 -4.175781 4.125 -3.878906 3.90625 -3.640625 C 3.6875 -3.410156 3.375 -3.253906 2.96875 -3.171875 C 3.445312 -3.097656 3.816406 -2.921875 4.078125 -2.640625 C 4.347656 -2.367188 4.484375 -2.007812 4.484375 -1.5625 C 4.484375 -1.019531 4.300781 -0.601562 3.9375 -0.3125 C 3.570312 -0.03125 3.046875 0.109375 2.359375 0.109375 C 2.054688 0.109375 1.757812 0.078125 1.46875 0.015625 C 1.175781 -0.046875 0.890625 -0.144531 0.609375 -0.28125 L 0.609375 -1.40625 L 1.046875 -1.40625 C 1.066406 -1.03125 1.191406 -0.742188 1.421875 -0.546875 C 1.648438 -0.359375 1.96875 -0.265625 2.375 -0.265625 C 2.769531 -0.265625 3.082031 -0.378906 3.3125 -0.609375 C 3.539062 -0.847656 3.65625 -1.164062 3.65625 -1.5625 C 3.65625 -2.019531 3.535156 -2.363281 3.296875 -2.59375 C 3.066406 -2.832031 2.722656 -2.953125 2.265625 -2.953125 L 1.890625 -2.953125 L 1.890625 -3.34375 L 2.09375 -3.34375 C 2.539062 -3.34375 2.878906 -3.4375 3.109375 -3.625 C 3.335938 -3.8125 3.453125 -4.097656 3.453125 -4.484375 C 3.453125 -4.816406 3.359375 -5.070312 3.171875 -5.25 C 2.984375 -5.4375 2.710938 -5.53125 2.359375 -5.53125 C 2.015625 -5.53125 1.742188 -5.445312 1.546875 -5.28125 C 1.359375 -5.113281 1.242188 -4.867188 1.203125 -4.546875 L 0.78125 -4.546875 Z M 0.78125 -5.5625 "/>
</g>
<g id="glyph-0-8">
<path d="M 4 -5.8125 L 4 -5.171875 L 1.34375 -5.171875 L 1.34375 -3.5 C 1.476562 -3.59375 1.632812 -3.660156 1.8125 -3.703125 C 2 -3.753906 2.203125 -3.78125 2.421875 -3.78125 C 3.046875 -3.78125 3.539062 -3.609375 3.90625 -3.265625 C 4.269531 -2.921875 4.453125 -2.445312 4.453125 -1.84375 C 4.453125 -1.226562 4.269531 -0.75 3.90625 -0.40625 C 3.539062 -0.0625 3.023438 0.109375 2.359375 0.109375 C 2.085938 0.109375 1.8125 0.078125 1.53125 0.015625 C 1.25 -0.046875 0.960938 -0.144531 0.671875 -0.28125 L 0.671875 -1.40625 L 1.109375 -1.40625 C 1.140625 -1.039062 1.257812 -0.757812 1.46875 -0.5625 C 1.675781 -0.363281 1.972656 -0.265625 2.359375 -0.265625 C 2.765625 -0.265625 3.078125 -0.398438 3.296875 -0.671875 C 3.523438 -0.941406 3.640625 -1.332031 3.640625 -1.84375 C 3.640625 -2.34375 3.53125 -2.726562 3.3125 -3 C 3.09375 -3.269531 2.773438 -3.40625 2.359375 -3.40625 C 2.117188 -3.40625 1.910156 -3.363281 1.734375 -3.28125 C 1.554688 -3.195312 1.398438 -3.066406 1.265625 -2.890625 L 0.9375 -2.890625 L 0.9375 -5.8125 Z M 4 -5.8125 "/>
</g>
<g id="glyph-1-0">
<path d="M 3.5625 -1.453125 L 3.5625 -2.4375 L 2.53125 -2.4375 C 2.125 -2.4375 1.820312 -2.347656 1.625 -2.171875 C 1.4375 -2.003906 1.34375 -1.742188 1.34375 -1.390625 C 1.34375 -1.066406 1.441406 -0.8125 1.640625 -0.625 C 1.835938 -0.4375 2.101562 -0.34375 2.4375 -0.34375 C 2.78125 -0.34375 3.050781 -0.445312 3.25 -0.65625 C 3.457031 -0.863281 3.5625 -1.128906 3.5625 -1.453125 Z M 4.375 -2.90625 L 4.375 -0.46875 L 5.078125 -0.46875 L 5.078125 0 L 3.5625 0 L 3.5625 -0.5 C 3.382812 -0.28125 3.175781 -0.117188 2.9375 -0.015625 C 2.707031 0.078125 2.4375 0.125 2.125 0.125 C 1.613281 0.125 1.207031 -0.0078125 0.90625 -0.28125 C 0.601562 -0.550781 0.453125 -0.921875 0.453125 -1.390625 C 0.453125 -1.867188 0.625 -2.238281 0.96875 -2.5 C 1.3125 -2.769531 1.800781 -2.90625 2.4375 -2.90625 L 3.5625 -2.90625 L 3.5625 -3.234375 C 3.5625 -3.585938 3.453125 -3.859375 3.234375 -4.046875 C 3.023438 -4.242188 2.726562 -4.34375 2.34375 -4.34375 C 2.019531 -4.34375 1.765625 -4.269531 1.578125 -4.125 C 1.390625 -3.976562 1.269531 -3.757812 1.21875 -3.46875 L 0.796875 -3.46875 L 0.796875 -4.421875 C 1.078125 -4.535156 1.347656 -4.625 1.609375 -4.6875 C 1.878906 -4.75 2.140625 -4.78125 2.390625 -4.78125 C 3.035156 -4.78125 3.523438 -4.617188 3.859375 -4.296875 C 4.203125 -3.972656 4.375 -3.507812 4.375 -2.90625 Z M 4.375 -2.90625 "/>
</g>
<g id="glyph-1-1">
<path d="M 0.875 -6.09375 C 0.875 -6.226562 0.921875 -6.34375 1.015625 -6.4375 C 1.109375 -6.539062 1.226562 -6.59375 1.375 -6.59375 C 1.5 -6.59375 1.609375 -6.539062 1.703125 -6.4375 C 1.804688 -6.34375 1.859375 -6.226562 1.859375 -6.09375 C 1.859375 -5.957031 1.8125 -5.835938 1.71875 -5.734375 C 1.625 -5.640625 1.507812 -5.59375 1.375 -5.59375 C 1.226562 -5.59375 1.109375 -5.640625 1.015625 -5.734375 C 0.921875 -5.835938 0.875 -5.957031 0.875 -6.09375 Z M 1.890625 -0.46875 L 2.65625 -0.46875 L 2.65625 0 L 0.328125 0 L 0.328125 -0.46875 L 1.09375 -0.46875 L 1.09375 -4.171875 L 0.328125 -4.171875 L 0.328125 -4.640625 L 1.890625 -4.640625 Z M 1.890625 -0.46875 "/>
</g>
<g id="glyph-1-2">
<path d="M 4.28125 -4.65625 L 4.28125 -3.5 L 3.8125 -3.5 C 3.800781 -3.726562 3.738281 -3.894531 3.625 -4 C 3.507812 -4.113281 3.34375 -4.171875 3.125 -4.171875 C 2.726562 -4.171875 2.421875 -4.035156 2.203125 -3.765625 C 1.992188 -3.492188 1.890625 -3.101562 1.890625 -2.59375 L 1.890625 -0.46875 L 2.828125 -0.46875 L 2.828125 0 L 0.375 0 L 0.375 -0.46875 L 1.09375 -0.46875 L 1.09375 -4.1875 L 0.328125 -4.1875 L 0.328125 -4.640625 L 1.890625 -4.640625 L 1.890625 -3.828125 C 2.054688 -4.148438 2.257812 -4.390625 2.5 -4.546875 C 2.75 -4.703125 3.050781 -4.78125 3.40625 -4.78125 C 3.539062 -4.78125 3.679688 -4.769531 3.828125 -4.75 C 3.972656 -4.726562 4.125 -4.695312 4.28125 -4.65625 Z M 4.28125 -4.65625 "/>
</g>
<g id="glyph-1-3">
<path d="M 0.390625 -2.734375 L 2.625 -2.734375 L 2.625 -2.0625 L 0.390625 -2.0625 Z M 0.390625 -2.734375 "/>
</g>
<g id="glyph-1-4">
<path d="M 3.84375 -5.703125 L 3.421875 -5.703125 C 3.421875 -5.921875 3.359375 -6.085938 3.234375 -6.203125 C 3.117188 -6.316406 2.945312 -6.375 2.71875 -6.375 C 2.414062 -6.375 2.203125 -6.289062 2.078125 -6.125 C 1.953125 -5.957031 1.890625 -5.664062 1.890625 -5.25 L 1.890625 -4.640625 L 3.203125 -4.640625 L 3.203125 -4.171875 L 1.890625 -4.171875 L 1.890625 -0.46875 L 2.921875 -0.46875 L 2.921875 0 L 0.328125 0 L 0.328125 -0.46875 L 1.09375 -0.46875 L 1.09375 -4.171875 L 0.328125 -4.171875 L 0.328125 -4.640625 L 1.09375 -4.640625 L 1.09375 -5.234375 C 1.09375 -5.742188 1.226562 -6.128906 1.5 -6.390625 C 1.769531 -6.660156 2.164062 -6.796875 2.6875 -6.796875 C 2.882812 -6.796875 3.078125 -6.78125 3.265625 -6.75 C 3.460938 -6.71875 3.65625 -6.664062 3.84375 -6.59375 Z M 3.84375 -5.703125 "/>
</g>
<g id="glyph-1-5">
<path d="M 1.84375 -0.46875 L 2.59375 -0.46875 L 2.59375 0 L 0.265625 0 L 0.265625 -0.46875 L 1.03125 -0.46875 L 1.03125 -6.34375 L 0.265625 -6.34375 L 0.265625 -6.796875 L 1.84375 -6.796875 Z M 1.84375 -0.46875 "/>
</g>
<g id="glyph-1-6">
<path d="M 2.6875 -0.3125 C 3.125 -0.3125 3.453125 -0.476562 3.671875 -0.8125 C 3.890625 -1.15625 4 -1.660156 4 -2.328125 C 4 -2.992188 3.890625 -3.492188 3.671875 -3.828125 C 3.453125 -4.171875 3.125 -4.34375 2.6875 -4.34375 C 2.257812 -4.34375 1.9375 -4.171875 1.71875 -3.828125 C 1.5 -3.492188 1.390625 -2.992188 1.390625 -2.328125 C 1.390625 -1.660156 1.5 -1.15625 1.71875 -0.8125 C 1.9375 -0.476562 2.257812 -0.3125 2.6875 -0.3125 Z M 2.6875 0.125 C 2.007812 0.125 1.46875 -0.0976562 1.0625 -0.546875 C 0.65625 -0.992188 0.453125 -1.585938 0.453125 -2.328125 C 0.453125 -3.066406 0.65625 -3.660156 1.0625 -4.109375 C 1.46875 -4.554688 2.007812 -4.78125 2.6875 -4.78125 C 3.375 -4.78125 3.921875 -4.554688 4.328125 -4.109375 C 4.734375 -3.660156 4.9375 -3.066406 4.9375 -2.328125 C 4.9375 -1.585938 4.734375 -0.992188 4.328125 -0.546875 C 3.921875 -0.0976562 3.375 0.125 2.6875 0.125 Z M 2.6875 0.125 "/>
</g>
<g id="glyph-1-7">
<path d="M 4.296875 -4.640625 L 5.484375 -1.015625 L 6.53125 -4.171875 L 5.859375 -4.171875 L 5.859375 -4.640625 L 7.546875 -4.640625 L 7.546875 -4.171875 L 7.03125 -4.171875 L 5.640625 0 L 4.984375 0 L 3.828125 -3.46875 L 2.6875 0 L 2.046875 0 L 0.671875 -4.171875 L 0.140625 -4.171875 L 0.140625 -4.640625 L 2.25 -4.640625 L 2.25 -4.171875 L 1.5 -4.171875 L 2.53125 -1.015625 L 3.734375 -4.640625 Z M 4.296875 -4.640625 "/>
</g>
<g id="glyph-1-8">
</g>
<g id="glyph-1-9">
<path d="M 4.609375 -1.390625 C 4.492188 -0.898438 4.273438 -0.523438 3.953125 -0.265625 C 3.628906 -0.00390625 3.207031 0.125 2.6875 0.125 C 2.007812 0.125 1.46875 -0.0976562 1.0625 -0.546875 C 0.65625 -0.992188 0.453125 -1.585938 0.453125 -2.328125 C 0.453125 -3.066406 0.65625 -3.660156 1.0625 -4.109375 C 1.46875 -4.554688 2.007812 -4.78125 2.6875 -4.78125 C 2.988281 -4.78125 3.285156 -4.742188 3.578125 -4.671875 C 3.867188 -4.597656 4.160156 -4.492188 4.453125 -4.359375 L 4.453125 -3.171875 L 3.984375 -3.171875 C 3.921875 -3.578125 3.785156 -3.875 3.578125 -4.0625 C 3.378906 -4.25 3.085938 -4.34375 2.703125 -4.34375 C 2.265625 -4.34375 1.9375 -4.171875 1.71875 -3.828125 C 1.5 -3.492188 1.390625 -2.992188 1.390625 -2.328125 C 1.390625 -1.648438 1.5 -1.144531 1.71875 -0.8125 C 1.9375 -0.476562 2.265625 -0.3125 2.703125 -0.3125 C 3.046875 -0.3125 3.320312 -0.398438 3.53125 -0.578125 C 3.738281 -0.753906 3.878906 -1.023438 3.953125 -1.390625 Z M 4.609375 -1.390625 "/>
</g>
<g id="glyph-1-10">
<path d="M 4.859375 -2.234375 L 1.390625 -2.234375 L 1.390625 -2.203125 C 1.390625 -1.578125 1.503906 -1.101562 1.734375 -0.78125 C 1.972656 -0.46875 2.320312 -0.3125 2.78125 -0.3125 C 3.132812 -0.3125 3.421875 -0.398438 3.640625 -0.578125 C 3.867188 -0.765625 4.03125 -1.039062 4.125 -1.40625 L 4.78125 -1.40625 C 4.644531 -0.894531 4.40625 -0.507812 4.0625 -0.25 C 3.71875 0 3.265625 0.125 2.703125 0.125 C 2.023438 0.125 1.476562 -0.0976562 1.0625 -0.546875 C 0.65625 -0.992188 0.453125 -1.585938 0.453125 -2.328125 C 0.453125 -3.054688 0.648438 -3.644531 1.046875 -4.09375 C 1.453125 -4.550781 1.988281 -4.78125 2.65625 -4.78125 C 3.351562 -4.78125 3.890625 -4.5625 4.265625 -4.125 C 4.640625 -3.6875 4.835938 -3.054688 4.859375 -2.234375 Z M 3.90625 -2.703125 C 3.882812 -3.242188 3.769531 -3.648438 3.5625 -3.921875 C 3.351562 -4.203125 3.050781 -4.34375 2.65625 -4.34375 C 2.28125 -4.34375 1.984375 -4.203125 1.765625 -3.921875 C 1.554688 -3.648438 1.429688 -3.242188 1.390625 -2.703125 Z M 3.90625 -2.703125 "/>
</g>
<g id="glyph-1-11">
<path d="M 0.375 0 L 0.375 -0.46875 L 1.09375 -0.46875 L 1.09375 -4.171875 L 0.328125 -4.171875 L 0.328125 -4.640625 L 1.890625 -4.640625 L 1.890625 -3.828125 C 2.046875 -4.140625 2.238281 -4.375 2.46875 -4.53125 C 2.707031 -4.695312 2.988281 -4.78125 3.3125 -4.78125 C 3.820312 -4.78125 4.195312 -4.628906 4.4375 -4.328125 C 4.675781 -4.035156 4.796875 -3.578125 4.796875 -2.953125 L 4.796875 -0.46875 L 5.515625 -0.46875 L 5.515625 0 L 3.296875 0 L 3.296875 -0.46875 L 3.984375 -0.46875 L 3.984375 -2.703125 C 3.984375 -3.265625 3.914062 -3.648438 3.78125 -3.859375 C 3.644531 -4.078125 3.398438 -4.1875 3.046875 -4.1875 C 2.671875 -4.1875 2.382812 -4.050781 2.1875 -3.78125 C 1.988281 -3.507812 1.890625 -3.113281 1.890625 -2.59375 L 1.890625 -0.46875 L 2.59375 -0.46875 L 2.59375 0 Z M 0.375 0 "/>
</g>
<g id="glyph-1-12">
<path d="M 0.96875 -4.171875 L 0.265625 -4.171875 L 0.265625 -4.640625 L 0.96875 -4.640625 L 0.96875 -6.09375 L 1.78125 -6.09375 L 1.78125 -4.640625 L 3.28125 -4.640625 L 3.28125 -4.171875 L 1.78125 -4.171875 L 1.78125 -1.234375 C 1.78125 -0.835938 1.816406 -0.582031 1.890625 -0.46875 C 1.960938 -0.363281 2.101562 -0.3125 2.3125 -0.3125 C 2.519531 -0.3125 2.671875 -0.367188 2.765625 -0.484375 C 2.859375 -0.609375 2.910156 -0.8125 2.921875 -1.09375 L 3.53125 -1.09375 C 3.507812 -0.664062 3.394531 -0.351562 3.1875 -0.15625 C 2.976562 0.03125 2.660156 0.125 2.234375 0.125 C 1.773438 0.125 1.445312 0.0234375 1.25 -0.171875 C 1.0625 -0.378906 0.96875 -0.734375 0.96875 -1.234375 Z M 0.96875 -4.171875 "/>
</g>
<g id="glyph-2-0">
<path d="M 1 -0.5625 C 1.195312 -0.394531 1.507812 -0.3125 1.9375 -0.3125 C 2.382812 -0.3125 2.757812 -0.4375 3.0625 -0.6875 C 3.375 -0.945312 3.570312 -1.300781 3.65625 -1.75 C 3.78125 -2.363281 3.734375 -2.800781 3.515625 -3.0625 C 3.296875 -3.332031 2.929688 -3.46875 2.421875 -3.46875 L 2.015625 -3.46875 L 2.109375 -3.9375 L 2.328125 -3.9375 C 2.691406 -3.9375 3.023438 -4.039062 3.328125 -4.25 C 3.566406 -4.425781 3.734375 -4.75 3.828125 -5.21875 C 3.859375 -5.414062 3.832031 -5.628906 3.75 -5.859375 C 3.59375 -6.242188 3.378906 -6.429688 3.109375 -6.421875 C 2.453125 -6.398438 2.007812 -5.804688 1.78125 -4.640625 Z M -0.28125 1.859375 L 0.984375 -4.640625 C 1.222656 -5.859375 1.679688 -6.550781 2.359375 -6.71875 C 2.734375 -6.800781 3.039062 -6.84375 3.28125 -6.84375 C 3.820312 -6.84375 4.222656 -6.628906 4.484375 -6.203125 C 4.703125 -5.867188 4.78125 -5.554688 4.71875 -5.265625 C 4.632812 -4.847656 4.46875 -4.519531 4.21875 -4.28125 C 3.96875 -4.03125 3.65625 -3.847656 3.28125 -3.734375 C 3.789062 -3.660156 4.164062 -3.460938 4.40625 -3.140625 C 4.644531 -2.828125 4.703125 -2.363281 4.578125 -1.75 C 4.460938 -1.144531 4.164062 -0.679688 3.6875 -0.359375 C 3.21875 -0.0351562 2.597656 0.125 1.828125 0.125 C 1.359375 0.125 1.039062 0.09375 0.875 0.03125 L 0.515625 1.859375 Z M -0.28125 1.859375 "/>
</g>
<g id="glyph-3-0">
<path d="M 0.890625 0 L 0.890625 -0.328125 L 1.6875 -0.328125 L 1.6875 -4.125 L 0.765625 -3.53125 L 0.765625 -3.921875 L 1.875 -4.65625 L 2.296875 -4.65625 L 2.296875 -0.328125 L 3.09375 -0.328125 L 3.09375 0 Z M 0.890625 0 "/>
</g>
<g id="glyph-4-0">
<path d="M 0.84375 -2.8125 L 5.828125 -2.8125 L 5.828125 -2.1875 L 0.84375 -2.1875 Z M 0.84375 -2.8125 "/>
</g>
<g id="glyph-5-0">
<path d="M -3.484375 -0.6875 L -3.71875 -0.8125 C -3.5625 -1.03125 -3.484375 -1.3125 -3.484375 -1.65625 C -4.234375 -2.164062 -4.863281 -2.6875 -5.375 -3.21875 C -5.894531 -3.75 -6.15625 -4.191406 -6.15625 -4.546875 C -6.15625 -4.921875 -5.953125 -5.109375 -5.546875 -5.109375 C -5.066406 -5.109375 -4.585938 -4.820312 -4.109375 -4.25 C -3.628906 -3.675781 -3.332031 -3.003906 -3.21875 -2.234375 C -1.84375 -1.378906 -0.957031 -0.953125 -0.5625 -0.953125 C -0.300781 -0.953125 -0.171875 -1.054688 -0.171875 -1.265625 C -0.171875 -1.460938 -0.28125 -1.691406 -0.5 -1.953125 C -0.726562 -2.210938 -1.117188 -2.578125 -1.671875 -3.046875 L -1.515625 -3.234375 C -0.921875 -2.734375 -0.503906 -2.335938 -0.265625 -2.046875 C -0.0234375 -1.753906 0.09375 -1.472656 0.09375 -1.203125 C 0.09375 -0.984375 0.03125 -0.800781 -0.09375 -0.65625 C -0.226562 -0.507812 -0.425781 -0.4375 -0.6875 -0.4375 C -1.1875 -0.4375 -1.832031 -0.664062 -2.625 -1.125 C -2.757812 -1.195312 -2.957031 -1.316406 -3.21875 -1.484375 C -3.226562 -1.179688 -3.316406 -0.914062 -3.484375 -0.6875 Z M -3.546875 -2.40625 L -3.53125 -2.40625 C -3.6875 -3.101562 -3.957031 -3.679688 -4.34375 -4.140625 C -4.738281 -4.609375 -5.15625 -4.84375 -5.59375 -4.84375 C -5.769531 -4.84375 -5.859375 -4.738281 -5.859375 -4.53125 C -5.859375 -4.3125 -5.71875 -4.066406 -5.4375 -3.796875 C -5.09375 -3.453125 -4.460938 -2.988281 -3.546875 -2.40625 Z M -3.546875 -2.40625 "/>
</g>
<g id="glyph-6-0">
<path d="M -1.78125 -1.4375 L -1.46875 -1.375 C -1.300781 -1.34375 -1.15625 -1.328125 -1.03125 -1.328125 C -0.84375 -1.328125 -0.6875 -1.359375 -0.5625 -1.421875 C -0.363281 -1.535156 -0.265625 -1.734375 -0.265625 -2.015625 C -0.265625 -2.304688 -0.378906 -2.546875 -0.609375 -2.734375 C -0.835938 -2.929688 -1.175781 -3.070312 -1.625 -3.15625 C -1.832031 -3.195312 -2.015625 -3.21875 -2.171875 -3.21875 C -2.359375 -3.21875 -2.515625 -3.191406 -2.640625 -3.140625 C -2.867188 -3.035156 -2.984375 -2.835938 -2.984375 -2.546875 C -2.984375 -2.253906 -2.878906 -2.015625 -2.671875 -1.828125 C -2.472656 -1.640625 -2.175781 -1.507812 -1.78125 -1.4375 Z M -2.921875 -1.09375 L -2.921875 -0.546875 L -3.25 -0.609375 L -3.25 -1.71875 L -2.75 -1.625 C -2.945312 -1.769531 -3.09375 -1.9375 -3.1875 -2.125 C -3.289062 -2.3125 -3.34375 -2.535156 -3.34375 -2.796875 C -3.34375 -3.191406 -3.179688 -3.484375 -2.859375 -3.671875 C -2.648438 -3.796875 -2.398438 -3.859375 -2.109375 -3.859375 C -1.960938 -3.859375 -1.800781 -3.84375 -1.625 -3.8125 C -1.113281 -3.71875 -0.695312 -3.507812 -0.375 -3.1875 C -0.0625 -2.875 0.09375 -2.519531 0.09375 -2.125 C 0.09375 -1.875 0.046875 -1.671875 -0.046875 -1.515625 C -0.148438 -1.367188 -0.304688 -1.257812 -0.515625 -1.1875 L 1.296875 -0.828125 L 1.296875 -0.265625 Z M -2.921875 -1.09375 "/>
</g>
<g id="glyph-7-0">
<path d="M 1.390625 -2.859375 C 1.078125 -2.148438 0.578125 -1.613281 -0.109375 -1.25 C -0.804688 -0.882812 -1.671875 -0.703125 -2.703125 -0.703125 C -3.742188 -0.703125 -4.609375 -0.882812 -5.296875 -1.25 C -5.984375 -1.613281 -6.484375 -2.148438 -6.796875 -2.859375 L -6.375 -2.859375 C -6.0625 -2.410156 -5.625 -2.085938 -5.0625 -1.890625 C -4.507812 -1.691406 -3.722656 -1.59375 -2.703125 -1.59375 C -1.691406 -1.59375 -0.90625 -1.691406 -0.34375 -1.890625 C 0.21875 -2.085938 0.65625 -2.410156 0.96875 -2.859375 Z M 1.390625 -2.859375 "/>
</g>
<g id="glyph-7-1">
<path d="M 1.390625 -0.640625 L 0.96875 -0.640625 C 0.65625 -1.085938 0.21875 -1.40625 -0.34375 -1.59375 C -0.90625 -1.789062 -1.691406 -1.890625 -2.703125 -1.890625 C -3.722656 -1.890625 -4.507812 -1.789062 -5.0625 -1.59375 C -5.625 -1.40625 -6.0625 -1.085938 -6.375 -0.640625 L -6.796875 -0.640625 C -6.484375 -1.347656 -5.984375 -1.878906 -5.296875 -2.234375 C -4.609375 -2.597656 -3.742188 -2.78125 -2.703125 -2.78125 C -1.671875 -2.78125 -0.804688 -2.597656 -0.109375 -2.234375 C 0.578125 -1.878906 1.078125 -1.347656 1.390625 -0.640625 Z M 1.390625 -0.640625 "/>
</g>
<g id="glyph-8-0">
<path d="M -0.5625 -1 C -0.394531 -1.195312 -0.3125 -1.507812 -0.3125 -1.9375 C -0.3125 -2.382812 -0.4375 -2.757812 -0.6875 -3.0625 C -0.945312 -3.375 -1.300781 -3.570312 -1.75 -3.65625 C -2.363281 -3.78125 -2.800781 -3.734375 -3.0625 -3.515625 C -3.332031 -3.296875 -3.46875 -2.929688 -3.46875 -2.421875 L -3.46875 -2.015625 L -3.9375 -2.109375 L -3.9375 -2.328125 C -3.9375 -2.691406 -4.039062 -3.023438 -4.25 -3.328125 C -4.425781 -3.566406 -4.75 -3.734375 -5.21875 -3.828125 C -5.414062 -3.859375 -5.628906 -3.832031 -5.859375 -3.75 C -6.242188 -3.59375 -6.429688 -3.378906 -6.421875 -3.109375 C -6.398438 -2.453125 -5.804688 -2.007812 -4.640625 -1.78125 Z M 1.859375 0.28125 L -4.640625 -0.984375 C -5.859375 -1.222656 -6.550781 -1.679688 -6.71875 -2.359375 C -6.800781 -2.734375 -6.84375 -3.039062 -6.84375 -3.28125 C -6.84375 -3.820312 -6.628906 -4.222656 -6.203125 -4.484375 C -5.867188 -4.703125 -5.554688 -4.78125 -5.265625 -4.71875 C -4.847656 -4.632812 -4.519531 -4.46875 -4.28125 -4.21875 C -4.03125 -3.96875 -3.847656 -3.65625 -3.734375 -3.28125 C -3.660156 -3.789062 -3.460938 -4.164062 -3.140625 -4.40625 C -2.828125 -4.644531 -2.363281 -4.703125 -1.75 -4.578125 C -1.144531 -4.460938 -0.679688 -4.164062 -0.359375 -3.6875 C -0.0351562 -3.21875 0.125 -2.597656 0.125 -1.828125 C 0.125 -1.359375 0.09375 -1.039062 0.03125 -0.875 L 1.859375 -0.515625 Z M 1.859375 0.28125 "/>
</g>
<g id="glyph-9-0">
<path d="M 0 -0.890625 L -0.328125 -0.890625 L -0.328125 -1.6875 L -4.125 -1.6875 L -3.53125 -0.765625 L -3.921875 -0.765625 L -4.65625 -1.875 L -4.65625 -2.296875 L -0.328125 -2.296875 L -0.328125 -3.09375 L 0 -3.09375 Z M 0 -0.890625 "/>
</g>
<g id="glyph-10-0">
<path d="M -3.15625 -0.953125 L -3.15625 -6.546875 L -2.453125 -6.546875 L -2.453125 -0.953125 Z M -3.15625 -0.953125 "/>
</g>
<g id="glyph-10-1">
<path d="M -7.15625 2.609375 L -7.15625 1.875 L -5.515625 0.84375 L -5.515625 1.359375 L -6.65625 2.25 L -5.515625 3.140625 L -5.515625 3.640625 Z M -7.15625 2.609375 "/>
</g>
<g id="glyph-11-0">
<path d="M -3.640625 -2.15625 L -3.640625 -3.9375 C -4.617188 -4.113281 -5.304688 -4.179688 -5.703125 -4.140625 C -6.160156 -4.078125 -6.390625 -3.882812 -6.390625 -3.5625 C -6.390625 -3.25 -6.160156 -2.976562 -5.703125 -2.75 C -5.304688 -2.550781 -4.617188 -2.351562 -3.640625 -2.15625 Z M -3.109375 -3.828125 L -3.109375 -2.046875 C -2.097656 -1.859375 -1.398438 -1.789062 -1.015625 -1.84375 C -0.585938 -1.882812 -0.375 -2.066406 -0.375 -2.390625 C -0.375 -2.722656 -0.585938 -3 -1.015625 -3.21875 C -1.398438 -3.414062 -2.097656 -3.617188 -3.109375 -3.828125 Z M -0.78125 -4.40625 C -0.15625 -3.820312 0.15625 -3.117188 0.15625 -2.296875 C 0.15625 -1.484375 -0.15625 -0.90625 -0.78125 -0.5625 C -1.414062 -0.21875 -2.28125 -0.15625 -3.375 -0.375 C -4.476562 -0.582031 -5.34375 -0.976562 -5.96875 -1.5625 C -6.59375 -2.15625 -6.90625 -2.859375 -6.90625 -3.671875 C -6.90625 -4.492188 -6.59375 -5.078125 -5.96875 -5.421875 C -5.34375 -5.765625 -4.476562 -5.828125 -3.375 -5.609375 C -2.28125 -5.398438 -1.414062 -5 -0.78125 -4.40625 Z M -0.78125 -4.40625 "/>
</g>
<g id="glyph-12-0">
<path d="M 3.578125 -1.078125 C 3.492188 -0.691406 3.320312 -0.398438 3.0625 -0.203125 C 2.8125 -0.00390625 2.488281 0.09375 2.09375 0.09375 C 1.570312 0.09375 1.148438 -0.078125 0.828125 -0.421875 C 0.503906 -0.773438 0.34375 -1.238281 0.34375 -1.8125 C 0.34375 -2.382812 0.503906 -2.84375 0.828125 -3.1875 C 1.148438 -3.539062 1.570312 -3.71875 2.09375 -3.71875 C 2.320312 -3.71875 2.550781 -3.691406 2.78125 -3.640625 C 3.007812 -3.585938 3.238281 -3.503906 3.46875 -3.390625 L 3.46875 -2.46875 L 3.09375 -2.46875 C 3.050781 -2.78125 2.945312 -3.007812 2.78125 -3.15625 C 2.625 -3.300781 2.398438 -3.375 2.109375 -3.375 C 1.765625 -3.375 1.503906 -3.242188 1.328125 -2.984375 C 1.160156 -2.722656 1.078125 -2.332031 1.078125 -1.8125 C 1.078125 -1.289062 1.160156 -0.894531 1.328125 -0.625 C 1.503906 -0.363281 1.765625 -0.234375 2.109375 -0.234375 C 2.367188 -0.234375 2.578125 -0.300781 2.734375 -0.4375 C 2.898438 -0.582031 3.015625 -0.796875 3.078125 -1.078125 Z M 3.578125 -1.078125 "/>
</g>
<g id="glyph-12-1">
<path d="M 2.46875 -3.609375 L 3.640625 -3.609375 L 3.640625 -0.359375 L 4.234375 -0.359375 L 4.234375 0 L 3.015625 0 L 3.015625 -0.640625 C 2.898438 -0.398438 2.75 -0.21875 2.5625 -0.09375 C 2.375 0.03125 2.160156 0.09375 1.921875 0.09375 C 1.515625 0.09375 1.21875 -0.015625 1.03125 -0.234375 C 0.84375 -0.460938 0.75 -0.820312 0.75 -1.3125 L 0.75 -3.25 L 0.1875 -3.25 L 0.1875 -3.609375 L 1.375 -3.609375 L 1.375 -1.515625 C 1.375 -1.066406 1.425781 -0.757812 1.53125 -0.59375 C 1.644531 -0.4375 1.84375 -0.359375 2.125 -0.359375 C 2.414062 -0.359375 2.632812 -0.460938 2.78125 -0.671875 C 2.9375 -0.890625 3.015625 -1.203125 3.015625 -1.609375 L 3.015625 -3.25 L 2.46875 -3.25 Z M 2.46875 -3.609375 "/>
</g>
<g id="glyph-12-2">
<path d="M 0.75 -3.25 L 0.203125 -3.25 L 0.203125 -3.609375 L 0.75 -3.609375 L 0.75 -4.734375 L 1.375 -4.734375 L 1.375 -3.609375 L 2.5625 -3.609375 L 2.5625 -3.25 L 1.375 -3.25 L 1.375 -0.953125 C 1.375 -0.648438 1.40625 -0.453125 1.46875 -0.359375 C 1.53125 -0.273438 1.640625 -0.234375 1.796875 -0.234375 C 1.960938 -0.234375 2.082031 -0.28125 2.15625 -0.375 C 2.226562 -0.476562 2.265625 -0.632812 2.265625 -0.84375 L 2.75 -0.84375 C 2.726562 -0.519531 2.632812 -0.28125 2.46875 -0.125 C 2.3125 0.0195312 2.070312 0.09375 1.75 0.09375 C 1.382812 0.09375 1.125 0.015625 0.96875 -0.140625 C 0.820312 -0.296875 0.75 -0.566406 0.75 -0.953125 Z M 0.75 -3.25 "/>
</g>
<g id="glyph-12-3">
<path d="M 2.09375 -0.234375 C 2.425781 -0.234375 2.675781 -0.363281 2.84375 -0.625 C 3.019531 -0.894531 3.109375 -1.289062 3.109375 -1.8125 C 3.109375 -2.332031 3.019531 -2.722656 2.84375 -2.984375 C 2.675781 -3.242188 2.425781 -3.375 2.09375 -3.375 C 1.757812 -3.375 1.503906 -3.242188 1.328125 -2.984375 C 1.160156 -2.722656 1.078125 -2.332031 1.078125 -1.8125 C 1.078125 -1.289062 1.160156 -0.894531 1.328125 -0.625 C 1.503906 -0.363281 1.757812 -0.234375 2.09375 -0.234375 Z M 2.09375 0.09375 C 1.570312 0.09375 1.148438 -0.078125 0.828125 -0.421875 C 0.503906 -0.773438 0.34375 -1.238281 0.34375 -1.8125 C 0.34375 -2.382812 0.5 -2.84375 0.8125 -3.1875 C 1.132812 -3.539062 1.5625 -3.71875 2.09375 -3.71875 C 2.625 -3.71875 3.046875 -3.539062 3.359375 -3.1875 C 3.679688 -2.84375 3.84375 -2.382812 3.84375 -1.8125 C 3.84375 -1.238281 3.679688 -0.773438 3.359375 -0.421875 C 3.046875 -0.078125 2.625 0.09375 2.09375 0.09375 Z M 2.09375 0.09375 "/>
</g>
<g id="glyph-12-4">
<path d="M 3 -4.4375 L 2.671875 -4.4375 C 2.671875 -4.613281 2.617188 -4.742188 2.515625 -4.828125 C 2.421875 -4.921875 2.285156 -4.96875 2.109375 -4.96875 C 1.878906 -4.96875 1.71875 -4.898438 1.625 -4.765625 C 1.53125 -4.640625 1.484375 -4.410156 1.484375 -4.078125 L 1.484375 -3.609375 L 2.484375 -3.609375 L 2.484375 -3.25 L 1.484375 -3.25 L 1.484375 -0.359375 L 2.28125 -0.359375 L 2.28125 0 L 0.25 0 L 0.25 -0.359375 L 0.84375 -0.359375 L 0.84375 -3.25 L 0.25 -3.25 L 0.25 -3.609375 L 0.84375 -3.609375 L 0.84375 -4.0625 C 0.84375 -4.46875 0.945312 -4.773438 1.15625 -4.984375 C 1.375 -5.191406 1.6875 -5.296875 2.09375 -5.296875 C 2.238281 -5.296875 2.382812 -5.28125 2.53125 -5.25 C 2.6875 -5.226562 2.84375 -5.1875 3 -5.125 Z M 3 -4.4375 "/>
</g>
<g id="glyph-12-5">
</g>
<g id="glyph-12-6">
<path d="M 1.796875 -5.078125 L 2.34375 -5.078125 L 0.546875 0.640625 L 0 0.640625 Z M 1.796875 -5.078125 "/>
</g>
<g id="glyph-12-7">
<path d="M 0.890625 -3.875 L 0.515625 -3.875 L 0.515625 -4.78125 C 0.753906 -4.90625 0.992188 -5 1.234375 -5.0625 C 1.484375 -5.132812 1.726562 -5.171875 1.96875 -5.171875 C 2.5 -5.171875 2.914062 -5.039062 3.21875 -4.78125 C 3.519531 -4.53125 3.671875 -4.1875 3.671875 -3.75 C 3.671875 -3.25 3.328125 -2.648438 2.640625 -1.953125 C 2.585938 -1.898438 2.546875 -1.863281 2.515625 -1.84375 L 1.234375 -0.5625 L 3.359375 -0.5625 L 3.359375 -1.1875 L 3.75 -1.1875 L 3.75 0 L 0.46875 0 L 0.46875 -0.375 L 2.015625 -1.90625 C 2.359375 -2.25 2.597656 -2.5625 2.734375 -2.84375 C 2.878906 -3.125 2.953125 -3.425781 2.953125 -3.75 C 2.953125 -4.082031 2.863281 -4.34375 2.6875 -4.53125 C 2.507812 -4.726562 2.265625 -4.828125 1.953125 -4.828125 C 1.628906 -4.828125 1.378906 -4.75 1.203125 -4.59375 C 1.023438 -4.4375 0.921875 -4.195312 0.890625 -3.875 Z M 0.890625 -3.875 "/>
</g>
<g id="glyph-12-8">
<path d="M 1.421875 -1.984375 L 1.421875 -1.625 C 1.421875 -1.195312 1.503906 -0.867188 1.671875 -0.640625 C 1.835938 -0.410156 2.082031 -0.296875 2.40625 -0.296875 C 2.726562 -0.296875 2.96875 -0.421875 3.125 -0.671875 C 3.289062 -0.929688 3.375 -1.3125 3.375 -1.8125 C 3.375 -2.3125 3.289062 -2.6875 3.125 -2.9375 C 2.96875 -3.195312 2.726562 -3.328125 2.40625 -3.328125 C 2.082031 -3.328125 1.835938 -3.210938 1.671875 -2.984375 C 1.503906 -2.753906 1.421875 -2.421875 1.421875 -1.984375 Z M 0.796875 -3.25 L 0.203125 -3.25 L 0.203125 -3.609375 L 1.421875 -3.609375 L 1.421875 -3.046875 C 1.546875 -3.273438 1.703125 -3.441406 1.890625 -3.546875 C 2.085938 -3.660156 2.320312 -3.71875 2.59375 -3.71875 C 3.039062 -3.71875 3.40625 -3.539062 3.6875 -3.1875 C 3.96875 -2.832031 4.109375 -2.375 4.109375 -1.8125 C 4.109375 -1.238281 3.96875 -0.773438 3.6875 -0.421875 C 3.40625 -0.078125 3.039062 0.09375 2.59375 0.09375 C 2.320312 0.09375 2.085938 0.0390625 1.890625 -0.0625 C 1.703125 -0.164062 1.546875 -0.332031 1.421875 -0.5625 L 1.421875 1.078125 L 2.015625 1.078125 L 2.015625 1.453125 L 0.203125 1.453125 L 0.203125 1.078125 L 0.796875 1.078125 Z M 0.796875 -3.25 "/>
</g>
<g id="glyph-12-9">
<path d="M 3.328125 -3.625 L 3.328125 -2.71875 L 2.96875 -2.71875 C 2.957031 -2.894531 2.90625 -3.023438 2.8125 -3.109375 C 2.726562 -3.203125 2.601562 -3.25 2.4375 -3.25 C 2.125 -3.25 1.882812 -3.140625 1.71875 -2.921875 C 1.5625 -2.710938 1.484375 -2.410156 1.484375 -2.015625 L 1.484375 -0.359375 L 2.203125 -0.359375 L 2.203125 0 L 0.28125 0 L 0.28125 -0.359375 L 0.84375 -0.359375 L 0.84375 -3.265625 L 0.25 -3.265625 L 0.25 -3.609375 L 1.484375 -3.609375 L 1.484375 -2.96875 C 1.597656 -3.226562 1.75 -3.414062 1.9375 -3.53125 C 2.132812 -3.65625 2.375 -3.71875 2.65625 -3.71875 C 2.757812 -3.71875 2.863281 -3.707031 2.96875 -3.6875 C 3.082031 -3.675781 3.203125 -3.65625 3.328125 -3.625 Z M 3.328125 -3.625 "/>
</g>
<g id="glyph-12-10">
<path d="M 1.421875 -0.359375 L 2.015625 -0.359375 L 2.015625 0 L 0.203125 0 L 0.203125 -0.359375 L 0.796875 -0.359375 L 0.796875 -4.9375 L 0.203125 -4.9375 L 0.203125 -5.296875 L 1.421875 -5.296875 Z M 1.421875 -0.359375 "/>
</g>
<g id="glyph-12-11">
<path d="M 3.78125 -1.75 L 1.078125 -1.75 L 1.078125 -1.71875 C 1.078125 -1.226562 1.164062 -0.859375 1.34375 -0.609375 C 1.53125 -0.359375 1.804688 -0.234375 2.171875 -0.234375 C 2.441406 -0.234375 2.664062 -0.304688 2.84375 -0.453125 C 3.019531 -0.597656 3.144531 -0.8125 3.21875 -1.09375 L 3.71875 -1.09375 C 3.613281 -0.695312 3.425781 -0.398438 3.15625 -0.203125 C 2.894531 -0.00390625 2.546875 0.09375 2.109375 0.09375 C 1.578125 0.09375 1.148438 -0.078125 0.828125 -0.421875 C 0.503906 -0.773438 0.34375 -1.238281 0.34375 -1.8125 C 0.34375 -2.382812 0.5 -2.84375 0.8125 -3.1875 C 1.132812 -3.539062 1.550781 -3.71875 2.0625 -3.71875 C 2.601562 -3.71875 3.019531 -3.546875 3.3125 -3.203125 C 3.613281 -2.867188 3.769531 -2.382812 3.78125 -1.75 Z M 3.03125 -2.109375 C 3.019531 -2.523438 2.929688 -2.835938 2.765625 -3.046875 C 2.609375 -3.265625 2.375 -3.375 2.0625 -3.375 C 1.769531 -3.375 1.539062 -3.265625 1.375 -3.046875 C 1.21875 -2.835938 1.117188 -2.523438 1.078125 -2.109375 Z M 3.03125 -2.109375 "/>
</g>
<g id="glyph-12-12">
<path d="M 3.65625 -3.25 L 3.65625 -0.078125 C 3.65625 0.441406 3.507812 0.84375 3.21875 1.125 C 2.9375 1.40625 2.53125 1.546875 2 1.546875 C 1.769531 1.546875 1.546875 1.523438 1.328125 1.484375 C 1.109375 1.441406 0.898438 1.378906 0.703125 1.296875 L 0.703125 0.53125 L 1.03125 0.53125 C 1.0625 0.769531 1.15625 0.941406 1.3125 1.046875 C 1.46875 1.160156 1.6875 1.21875 1.96875 1.21875 C 2.332031 1.21875 2.597656 1.113281 2.765625 0.90625 C 2.941406 0.695312 3.03125 0.367188 3.03125 -0.078125 L 3.03125 -0.5625 C 2.90625 -0.332031 2.75 -0.164062 2.5625 -0.0625 C 2.375 0.0390625 2.140625 0.09375 1.859375 0.09375 C 1.410156 0.09375 1.046875 -0.078125 0.765625 -0.421875 C 0.484375 -0.773438 0.34375 -1.238281 0.34375 -1.8125 C 0.34375 -2.375 0.484375 -2.832031 0.765625 -3.1875 C 1.046875 -3.539062 1.410156 -3.71875 1.859375 -3.71875 C 2.140625 -3.71875 2.375 -3.660156 2.5625 -3.546875 C 2.75 -3.441406 2.90625 -3.273438 3.03125 -3.046875 L 3.03125 -3.609375 L 4.25 -3.609375 L 4.25 -3.25 Z M 3.03125 -1.984375 C 3.03125 -2.421875 2.945312 -2.753906 2.78125 -2.984375 C 2.613281 -3.210938 2.375 -3.328125 2.0625 -3.328125 C 1.738281 -3.328125 1.492188 -3.195312 1.328125 -2.9375 C 1.160156 -2.6875 1.078125 -2.3125 1.078125 -1.8125 C 1.078125 -1.3125 1.160156 -0.929688 1.328125 -0.671875 C 1.492188 -0.421875 1.738281 -0.296875 2.0625 -0.296875 C 2.375 -0.296875 2.613281 -0.410156 2.78125 -0.640625 C 2.945312 -0.867188 3.03125 -1.195312 3.03125 -1.625 Z M 3.03125 -1.984375 "/>
</g>
<g id="glyph-12-13">
<path d="M 0.3125 -2.140625 L 2.046875 -2.140625 L 2.046875 -1.609375 L 0.3125 -1.609375 Z M 0.3125 -2.140625 "/>
</g>
<g id="glyph-12-14">
<path d="M 0.671875 -4.734375 C 0.671875 -4.835938 0.707031 -4.925781 0.78125 -5 C 0.863281 -5.082031 0.957031 -5.125 1.0625 -5.125 C 1.164062 -5.125 1.253906 -5.082031 1.328125 -5 C 1.410156 -4.925781 1.453125 -4.835938 1.453125 -4.734375 C 1.453125 -4.628906 1.410156 -4.539062 1.328125 -4.46875 C 1.253906 -4.394531 1.164062 -4.359375 1.0625 -4.359375 C 0.957031 -4.359375 0.863281 -4.394531 0.78125 -4.46875 C 0.707031 -4.539062 0.671875 -4.628906 0.671875 -4.734375 Z M 1.484375 -0.359375 L 2.0625 -0.359375 L 2.0625 0 L 0.25 0 L 0.25 -0.359375 L 0.84375 -0.359375 L 0.84375 -3.25 L 0.25 -3.25 L 0.25 -3.609375 L 1.484375 -3.609375 Z M 1.484375 -0.359375 "/>
</g>
<g id="glyph-12-15">
<path d="M 2 0 L 0.234375 0 L 0.234375 -0.359375 L 0.796875 -0.359375 L 0.796875 -4.9375 L 0.203125 -4.9375 L 0.203125 -5.296875 L 1.421875 -5.296875 L 1.421875 -1.84375 L 2.953125 -3.25 L 2.4375 -3.25 L 2.4375 -3.609375 L 4.0625 -3.609375 L 4.0625 -3.25 L 3.453125 -3.25 L 2.375 -2.265625 L 3.75 -0.359375 L 4.265625 -0.359375 L 4.265625 0 L 2.484375 0 L 2.484375 -0.359375 L 3 -0.359375 L 1.921875 -1.84375 L 1.421875 -1.390625 L 1.421875 -0.359375 L 2 -0.359375 Z M 2 0 "/>
</g>
<g id="glyph-12-16">
<path d="M 0.28125 0 L 0.28125 -0.359375 L 0.84375 -0.359375 L 0.84375 -4.9375 L 0.25 -4.9375 L 0.25 -5.296875 L 1.484375 -5.296875 L 1.484375 -2.96875 C 1.597656 -3.21875 1.742188 -3.40625 1.921875 -3.53125 C 2.109375 -3.65625 2.328125 -3.71875 2.578125 -3.71875 C 2.972656 -3.71875 3.265625 -3.601562 3.453125 -3.375 C 3.640625 -3.144531 3.734375 -2.785156 3.734375 -2.296875 L 3.734375 -0.359375 L 4.296875 -0.359375 L 4.296875 0 L 2.5625 0 L 2.5625 -0.359375 L 3.109375 -0.359375 L 3.109375 -2.109375 C 3.109375 -2.546875 3.050781 -2.84375 2.9375 -3 C 2.832031 -3.164062 2.644531 -3.25 2.375 -3.25 C 2.082031 -3.25 1.859375 -3.144531 1.703125 -2.9375 C 1.554688 -2.726562 1.484375 -2.421875 1.484375 -2.015625 L 1.484375 -0.359375 L 2.015625 -0.359375 L 2.015625 0 Z M 0.28125 0 "/>
</g>
<g id="glyph-12-17">
<path d="M 3.65625 -0.359375 L 4.25 -0.359375 L 4.25 0 L 3.03125 0 L 3.03125 -0.5625 C 2.90625 -0.332031 2.75 -0.164062 2.5625 -0.0625 C 2.375 0.0390625 2.140625 0.09375 1.859375 0.09375 C 1.410156 0.09375 1.046875 -0.078125 0.765625 -0.421875 C 0.484375 -0.773438 0.34375 -1.238281 0.34375 -1.8125 C 0.34375 -2.375 0.484375 -2.832031 0.765625 -3.1875 C 1.046875 -3.539062 1.410156 -3.71875 1.859375 -3.71875 C 2.140625 -3.71875 2.375 -3.660156 2.5625 -3.546875 C 2.75 -3.441406 2.90625 -3.273438 3.03125 -3.046875 L 3.03125 -4.9375 L 2.4375 -4.9375 L 2.4375 -5.296875 L 3.65625 -5.296875 Z M 3.03125 -1.625 L 3.03125 -1.984375 C 3.03125 -2.421875 2.945312 -2.753906 2.78125 -2.984375 C 2.613281 -3.210938 2.375 -3.328125 2.0625 -3.328125 C 1.738281 -3.328125 1.492188 -3.195312 1.328125 -2.9375 C 1.160156 -2.6875 1.078125 -2.3125 1.078125 -1.8125 C 1.078125 -1.3125 1.160156 -0.929688 1.328125 -0.671875 C 1.492188 -0.421875 1.738281 -0.296875 2.0625 -0.296875 C 2.375 -0.296875 2.613281 -0.410156 2.78125 -0.640625 C 2.945312 -0.867188 3.03125 -1.195312 3.03125 -1.625 Z M 3.03125 -1.625 "/>
</g>
<g id="glyph-12-18">
<path d="M 3.265625 -2.28125 C 3.109375 -2.101562 2.929688 -1.972656 2.734375 -1.890625 C 2.535156 -1.804688 2.3125 -1.765625 2.0625 -1.765625 C 1.5625 -1.765625 1.164062 -1.914062 0.875 -2.21875 C 0.582031 -2.53125 0.4375 -2.945312 0.4375 -3.46875 C 0.4375 -3.988281 0.59375 -4.398438 0.90625 -4.703125 C 1.226562 -5.015625 1.65625 -5.171875 2.1875 -5.171875 C 2.757812 -5.171875 3.195312 -4.957031 3.5 -4.53125 C 3.8125 -4.101562 3.96875 -3.492188 3.96875 -2.703125 C 3.96875 -1.804688 3.785156 -1.113281 3.421875 -0.625 C 3.054688 -0.144531 2.539062 0.09375 1.875 0.09375 C 1.695312 0.09375 1.507812 0.078125 1.3125 0.046875 C 1.113281 0.015625 0.910156 -0.0351562 0.703125 -0.109375 L 0.703125 -0.953125 L 1.078125 -0.953125 C 1.109375 -0.722656 1.195312 -0.546875 1.34375 -0.421875 C 1.5 -0.296875 1.695312 -0.234375 1.9375 -0.234375 C 2.382812 -0.234375 2.710938 -0.398438 2.921875 -0.734375 C 3.140625 -1.066406 3.253906 -1.582031 3.265625 -2.28125 Z M 2.15625 -4.828125 C 1.832031 -4.828125 1.582031 -4.707031 1.40625 -4.46875 C 1.238281 -4.238281 1.15625 -3.90625 1.15625 -3.46875 C 1.15625 -3.03125 1.238281 -2.691406 1.40625 -2.453125 C 1.582031 -2.222656 1.832031 -2.109375 2.15625 -2.109375 C 2.476562 -2.109375 2.722656 -2.21875 2.890625 -2.4375 C 3.066406 -2.664062 3.15625 -3 3.15625 -3.4375 C 3.15625 -3.882812 3.066406 -4.226562 2.890625 -4.46875 C 2.722656 -4.707031 2.476562 -4.828125 2.15625 -4.828125 Z M 2.15625 -4.828125 "/>
</g>
<g id="glyph-12-19">
<path d="M 3.5 -5.078125 L 3.5 -4.515625 L 1.171875 -4.515625 L 1.171875 -3.0625 C 1.296875 -3.144531 1.4375 -3.207031 1.59375 -3.25 C 1.75 -3.289062 1.925781 -3.3125 2.125 -3.3125 C 2.664062 -3.3125 3.09375 -3.160156 3.40625 -2.859375 C 3.726562 -2.554688 3.890625 -2.140625 3.890625 -1.609375 C 3.890625 -1.066406 3.726562 -0.644531 3.40625 -0.34375 C 3.09375 -0.0507812 2.644531 0.09375 2.0625 0.09375 C 1.832031 0.09375 1.59375 0.0625 1.34375 0 C 1.101562 -0.0507812 0.851562 -0.132812 0.59375 -0.25 L 0.59375 -1.234375 L 0.984375 -1.234375 C 0.992188 -0.910156 1.09375 -0.660156 1.28125 -0.484375 C 1.46875 -0.316406 1.726562 -0.234375 2.0625 -0.234375 C 2.414062 -0.234375 2.6875 -0.351562 2.875 -0.59375 C 3.070312 -0.832031 3.171875 -1.171875 3.171875 -1.609375 C 3.171875 -2.046875 3.078125 -2.378906 2.890625 -2.609375 C 2.703125 -2.847656 2.425781 -2.96875 2.0625 -2.96875 C 1.851562 -2.96875 1.671875 -2.929688 1.515625 -2.859375 C 1.367188 -2.785156 1.234375 -2.675781 1.109375 -2.53125 L 0.8125 -2.53125 L 0.8125 -5.078125 Z M 3.5 -5.078125 "/>
</g>
<g id="glyph-12-20">
<path d="M 1.5625 -4.859375 C 1.363281 -4.859375 1.207031 -4.765625 1.09375 -4.578125 C 0.976562 -4.390625 0.921875 -4.125 0.921875 -3.78125 C 0.921875 -3.445312 0.976562 -3.1875 1.09375 -3 C 1.207031 -2.8125 1.363281 -2.71875 1.5625 -2.71875 C 1.75 -2.71875 1.898438 -2.8125 2.015625 -3 C 2.128906 -3.1875 2.1875 -3.445312 2.1875 -3.78125 C 2.1875 -4.113281 2.128906 -4.375 2.015625 -4.5625 C 1.898438 -4.757812 1.75 -4.859375 1.5625 -4.859375 Z M 5.0625 -2.359375 C 4.863281 -2.359375 4.707031 -2.265625 4.59375 -2.078125 C 4.488281 -1.890625 4.4375 -1.625 4.4375 -1.28125 C 4.4375 -0.945312 4.492188 -0.6875 4.609375 -0.5 C 4.722656 -0.3125 4.875 -0.21875 5.0625 -0.21875 C 5.257812 -0.21875 5.410156 -0.3125 5.515625 -0.5 C 5.628906 -0.6875 5.6875 -0.945312 5.6875 -1.28125 C 5.6875 -1.613281 5.628906 -1.875 5.515625 -2.0625 C 5.410156 -2.257812 5.257812 -2.359375 5.0625 -2.359375 Z M 5.0625 -2.671875 C 5.425781 -2.671875 5.710938 -2.546875 5.921875 -2.296875 C 6.128906 -2.046875 6.234375 -1.707031 6.234375 -1.28125 C 6.234375 -0.851562 6.125 -0.515625 5.90625 -0.265625 C 5.695312 -0.0234375 5.414062 0.09375 5.0625 0.09375 C 4.695312 0.09375 4.410156 -0.0234375 4.203125 -0.265625 C 3.992188 -0.515625 3.890625 -0.851562 3.890625 -1.28125 C 3.890625 -1.707031 3.992188 -2.046875 4.203125 -2.296875 C 4.421875 -2.546875 4.707031 -2.671875 5.0625 -2.671875 Z M 4.640625 -5.171875 L 5.15625 -5.171875 L 1.984375 0.09375 L 1.46875 0.09375 Z M 1.5625 -5.171875 C 1.914062 -5.171875 2.195312 -5.046875 2.40625 -4.796875 C 2.625 -4.546875 2.734375 -4.210938 2.734375 -3.796875 C 2.734375 -3.359375 2.625 -3.015625 2.40625 -2.765625 C 2.195312 -2.523438 1.914062 -2.40625 1.5625 -2.40625 C 1.195312 -2.40625 0.910156 -2.53125 0.703125 -2.78125 C 0.492188 -3.03125 0.390625 -3.367188 0.390625 -3.796875 C 0.390625 -4.210938 0.492188 -4.546875 0.703125 -4.796875 C 0.910156 -5.046875 1.195312 -5.171875 1.5625 -5.171875 Z M 1.5625 -5.171875 "/>
</g>
<g id="glyph-12-21">
<path d="M 0.28125 0 L 0.28125 -0.359375 L 0.84375 -0.359375 L 0.84375 -3.25 L 0.25 -3.25 L 0.25 -3.609375 L 1.484375 -3.609375 L 1.484375 -2.96875 C 1.597656 -3.21875 1.742188 -3.40625 1.921875 -3.53125 C 2.109375 -3.65625 2.328125 -3.71875 2.578125 -3.71875 C 2.972656 -3.71875 3.265625 -3.601562 3.453125 -3.375 C 3.640625 -3.144531 3.734375 -2.785156 3.734375 -2.296875 L 3.734375 -0.359375 L 4.296875 -0.359375 L 4.296875 0 L 2.5625 0 L 2.5625 -0.359375 L 3.109375 -0.359375 L 3.109375 -2.109375 C 3.109375 -2.546875 3.050781 -2.847656 2.9375 -3.015625 C 2.832031 -3.179688 2.644531 -3.265625 2.375 -3.265625 C 2.082031 -3.265625 1.859375 -3.15625 1.703125 -2.9375 C 1.554688 -2.726562 1.484375 -2.421875 1.484375 -2.015625 L 1.484375 -0.359375 L 2.015625 -0.359375 L 2.015625 0 Z M 0.28125 0 "/>
</g>
<g id="glyph-12-22">
<path d="M 1.71875 0 L 0.390625 -3.25 L -0.015625 -3.25 L -0.015625 -3.609375 L 1.640625 -3.609375 L 1.640625 -3.25 L 1.0625 -3.25 L 2.078125 -0.765625 L 3.09375 -3.25 L 2.5625 -3.25 L 2.5625 -3.609375 L 3.921875 -3.609375 L 3.921875 -3.25 L 3.515625 -3.25 L 2.1875 0 Z M 1.71875 0 "/>
</g>
<g id="glyph-12-23">
<path d="M 2.765625 -1.140625 L 2.765625 -1.90625 L 1.96875 -1.90625 C 1.65625 -1.90625 1.421875 -1.835938 1.265625 -1.703125 C 1.117188 -1.566406 1.046875 -1.359375 1.046875 -1.078125 C 1.046875 -0.828125 1.117188 -0.628906 1.265625 -0.484375 C 1.421875 -0.335938 1.632812 -0.265625 1.90625 -0.265625 C 2.164062 -0.265625 2.375 -0.34375 2.53125 -0.5 C 2.6875 -0.664062 2.765625 -0.878906 2.765625 -1.140625 Z M 3.40625 -2.265625 L 3.40625 -0.359375 L 3.953125 -0.359375 L 3.953125 0 L 2.765625 0 L 2.765625 -0.390625 C 2.628906 -0.222656 2.46875 -0.0976562 2.28125 -0.015625 C 2.101562 0.0546875 1.894531 0.09375 1.65625 0.09375 C 1.257812 0.09375 0.941406 -0.0078125 0.703125 -0.21875 C 0.460938 -0.4375 0.34375 -0.722656 0.34375 -1.078125 C 0.34375 -1.453125 0.476562 -1.742188 0.75 -1.953125 C 1.019531 -2.160156 1.398438 -2.265625 1.890625 -2.265625 L 2.765625 -2.265625 L 2.765625 -2.515625 C 2.765625 -2.785156 2.679688 -2.992188 2.515625 -3.140625 C 2.347656 -3.296875 2.117188 -3.375 1.828125 -3.375 C 1.578125 -3.375 1.375 -3.316406 1.21875 -3.203125 C 1.070312 -3.085938 0.984375 -2.921875 0.953125 -2.703125 L 0.625 -2.703125 L 0.625 -3.4375 C 0.84375 -3.53125 1.050781 -3.597656 1.25 -3.640625 C 1.457031 -3.691406 1.660156 -3.71875 1.859375 -3.71875 C 2.359375 -3.71875 2.738281 -3.59375 3 -3.34375 C 3.269531 -3.09375 3.40625 -2.734375 3.40625 -2.265625 Z M 3.40625 -2.265625 "/>
</g>
<g id="glyph-13-0">
<path d="M 0.734375 -2.453125 L 5.09375 -2.453125 L 5.09375 -1.90625 L 0.734375 -1.90625 Z M 0.734375 -2.453125 "/>
</g>
<g id="glyph-13-1">
<path d="M 3.640625 -4.375 L 3.328125 -4.375 C 3.316406 -4.570312 3.242188 -4.71875 3.109375 -4.8125 C 2.972656 -4.914062 2.765625 -4.96875 2.484375 -4.96875 C 2.128906 -4.96875 1.875 -4.882812 1.71875 -4.71875 C 1.5625 -4.5625 1.484375 -4.304688 1.484375 -3.953125 L 1.484375 -3.609375 L 3.890625 -3.609375 L 3.890625 -0.359375 L 4.484375 -0.359375 L 4.484375 0 L 2.671875 0 L 2.671875 -0.359375 L 3.265625 -0.359375 L 3.265625 -3.25 L 1.484375 -3.25 L 1.484375 -0.359375 L 2.0625 -0.359375 L 2.0625 0 L 0.25 0 L 0.25 -0.359375 L 0.84375 -0.359375 L 0.84375 -3.25 L 0.25 -3.25 L 0.25 -3.609375 L 0.84375 -3.609375 L 0.84375 -3.9375 C 0.84375 -4.382812 0.972656 -4.722656 1.234375 -4.953125 C 1.503906 -5.179688 1.898438 -5.296875 2.421875 -5.296875 C 2.617188 -5.296875 2.820312 -5.28125 3.03125 -5.25 C 3.238281 -5.21875 3.441406 -5.171875 3.640625 -5.109375 Z M 3.640625 -4.375 "/>
</g>
<g id="glyph-14-0">
<path d="M 1.328125 1.09375 L 1.265625 1.453125 L -0.40625 1.453125 L -0.34375 1.09375 L 0.140625 1.09375 L 1.859375 -1.28125 L 1.703125 -2.828125 C 1.679688 -3.054688 1.640625 -3.195312 1.578125 -3.25 C 1.492188 -3.320312 1.4375 -3.359375 1.40625 -3.359375 C 1.269531 -3.359375 1.160156 -3.320312 1.078125 -3.25 C 1.003906 -3.1875 0.945312 -3.078125 0.90625 -2.921875 L 0.578125 -2.921875 L 0.71875 -3.609375 C 0.832031 -3.640625 0.945312 -3.664062 1.0625 -3.6875 C 1.175781 -3.707031 1.289062 -3.71875 1.40625 -3.71875 C 1.539062 -3.71875 1.675781 -3.664062 1.8125 -3.5625 C 1.96875 -3.445312 2.054688 -3.253906 2.078125 -2.984375 L 2.203125 -1.75 L 3.3125 -3.25 L 2.875 -3.25 L 2.953125 -3.609375 L 4.5625 -3.609375 L 4.484375 -3.25 L 4.046875 -3.25 L 2.296875 -0.859375 L 2.453125 0.65625 C 2.472656 0.882812 2.515625 1.023438 2.578125 1.078125 C 2.648438 1.148438 2.707031 1.1875 2.75 1.1875 C 2.882812 1.1875 2.988281 1.148438 3.0625 1.078125 C 3.144531 1.015625 3.207031 0.90625 3.25 0.75 L 3.578125 0.75 L 3.4375 1.4375 C 3.320312 1.476562 3.207031 1.503906 3.09375 1.515625 C 2.96875 1.535156 2.851562 1.546875 2.75 1.546875 C 2.613281 1.546875 2.476562 1.492188 2.34375 1.390625 C 2.1875 1.273438 2.09375 1.082031 2.0625 0.8125 L 1.953125 -0.390625 L 0.875 1.09375 Z M 1.328125 1.09375 "/>
</g>
<g id="glyph-15-0">
<path d="M 0.625 -2.703125 L 0.359375 -2.703125 L 0.359375 -3.34375 C 0.523438 -3.425781 0.691406 -3.492188 0.859375 -3.546875 C 1.035156 -3.597656 1.207031 -3.625 1.375 -3.625 C 1.75 -3.625 2.039062 -3.53125 2.25 -3.34375 C 2.46875 -3.164062 2.578125 -2.925781 2.578125 -2.625 C 2.578125 -2.269531 2.332031 -1.851562 1.84375 -1.375 C 1.800781 -1.332031 1.773438 -1.300781 1.765625 -1.28125 L 0.859375 -0.390625 L 2.34375 -0.390625 L 2.34375 -0.828125 L 2.625 -0.828125 L 2.625 0 L 0.328125 0 L 0.328125 -0.265625 L 1.40625 -1.328125 C 1.644531 -1.566406 1.816406 -1.785156 1.921875 -1.984375 C 2.023438 -2.191406 2.078125 -2.40625 2.078125 -2.625 C 2.078125 -2.863281 2.015625 -3.046875 1.890625 -3.171875 C 1.765625 -3.304688 1.59375 -3.375 1.375 -3.375 C 1.144531 -3.375 0.96875 -3.316406 0.84375 -3.203125 C 0.71875 -3.097656 0.644531 -2.929688 0.625 -2.703125 Z M 0.625 -2.703125 "/>
</g>
<g id="glyph-15-1">
<path d="M 0.6875 0 L 0.6875 -0.25 L 1.3125 -0.25 L 1.3125 -3.203125 L 0.59375 -2.75 L 0.59375 -3.0625 L 1.46875 -3.625 L 1.796875 -3.625 L 1.796875 -0.25 L 2.40625 -0.25 L 2.40625 0 Z M 0.6875 0 "/>
</g>
<g id="glyph-15-2">
<path d="M 0.171875 0.46875 C 0.328125 0.363281 0.4375 0.234375 0.5 0.078125 C 0.570312 -0.0664062 0.609375 -0.242188 0.609375 -0.453125 L 0.609375 -0.546875 L 1.078125 -0.546875 C 1.066406 -0.273438 1.003906 -0.0390625 0.890625 0.15625 C 0.773438 0.351562 0.597656 0.523438 0.359375 0.671875 Z M 0.171875 0.46875 "/>
</g>
<g id="glyph-15-3">
<path d="M 1.546875 -0.171875 C 1.785156 -0.171875 1.96875 -0.300781 2.09375 -0.5625 C 2.21875 -0.832031 2.28125 -1.234375 2.28125 -1.765625 C 2.28125 -2.304688 2.21875 -2.707031 2.09375 -2.96875 C 1.96875 -3.238281 1.785156 -3.375 1.546875 -3.375 C 1.304688 -3.375 1.125 -3.238281 1 -2.96875 C 0.882812 -2.707031 0.828125 -2.304688 0.828125 -1.765625 C 0.828125 -1.234375 0.882812 -0.832031 1 -0.5625 C 1.125 -0.300781 1.304688 -0.171875 1.546875 -0.171875 Z M 1.546875 0.0625 C 1.160156 0.0625 0.859375 -0.0976562 0.640625 -0.421875 C 0.429688 -0.742188 0.328125 -1.191406 0.328125 -1.765625 C 0.328125 -2.347656 0.429688 -2.800781 0.640625 -3.125 C 0.859375 -3.457031 1.160156 -3.625 1.546875 -3.625 C 1.929688 -3.625 2.234375 -3.457031 2.453125 -3.125 C 2.671875 -2.800781 2.78125 -2.347656 2.78125 -1.765625 C 2.78125 -1.191406 2.671875 -0.742188 2.453125 -0.421875 C 2.234375 -0.0976562 1.929688 0.0625 1.546875 0.0625 Z M 1.546875 0.0625 "/>
</g>
<g id="glyph-15-4">
<path d="M 0.453125 -0.25 C 0.453125 -0.332031 0.484375 -0.40625 0.546875 -0.46875 C 0.609375 -0.53125 0.6875 -0.5625 0.78125 -0.5625 C 0.863281 -0.5625 0.9375 -0.53125 1 -0.46875 C 1.0625 -0.40625 1.09375 -0.332031 1.09375 -0.25 C 1.09375 -0.15625 1.0625 -0.078125 1 -0.015625 C 0.9375 0.0351562 0.863281 0.0625 0.78125 0.0625 C 0.6875 0.0625 0.609375 0.0351562 0.546875 -0.015625 C 0.484375 -0.078125 0.453125 -0.15625 0.453125 -0.25 Z M 0.453125 -0.25 "/>
</g>
<g id="glyph-15-5">
<path d="M 2.28125 -1.59375 C 2.175781 -1.46875 2.050781 -1.375 1.90625 -1.3125 C 1.769531 -1.257812 1.617188 -1.234375 1.453125 -1.234375 C 1.097656 -1.234375 0.816406 -1.335938 0.609375 -1.546875 C 0.410156 -1.765625 0.3125 -2.054688 0.3125 -2.421875 C 0.3125 -2.785156 0.421875 -3.078125 0.640625 -3.296875 C 0.859375 -3.515625 1.15625 -3.625 1.53125 -3.625 C 1.925781 -3.625 2.226562 -3.472656 2.4375 -3.171875 C 2.65625 -2.867188 2.765625 -2.441406 2.765625 -1.890625 C 2.765625 -1.265625 2.632812 -0.78125 2.375 -0.4375 C 2.125 -0.101562 1.769531 0.0625 1.3125 0.0625 C 1.1875 0.0625 1.050781 0.0507812 0.90625 0.03125 C 0.769531 0.0078125 0.632812 -0.0234375 0.5 -0.078125 L 0.5 -0.671875 L 0.765625 -0.671875 C 0.785156 -0.503906 0.84375 -0.378906 0.9375 -0.296875 C 1.039062 -0.210938 1.179688 -0.171875 1.359375 -0.171875 C 1.671875 -0.171875 1.898438 -0.285156 2.046875 -0.515625 C 2.191406 -0.742188 2.269531 -1.101562 2.28125 -1.59375 Z M 1.5 -3.375 C 1.28125 -3.375 1.109375 -3.289062 0.984375 -3.125 C 0.867188 -2.96875 0.8125 -2.734375 0.8125 -2.421875 C 0.8125 -2.117188 0.867188 -1.882812 0.984375 -1.71875 C 1.109375 -1.550781 1.28125 -1.46875 1.5 -1.46875 C 1.726562 -1.46875 1.898438 -1.546875 2.015625 -1.703125 C 2.140625 -1.867188 2.203125 -2.101562 2.203125 -2.40625 C 2.203125 -2.71875 2.140625 -2.957031 2.015625 -3.125 C 1.898438 -3.289062 1.726562 -3.375 1.5 -3.375 Z M 1.5 -3.375 "/>
</g>
<g id="glyph-15-6">
<path d="M 2.453125 -3.546875 L 2.453125 -3.15625 L 0.828125 -3.15625 L 0.828125 -2.140625 C 0.910156 -2.203125 1.003906 -2.242188 1.109375 -2.265625 C 1.222656 -2.296875 1.347656 -2.3125 1.484375 -2.3125 C 1.867188 -2.3125 2.171875 -2.203125 2.390625 -1.984375 C 2.609375 -1.773438 2.71875 -1.488281 2.71875 -1.125 C 2.71875 -0.75 2.601562 -0.457031 2.375 -0.25 C 2.15625 -0.0390625 1.84375 0.0625 1.4375 0.0625 C 1.28125 0.0625 1.113281 0.0390625 0.9375 0 C 0.769531 -0.03125 0.597656 -0.0859375 0.421875 -0.171875 L 0.421875 -0.859375 L 0.6875 -0.859375 C 0.695312 -0.640625 0.765625 -0.46875 0.890625 -0.34375 C 1.023438 -0.226562 1.207031 -0.171875 1.4375 -0.171875 C 1.6875 -0.171875 1.878906 -0.25 2.015625 -0.40625 C 2.148438 -0.570312 2.21875 -0.8125 2.21875 -1.125 C 2.21875 -1.4375 2.148438 -1.671875 2.015625 -1.828125 C 1.890625 -1.992188 1.695312 -2.078125 1.4375 -2.078125 C 1.300781 -2.078125 1.175781 -2.050781 1.0625 -2 C 0.957031 -1.945312 0.863281 -1.867188 0.78125 -1.765625 L 0.578125 -1.765625 L 0.578125 -3.546875 Z M 2.453125 -3.546875 "/>
</g>
<g id="glyph-16-0">
<path d="M 0.9375 -3.25 L 0.375 -3.25 L 0.453125 -3.609375 L 1 -3.609375 L 1.21875 -4.734375 L 1.84375 -4.734375 L 1.640625 -3.609375 L 2.8125 -3.609375 L 2.734375 -3.25 L 1.5625 -3.25 L 1.109375 -0.953125 C 1.078125 -0.773438 1.0625 -0.632812 1.0625 -0.53125 C 1.0625 -0.457031 1.070312 -0.40625 1.09375 -0.375 C 1.132812 -0.28125 1.234375 -0.234375 1.390625 -0.234375 C 1.554688 -0.234375 1.6875 -0.28125 1.78125 -0.375 C 1.875 -0.476562 1.941406 -0.632812 1.984375 -0.84375 L 2.453125 -0.84375 C 2.378906 -0.519531 2.242188 -0.28125 2.046875 -0.125 C 1.859375 0.0195312 1.597656 0.09375 1.265625 0.09375 C 0.910156 0.09375 0.671875 0.015625 0.546875 -0.140625 C 0.472656 -0.242188 0.4375 -0.382812 0.4375 -0.5625 C 0.4375 -0.675781 0.453125 -0.804688 0.484375 -0.953125 Z M 0.9375 -3.25 "/>
</g>
</g>
<clipPath id="clip-0">
<path clip-rule="nonzero" d="M 0.488281 0 L 279.867188 0 L 279.867188 174.375 L 0.488281 174.375 Z M 0.488281 0 "/>
</clipPath>
<clipPath id="clip-1">
<path clip-rule="nonzero" d="M 161 1.433594 L 163 1.433594 L 163 144.910156 L 161 144.910156 Z M 161 1.433594 "/>
</clipPath>
<clipPath id="clip-2">
<path clip-rule="nonzero" d="M 73 10 L 250 10 L 250 144.910156 L 73 144.910156 Z M 73 10 "/>
</clipPath>
<clipPath id="clip-3">
<path clip-rule="nonzero" d="M 45.160156 71 L 278.433594 71 L 278.433594 73 L 45.160156 73 Z M 45.160156 71 "/>
</clipPath>
</defs>
<g clip-path="url(#clip-0)">
<path fill-rule="nonzero" fill="rgb(100%, 100%, 100%)" fill-opacity="1" d="M 0.488281 174.375 L 279.867188 174.375 L 279.867188 0 L 0.488281 0 Z M 0.488281 174.375 "/>
</g>
<path fill-rule="nonzero" fill="rgb(100%, 100%, 100%)" fill-opacity="1" d="M 45.160156 144.910156 L 278.433594 144.910156 L 278.433594 1.433594 L 45.160156 1.433594 Z M 45.160156 144.910156 "/>
<g clip-path="url(#clip-1)">
<path fill="none" stroke-width="0.6" stroke-linecap="square" stroke-linejoin="round" stroke="rgb(82.351685%, 85.096741%, 87.841797%)" stroke-opacity="1" stroke-miterlimit="10" d="M 162.057817 29.60272 L 162.057817 173.745855 " transform="matrix(0.995376, 0, 0, -0.995376, 0.488475, 174.375982)"/>
</g>
<path fill="none" stroke-width="0.8" stroke-linecap="butt" stroke-linejoin="round" stroke="rgb(0%, 0%, 0%)" stroke-opacity="1" stroke-miterlimit="10" d="M 60.22754 29.60272 L 60.22754 26.102157 " transform="matrix(0.995376, 0, 0, -0.995376, 0.488475, 174.375982)"/>
<g fill="rgb(0%, 0%, 0%)" fill-opacity="1">
<use xlink:href="#glyph-0-0" x="54.100994" y="157.928411"/>
</g>
<g fill="rgb(0%, 0%, 0%)" fill-opacity="1">
<use xlink:href="#glyph-0-1" x="59.169353" y="157.928411"/>
</g>
<g fill="rgb(0%, 0%, 0%)" fill-opacity="1">
<use xlink:href="#glyph-0-2" x="61.705477" y="157.928411"/>
</g>
<path fill="none" stroke-width="0.8" stroke-linecap="butt" stroke-linejoin="round" stroke="rgb(0%, 0%, 0%)" stroke-opacity="1" stroke-miterlimit="10" d="M 99.726605 29.60272 L 99.726605 26.102157 " transform="matrix(0.995376, 0, 0, -0.995376, 0.488475, 174.375982)"/>
<g fill="rgb(0%, 0%, 0%)" fill-opacity="1">
<use xlink:href="#glyph-0-0" x="93.414384" y="157.928411"/>
</g>
<g fill="rgb(0%, 0%, 0%)" fill-opacity="1">
<use xlink:href="#glyph-0-1" x="98.482744" y="157.928411"/>
</g>
<g fill="rgb(0%, 0%, 0%)" fill-opacity="1">
<use xlink:href="#glyph-0-3" x="101.018867" y="157.928411"/>
</g>
<path fill="none" stroke-width="0.8" stroke-linecap="butt" stroke-linejoin="round" stroke="rgb(0%, 0%, 0%)" stroke-opacity="1" stroke-miterlimit="10" d="M 139.221745 29.60272 L 139.221745 26.102157 " transform="matrix(0.995376, 0, 0, -0.995376, 0.488475, 174.375982)"/>
<g fill="rgb(0%, 0%, 0%)" fill-opacity="1">
<use xlink:href="#glyph-0-0" x="132.727775" y="157.928411"/>
</g>
<g fill="rgb(0%, 0%, 0%)" fill-opacity="1">
<use xlink:href="#glyph-0-1" x="137.796134" y="157.928411"/>
</g>
<g fill="rgb(0%, 0%, 0%)" fill-opacity="1">
<use xlink:href="#glyph-0-4" x="140.332258" y="157.928411"/>
</g>
<path fill="none" stroke-width="0.8" stroke-linecap="butt" stroke-linejoin="round" stroke="rgb(0%, 0%, 0%)" stroke-opacity="1" stroke-miterlimit="10" d="M 178.716886 29.60272 L 178.716886 26.102157 " transform="matrix(0.995376, 0, 0, -0.995376, 0.488475, 174.375982)"/>
<g fill="rgb(0%, 0%, 0%)" fill-opacity="1">
<use xlink:href="#glyph-0-0" x="172.041165" y="157.928411"/>
</g>
<g fill="rgb(0%, 0%, 0%)" fill-opacity="1">
<use xlink:href="#glyph-0-1" x="177.109525" y="157.928411"/>
</g>
<g fill="rgb(0%, 0%, 0%)" fill-opacity="1">
<use xlink:href="#glyph-0-5" x="179.645649" y="157.928411"/>
</g>
<path fill="none" stroke-width="0.8" stroke-linecap="butt" stroke-linejoin="round" stroke="rgb(0%, 0%, 0%)" stroke-opacity="1" stroke-miterlimit="10" d="M 218.212026 29.60272 L 218.212026 26.102157 " transform="matrix(0.995376, 0, 0, -0.995376, 0.488475, 174.375982)"/>
<g fill="rgb(0%, 0%, 0%)" fill-opacity="1">
<use xlink:href="#glyph-0-6" x="211.354556" y="157.928411"/>
</g>
<g fill="rgb(0%, 0%, 0%)" fill-opacity="1">
<use xlink:href="#glyph-0-1" x="216.422915" y="157.928411"/>
</g>
<g fill="rgb(0%, 0%, 0%)" fill-opacity="1">
<use xlink:href="#glyph-0-0" x="218.959039" y="157.928411"/>
</g>
<path fill="none" stroke-width="0.8" stroke-linecap="butt" stroke-linejoin="round" stroke="rgb(0%, 0%, 0%)" stroke-opacity="1" stroke-miterlimit="10" d="M 257.707167 29.60272 L 257.707167 26.102157 " transform="matrix(0.995376, 0, 0, -0.995376, 0.488475, 174.375982)"/>
<g fill="rgb(0%, 0%, 0%)" fill-opacity="1">
<use xlink:href="#glyph-0-6" x="250.667947" y="157.928411"/>
</g>
<g fill="rgb(0%, 0%, 0%)" fill-opacity="1">
<use xlink:href="#glyph-0-1" x="255.736306" y="157.928411"/>
</g>
<g fill="rgb(0%, 0%, 0%)" fill-opacity="1">
<use xlink:href="#glyph-0-2" x="258.27243" y="157.928411"/>
</g>
<g fill="rgb(0%, 0%, 0%)" fill-opacity="1">
<use xlink:href="#glyph-1-0" x="112.525467" y="170.681661"/>
</g>
<g fill="rgb(0%, 0%, 0%)" fill-opacity="1">
<use xlink:href="#glyph-1-1" x="117.866376" y="170.681661"/>
</g>
<g fill="rgb(0%, 0%, 0%)" fill-opacity="1">
<use xlink:href="#glyph-1-2" x="120.731483" y="170.681661"/>
</g>
<g fill="rgb(0%, 0%, 0%)" fill-opacity="1">
<use xlink:href="#glyph-1-3" x="125.013834" y="170.681661"/>
</g>
<g fill="rgb(0%, 0%, 0%)" fill-opacity="1">
<use xlink:href="#glyph-1-4" x="128.040787" y="170.681661"/>
</g>
<g fill="rgb(0%, 0%, 0%)" fill-opacity="1">
<use xlink:href="#glyph-1-5" x="131.356438" y="170.681661"/>
</g>
<g fill="rgb(0%, 0%, 0%)" fill-opacity="1">
<use xlink:href="#glyph-1-6" x="134.221545" y="170.681661"/>
</g>
<g fill="rgb(0%, 0%, 0%)" fill-opacity="1">
<use xlink:href="#glyph-1-7" x="139.614945" y="170.681661"/>
</g>
<g fill="rgb(0%, 0%, 0%)" fill-opacity="1">
<use xlink:href="#glyph-1-8" x="147.282934" y="170.681661"/>
</g>
<g fill="rgb(0%, 0%, 0%)" fill-opacity="1">
<use xlink:href="#glyph-1-9" x="150.130544" y="170.681661"/>
</g>
<g fill="rgb(0%, 0%, 0%)" fill-opacity="1">
<use xlink:href="#glyph-1-6" x="155.147762" y="170.681661"/>
</g>
<g fill="rgb(0%, 0%, 0%)" fill-opacity="1">
<use xlink:href="#glyph-1-10" x="160.541162" y="170.681661"/>
</g>
<g fill="rgb(0%, 0%, 0%)" fill-opacity="1">
<use xlink:href="#glyph-1-4" x="165.842704" y="170.681661"/>
</g>
<g fill="rgb(0%, 0%, 0%)" fill-opacity="1">
<use xlink:href="#glyph-1-4" x="169.158354" y="170.681661"/>
</g>
<g fill="rgb(0%, 0%, 0%)" fill-opacity="1">
<use xlink:href="#glyph-1-1" x="172.474005" y="170.681661"/>
</g>
<g fill="rgb(0%, 0%, 0%)" fill-opacity="1">
<use xlink:href="#glyph-1-9" x="175.339112" y="170.681661"/>
</g>
<g fill="rgb(0%, 0%, 0%)" fill-opacity="1">
<use xlink:href="#glyph-1-1" x="180.35633" y="170.681661"/>
</g>
<g fill="rgb(0%, 0%, 0%)" fill-opacity="1">
<use xlink:href="#glyph-1-10" x="183.221437" y="170.681661"/>
</g>
<g fill="rgb(0%, 0%, 0%)" fill-opacity="1">
<use xlink:href="#glyph-1-11" x="188.522979" y="170.681661"/>
</g>
<g fill="rgb(0%, 0%, 0%)" fill-opacity="1">
<use xlink:href="#glyph-1-12" x="194.292561" y="170.681661"/>
</g>
<g fill="rgb(0%, 0%, 0%)" fill-opacity="1">
<use xlink:href="#glyph-1-8" x="197.892535" y="170.681661"/>
</g>
<g fill="rgb(0%, 0%, 0%)" fill-opacity="1">
<use xlink:href="#glyph-2-0" x="200.740145" y="170.681661"/>
</g>
<g fill="rgb(0%, 0%, 0%)" fill-opacity="1">
<use xlink:href="#glyph-3-0" x="205.919209" y="172.025414"/>
</g>
<path fill="none" stroke-width="0.8" stroke-linecap="butt" stroke-linejoin="round" stroke="rgb(0%, 0%, 0%)" stroke-opacity="1" stroke-miterlimit="10" d="M 44.87922 36.007338 L 41.378657 36.007338 " transform="matrix(0.995376, 0, 0, -0.995376, 0.488475, 174.375982)"/>
<g fill="rgb(0%, 0%, 0%)" fill-opacity="1">
<use xlink:href="#glyph-4-0" x="18.843202" y="141.558999"/>
</g>
<g fill="rgb(0%, 0%, 0%)" fill-opacity="1">
<use xlink:href="#glyph-0-3" x="25.515329" y="141.558999"/>
</g>
<g fill="rgb(0%, 0%, 0%)" fill-opacity="1">
<use xlink:href="#glyph-0-1" x="30.583688" y="141.558999"/>
</g>
<g fill="rgb(0%, 0%, 0%)" fill-opacity="1">
<use xlink:href="#glyph-0-0" x="33.119812" y="141.558999"/>
</g>
<path fill="none" stroke-width="0.8" stroke-linecap="butt" stroke-linejoin="round" stroke="rgb(0%, 0%, 0%)" stroke-opacity="1" stroke-miterlimit="10" d="M 44.87922 52.022806 L 41.378657 52.022806 " transform="matrix(0.995376, 0, 0, -0.995376, 0.488475, 174.375982)"/>
<g fill="rgb(0%, 0%, 0%)" fill-opacity="1">
<use xlink:href="#glyph-4-0" x="18.843202" y="125.617063"/>
</g>
<g fill="rgb(0%, 0%, 0%)" fill-opacity="1">
<use xlink:href="#glyph-0-7" x="25.515329" y="125.617063"/>
</g>
<g fill="rgb(0%, 0%, 0%)" fill-opacity="1">
<use xlink:href="#glyph-0-1" x="30.583688" y="125.617063"/>
</g>
<g fill="rgb(0%, 0%, 0%)" fill-opacity="1">
<use xlink:href="#glyph-0-8" x="33.119812" y="125.617063"/>
</g>
<path fill="none" stroke-width="0.8" stroke-linecap="butt" stroke-linejoin="round" stroke="rgb(0%, 0%, 0%)" stroke-opacity="1" stroke-miterlimit="10" d="M 44.87922 68.042198 L 41.378657 68.042198 " transform="matrix(0.995376, 0, 0, -0.995376, 0.488475, 174.375982)"/>
<g fill="rgb(0%, 0%, 0%)" fill-opacity="1">
<use xlink:href="#glyph-4-0" x="18.843202" y="109.675127"/>
</g>
<g fill="rgb(0%, 0%, 0%)" fill-opacity="1">
<use xlink:href="#glyph-0-7" x="25.515329" y="109.675127"/>
</g>
<g fill="rgb(0%, 0%, 0%)" fill-opacity="1">
<use xlink:href="#glyph-0-1" x="30.583688" y="109.675127"/>
</g>
<g fill="rgb(0%, 0%, 0%)" fill-opacity="1">
<use xlink:href="#glyph-0-0" x="33.119812" y="109.675127"/>
</g>
<path fill="none" stroke-width="0.8" stroke-linecap="butt" stroke-linejoin="round" stroke="rgb(0%, 0%, 0%)" stroke-opacity="1" stroke-miterlimit="10" d="M 44.87922 84.057666 L 41.378657 84.057666 " transform="matrix(0.995376, 0, 0, -0.995376, 0.488475, 174.375982)"/>
<g fill="rgb(0%, 0%, 0%)" fill-opacity="1">
<use xlink:href="#glyph-4-0" x="18.843202" y="93.733191"/>
</g>
<g fill="rgb(0%, 0%, 0%)" fill-opacity="1">
<use xlink:href="#glyph-0-2" x="25.515329" y="93.733191"/>
</g>
<g fill="rgb(0%, 0%, 0%)" fill-opacity="1">
<use xlink:href="#glyph-0-1" x="30.583688" y="93.733191"/>
</g>
<g fill="rgb(0%, 0%, 0%)" fill-opacity="1">
<use xlink:href="#glyph-0-8" x="33.119812" y="93.733191"/>
</g>
<path fill="none" stroke-width="0.8" stroke-linecap="butt" stroke-linejoin="round" stroke="rgb(0%, 0%, 0%)" stroke-opacity="1" stroke-miterlimit="10" d="M 44.87922 100.073134 L 41.378657 100.073134 " transform="matrix(0.995376, 0, 0, -0.995376, 0.488475, 174.375982)"/>
<g fill="rgb(0%, 0%, 0%)" fill-opacity="1">
<use xlink:href="#glyph-4-0" x="18.843202" y="77.791255"/>
</g>
<g fill="rgb(0%, 0%, 0%)" fill-opacity="1">
<use xlink:href="#glyph-0-2" x="25.515329" y="77.791255"/>
</g>
<g fill="rgb(0%, 0%, 0%)" fill-opacity="1">
<use xlink:href="#glyph-0-1" x="30.583688" y="77.791255"/>
</g>
<g fill="rgb(0%, 0%, 0%)" fill-opacity="1">
<use xlink:href="#glyph-0-0" x="33.119812" y="77.791255"/>
</g>
<path fill="none" stroke-width="0.8" stroke-linecap="butt" stroke-linejoin="round" stroke="rgb(0%, 0%, 0%)" stroke-opacity="1" stroke-miterlimit="10" d="M 44.87922 116.088601 L 41.378657 116.088601 " transform="matrix(0.995376, 0, 0, -0.995376, 0.488475, 174.375982)"/>
<g fill="rgb(0%, 0%, 0%)" fill-opacity="1">
<use xlink:href="#glyph-4-0" x="18.843202" y="61.849319"/>
</g>
<g fill="rgb(0%, 0%, 0%)" fill-opacity="1">
<use xlink:href="#glyph-0-6" x="25.515329" y="61.849319"/>
</g>
<g fill="rgb(0%, 0%, 0%)" fill-opacity="1">
<use xlink:href="#glyph-0-1" x="30.583688" y="61.849319"/>
</g>
<g fill="rgb(0%, 0%, 0%)" fill-opacity="1">
<use xlink:href="#glyph-0-8" x="33.119812" y="61.849319"/>
</g>
<path fill="none" stroke-width="0.8" stroke-linecap="butt" stroke-linejoin="round" stroke="rgb(0%, 0%, 0%)" stroke-opacity="1" stroke-miterlimit="10" d="M 44.87922 132.104069 L 41.378657 132.104069 " transform="matrix(0.995376, 0, 0, -0.995376, 0.488475, 174.375982)"/>
<g fill="rgb(0%, 0%, 0%)" fill-opacity="1">
<use xlink:href="#glyph-4-0" x="18.843202" y="45.907383"/>
</g>
<g fill="rgb(0%, 0%, 0%)" fill-opacity="1">
<use xlink:href="#glyph-0-6" x="25.515329" y="45.907383"/>
</g>
<g fill="rgb(0%, 0%, 0%)" fill-opacity="1">
<use xlink:href="#glyph-0-1" x="30.583688" y="45.907383"/>
</g>
<g fill="rgb(0%, 0%, 0%)" fill-opacity="1">
<use xlink:href="#glyph-0-0" x="33.119812" y="45.907383"/>
</g>
<path fill="none" stroke-width="0.8" stroke-linecap="butt" stroke-linejoin="round" stroke="rgb(0%, 0%, 0%)" stroke-opacity="1" stroke-miterlimit="10" d="M 44.87922 148.119537 L 41.378657 148.119537 " transform="matrix(0.995376, 0, 0, -0.995376, 0.488475, 174.375982)"/>
<g fill="rgb(0%, 0%, 0%)" fill-opacity="1">
<use xlink:href="#glyph-4-0" x="18.843202" y="29.965447"/>
</g>
<g fill="rgb(0%, 0%, 0%)" fill-opacity="1">
<use xlink:href="#glyph-0-0" x="25.515329" y="29.965447"/>
</g>
<g fill="rgb(0%, 0%, 0%)" fill-opacity="1">
<use xlink:href="#glyph-0-1" x="30.583688" y="29.965447"/>
</g>
<g fill="rgb(0%, 0%, 0%)" fill-opacity="1">
<use xlink:href="#glyph-0-8" x="33.119812" y="29.965447"/>
</g>
<path fill="none" stroke-width="0.8" stroke-linecap="butt" stroke-linejoin="round" stroke="rgb(0%, 0%, 0%)" stroke-opacity="1" stroke-miterlimit="10" d="M 44.87922 164.135005 L 41.378657 164.135005 " transform="matrix(0.995376, 0, 0, -0.995376, 0.488475, 174.375982)"/>
<g fill="rgb(0%, 0%, 0%)" fill-opacity="1">
<use xlink:href="#glyph-0-0" x="25.515329" y="14.023511"/>
</g>
<g fill="rgb(0%, 0%, 0%)" fill-opacity="1">
<use xlink:href="#glyph-0-1" x="30.583688" y="14.023511"/>
</g>
<g fill="rgb(0%, 0%, 0%)" fill-opacity="1">
<use xlink:href="#glyph-0-0" x="33.119812" y="14.023511"/>
</g>
<g fill="rgb(0%, 0%, 0%)" fill-opacity="1">
<use xlink:href="#glyph-5-0" x="11.595623" y="101.04257"/>
</g>
<g fill="rgb(0%, 0%, 0%)" fill-opacity="1">
<use xlink:href="#glyph-6-0" x="12.939376" y="95.774268"/>
</g>
<g fill="rgb(0%, 0%, 0%)" fill-opacity="1">
<use xlink:href="#glyph-7-0" x="11.595623" y="91.527567"/>
</g>
<g fill="rgb(0%, 0%, 0%)" fill-opacity="1">
<use xlink:href="#glyph-8-0" x="11.595623" y="88.032573"/>
</g>
<g fill="rgb(0%, 0%, 0%)" fill-opacity="1">
<use xlink:href="#glyph-9-0" x="12.939376" y="82.85351"/>
</g>
<g fill="rgb(0%, 0%, 0%)" fill-opacity="1">
<use xlink:href="#glyph-7-1" x="11.595623" y="78.631304"/>
</g>
<g fill="rgb(0%, 0%, 0%)" fill-opacity="1">
<use xlink:href="#glyph-10-0" x="11.595623" y="73.437368"/>
</g>
<g fill="rgb(0%, 0%, 0%)" fill-opacity="1">
<use xlink:href="#glyph-5-0" x="11.595623" y="64.232282"/>
</g>
<g fill="rgb(0%, 0%, 0%)" fill-opacity="1">
<use xlink:href="#glyph-7-0" x="11.595623" y="59.045351"/>
</g>
<g fill="rgb(0%, 0%, 0%)" fill-opacity="1">
<use xlink:href="#glyph-10-1" x="9.091631" y="49.421847"/>
</g>
<g fill="rgb(0%, 0%, 0%)" fill-opacity="1">
<use xlink:href="#glyph-11-0" x="11.595623" y="55.550357"/>
</g>
<g fill="rgb(0%, 0%, 0%)" fill-opacity="1">
<use xlink:href="#glyph-7-1" x="11.595623" y="49.575188"/>
</g>
<g clip-path="url(#clip-2)">
<path fill="none" stroke-width="1.2" stroke-linecap="square" stroke-linejoin="round" stroke="rgb(18.431091%, 37.254333%, 58.822632%)" stroke-opacity="1" stroke-miterlimit="10" d="M 74.63008 -0.999734 L 82.161 21.23198 L 89.617356 42.616024 L 96.0102 60.275814 L 101.335608 74.399722 L 106.66494 87.880029 L 110.922912 98.126632 L 115.184808 107.839517 L 119.446704 116.955893 L 123.7086 125.428668 L 126.90306 131.31919 L 130.09752 136.7898 L 133.295904 141.816954 L 136.490364 146.381029 L 139.684824 150.458478 L 142.883208 154.033605 L 145.014156 156.129233 L 147.145104 157.989398 L 149.276053 159.610174 L 151.403076 160.987638 L 153.534024 162.117864 L 155.664972 162.996929 L 157.79592 163.628758 L 159.926868 164.009424 L 162.057817 164.135005 L 164.188765 164.009424 L 166.319713 163.628758 L 168.450661 162.996929 L 170.581609 162.117864 L 172.708632 160.987638 L 174.83958 159.610174 L 176.970529 157.989398 L 179.101477 156.129233 L 181.232425 154.033605 L 183.363373 151.706437 L 186.557833 147.793812 L 189.756217 143.390638 L 192.950677 138.516535 L 196.145137 133.191127 L 199.343521 127.43796 L 202.537981 121.276655 L 206.799877 112.474231 L 211.061773 103.051752 L 215.319745 93.064159 L 219.581641 82.570319 L 224.907049 68.823153 L 230.236381 54.467706 L 236.625301 36.584224 L 244.081657 15.000036 L 249.485553 -0.999734 " transform="matrix(0.995376, 0, 0, -0.995376, 0.488475, 174.375982)"/>
</g>
<g clip-path="url(#clip-3)">
<path fill="none" stroke-width="0.7" stroke-linecap="butt" stroke-linejoin="round" stroke="rgb(47.842407%, 51.763916%, 57.254028%)" stroke-opacity="1" stroke-dasharray="2.59 1.12" stroke-miterlimit="10" d="M 44.87922 102.612219 L 279.236413 102.612219 " transform="matrix(0.995376, 0, 0, -0.995376, 0.488475, 174.375982)"/>
</g>
<path fill="none" stroke-width="1.4" stroke-linecap="butt" stroke-linejoin="round" stroke="rgb(18.431091%, 37.254333%, 58.822632%)" stroke-opacity="1" stroke-miterlimit="10" d="M 112.861564 98.110935 L 112.861564 107.113503 " transform="matrix(0.995376, 0, 0, -0.995376, 0.488475, 174.375982)"/>
<path fill="none" stroke-width="1.4" stroke-linecap="butt" stroke-linejoin="round" stroke="rgb(18.431091%, 37.254333%, 58.822632%)" stroke-opacity="1" stroke-miterlimit="10" d="M 211.254069 98.110935 L 211.254069 107.113503 " transform="matrix(0.995376, 0, 0, -0.995376, 0.488475, 174.375982)"/>
<path fill="none" stroke-width="1.2" stroke-linecap="square" stroke-linejoin="round" stroke="rgb(64.312744%, 36.077881%, 14.509583%)" stroke-opacity="1" stroke-miterlimit="10" d="M 105.868287 71.244507 L 218.247346 71.244507 " transform="matrix(0.995376, 0, 0, -0.995376, 0.488475, 174.375982)"/>
<path fill="none" stroke-width="1" stroke-linecap="butt" stroke-linejoin="round" stroke="rgb(64.312744%, 36.077881%, 14.509583%)" stroke-opacity="1" stroke-miterlimit="10" d="M 105.868287 67.743944 L 105.868287 74.745069 " transform="matrix(0.995376, 0, 0, -0.995376, 0.488475, 174.375982)"/>
<path fill="none" stroke-width="1" stroke-linecap="butt" stroke-linejoin="round" stroke="rgb(64.312744%, 36.077881%, 14.509583%)" stroke-opacity="1" stroke-miterlimit="10" d="M 218.247346 67.743944 L 218.247346 74.745069 " transform="matrix(0.995376, 0, 0, -0.995376, 0.488475, 174.375982)"/>
<path fill="none" stroke-width="0.6" stroke-linecap="square" stroke-linejoin="miter" stroke="rgb(10.588074%, 12.156677%, 15.293884%)" stroke-opacity="1" stroke-miterlimit="10" d="M 44.87922 29.60272 L 44.87922 173.745855 " transform="matrix(0.995376, 0, 0, -0.995376, 0.488475, 174.375982)"/>
<path fill="none" stroke-width="0.6" stroke-linecap="square" stroke-linejoin="miter" stroke="rgb(10.588074%, 12.156677%, 15.293884%)" stroke-opacity="1" stroke-miterlimit="10" d="M 44.87922 29.60272 L 279.236413 29.60272 " transform="matrix(0.995376, 0, 0, -0.995376, 0.488475, 174.375982)"/>
<g fill="rgb(47.842407%, 51.763916%, 57.254028%)" fill-opacity="1">
<use xlink:href="#glyph-12-0" x="55.76191" y="67.007127"/>
</g>
<g fill="rgb(47.842407%, 51.763916%, 57.254028%)" fill-opacity="1">
<use xlink:href="#glyph-12-1" x="59.66419" y="67.007127"/>
</g>
<g fill="rgb(47.842407%, 51.763916%, 57.254028%)" fill-opacity="1">
<use xlink:href="#glyph-12-2" x="64.151643" y="67.007127"/>
</g>
<g fill="rgb(47.842407%, 51.763916%, 57.254028%)" fill-opacity="1">
<use xlink:href="#glyph-12-3" x="66.951623" y="67.007127"/>
</g>
<g fill="rgb(47.842407%, 51.763916%, 57.254028%)" fill-opacity="1">
<use xlink:href="#glyph-12-4" x="71.14649" y="67.007127"/>
</g>
<g fill="rgb(47.842407%, 51.763916%, 57.254028%)" fill-opacity="1">
<use xlink:href="#glyph-12-4" x="73.725329" y="67.007127"/>
</g>
<g fill="rgb(47.842407%, 51.763916%, 57.254028%)" fill-opacity="1">
<use xlink:href="#glyph-12-5" x="76.304168" y="67.007127"/>
</g>
<g fill="rgb(47.842407%, 51.763916%, 57.254028%)" fill-opacity="1">
<use xlink:href="#glyph-13-0" x="78.518976" y="67.007127"/>
</g>
<g fill="rgb(47.842407%, 51.763916%, 57.254028%)" fill-opacity="1">
<use xlink:href="#glyph-14-0" x="84.357088" y="67.007127"/>
</g>
<g fill="rgb(47.842407%, 51.763916%, 57.254028%)" fill-opacity="1">
<use xlink:href="#glyph-15-0" x="88.888604" y="64.113927"/>
</g>
<g fill="rgb(47.842407%, 51.763916%, 57.254028%)" fill-opacity="1">
<use xlink:href="#glyph-15-1" x="88.579172" y="69.481179"/>
</g>
<g fill="rgb(47.842407%, 51.763916%, 57.254028%)" fill-opacity="1">
<use xlink:href="#glyph-15-2" x="91.682284" y="69.481179"/>
</g>
<g fill="rgb(47.842407%, 51.763916%, 57.254028%)" fill-opacity="1">
<use xlink:href="#glyph-15-3" x="94.15763" y="69.481179"/>
</g>
<g fill="rgb(47.842407%, 51.763916%, 57.254028%)" fill-opacity="1">
<use xlink:href="#glyph-15-4" x="97.260743" y="69.481179"/>
</g>
<g fill="rgb(47.842407%, 51.763916%, 57.254028%)" fill-opacity="1">
<use xlink:href="#glyph-15-5" x="98.811108" y="69.481179"/>
</g>
<g fill="rgb(47.842407%, 51.763916%, 57.254028%)" fill-opacity="1">
<use xlink:href="#glyph-15-6" x="101.914221" y="69.481179"/>
</g>
<g fill="rgb(47.842407%, 51.763916%, 57.254028%)" fill-opacity="1">
<use xlink:href="#glyph-12-6" x="105.198158" y="67.007127"/>
</g>
<g fill="rgb(47.842407%, 51.763916%, 57.254028%)" fill-opacity="1">
<use xlink:href="#glyph-12-7" x="107.545651" y="67.007127"/>
</g>
<path fill="none" stroke-width="1.2" stroke-linecap="square" stroke-linejoin="round" stroke="rgb(18.431091%, 37.254333%, 58.822632%)" stroke-opacity="1" stroke-miterlimit="10" d="M 115.577248 51.21438 L 129.579499 51.21438 " transform="matrix(0.995376, 0, 0, -0.995376, 0.488475, 174.375982)"/>
<g fill="rgb(0%, 0%, 0%)" fill-opacity="1">
<use xlink:href="#glyph-12-8" x="135.041174" y="125.836101"/>
</g>
<g fill="rgb(0%, 0%, 0%)" fill-opacity="1">
<use xlink:href="#glyph-12-9" x="139.503859" y="125.836101"/>
</g>
<g fill="rgb(0%, 0%, 0%)" fill-opacity="1">
<use xlink:href="#glyph-12-3" x="142.831956" y="125.836101"/>
</g>
<g fill="rgb(0%, 0%, 0%)" fill-opacity="1">
<use xlink:href="#glyph-13-1" x="147.036714" y="125.836101"/>
</g>
<g fill="rgb(0%, 0%, 0%)" fill-opacity="1">
<use xlink:href="#glyph-12-10" x="151.685527" y="125.836101"/>
</g>
<g fill="rgb(0%, 0%, 0%)" fill-opacity="1">
<use xlink:href="#glyph-12-11" x="153.910794" y="125.836101"/>
</g>
<g fill="rgb(0%, 0%, 0%)" fill-opacity="1">
<use xlink:href="#glyph-12-5" x="158.033686" y="125.836101"/>
</g>
<g fill="rgb(0%, 0%, 0%)" fill-opacity="1">
<use xlink:href="#glyph-12-10" x="160.243074" y="125.836101"/>
</g>
<g fill="rgb(0%, 0%, 0%)" fill-opacity="1">
<use xlink:href="#glyph-12-3" x="162.468341" y="125.836101"/>
</g>
<g fill="rgb(0%, 0%, 0%)" fill-opacity="1">
<use xlink:href="#glyph-12-12" x="166.667228" y="125.836101"/>
</g>
<g fill="rgb(0%, 0%, 0%)" fill-opacity="1">
<use xlink:href="#glyph-12-13" x="171.129913" y="125.836101"/>
</g>
<g fill="rgb(0%, 0%, 0%)" fill-opacity="1">
<use xlink:href="#glyph-12-10" x="173.47914" y="125.836101"/>
</g>
<g fill="rgb(0%, 0%, 0%)" fill-opacity="1">
<use xlink:href="#glyph-12-14" x="175.704407" y="125.836101"/>
</g>
<g fill="rgb(0%, 0%, 0%)" fill-opacity="1">
<use xlink:href="#glyph-12-15" x="177.929674" y="125.836101"/>
</g>
<g fill="rgb(0%, 0%, 0%)" fill-opacity="1">
<use xlink:href="#glyph-12-11" x="182.144767" y="125.836101"/>
</g>
<g fill="rgb(0%, 0%, 0%)" fill-opacity="1">
<use xlink:href="#glyph-12-10" x="186.26766" y="125.836101"/>
</g>
<g fill="rgb(0%, 0%, 0%)" fill-opacity="1">
<use xlink:href="#glyph-12-14" x="188.492927" y="125.836101"/>
</g>
<g fill="rgb(0%, 0%, 0%)" fill-opacity="1">
<use xlink:href="#glyph-12-16" x="190.718194" y="125.836101"/>
</g>
<g fill="rgb(0%, 0%, 0%)" fill-opacity="1">
<use xlink:href="#glyph-12-3" x="195.212638" y="125.836101"/>
</g>
<g fill="rgb(0%, 0%, 0%)" fill-opacity="1">
<use xlink:href="#glyph-12-3" x="199.411525" y="125.836101"/>
</g>
<g fill="rgb(0%, 0%, 0%)" fill-opacity="1">
<use xlink:href="#glyph-12-17" x="203.610412" y="125.836101"/>
</g>
<path fill="none" stroke-width="1.2" stroke-linecap="square" stroke-linejoin="round" stroke="rgb(64.312744%, 36.077881%, 14.509583%)" stroke-opacity="1" stroke-miterlimit="10" d="M 115.577248 40.03377 L 129.579499 40.03377 " transform="matrix(0.995376, 0, 0, -0.995376, 0.488475, 174.375982)"/>
<path fill="none" stroke-width="1" stroke-linecap="butt" stroke-linejoin="round" stroke="rgb(64.312744%, 36.077881%, 14.509583%)" stroke-opacity="1" stroke-miterlimit="10" d="M 122.578374 36.533207 L 122.578374 43.534333 " transform="matrix(0.995376, 0, 0, -0.995376, 0.488475, 174.375982)"/>
<g fill="rgb(0%, 0%, 0%)" fill-opacity="1">
<use xlink:href="#glyph-12-18" x="135.041174" y="136.281713"/>
</g>
<g fill="rgb(0%, 0%, 0%)" fill-opacity="1">
<use xlink:href="#glyph-12-19" x="139.474192" y="136.281713"/>
</g>
<g fill="rgb(0%, 0%, 0%)" fill-opacity="1">
<use xlink:href="#glyph-12-20" x="143.90721" y="136.281713"/>
</g>
<g fill="rgb(0%, 0%, 0%)" fill-opacity="1">
<use xlink:href="#glyph-12-5" x="150.527819" y="136.281713"/>
</g>
<g fill="rgb(0%, 0%, 0%)" fill-opacity="1">
<use xlink:href="#glyph-16-0" x="152.742627" y="136.281713"/>
</g>
<g fill="rgb(0%, 0%, 0%)" fill-opacity="1">
<use xlink:href="#glyph-12-5" x="155.542607" y="136.281713"/>
</g>
<g fill="rgb(0%, 0%, 0%)" fill-opacity="1">
<use xlink:href="#glyph-12-14" x="157.757415" y="136.281713"/>
</g>
<g fill="rgb(0%, 0%, 0%)" fill-opacity="1">
<use xlink:href="#glyph-12-21" x="159.985832" y="136.281713"/>
</g>
<g fill="rgb(0%, 0%, 0%)" fill-opacity="1">
<use xlink:href="#glyph-12-2" x="164.473284" y="136.281713"/>
</g>
<g fill="rgb(0%, 0%, 0%)" fill-opacity="1">
<use xlink:href="#glyph-12-11" x="167.273264" y="136.281713"/>
</g>
<g fill="rgb(0%, 0%, 0%)" fill-opacity="1">
<use xlink:href="#glyph-12-9" x="171.396686" y="136.281713"/>
</g>
<g fill="rgb(0%, 0%, 0%)" fill-opacity="1">
<use xlink:href="#glyph-12-22" x="174.727403" y="136.281713"/>
</g>
<g fill="rgb(0%, 0%, 0%)" fill-opacity="1">
<use xlink:href="#glyph-12-23" x="178.663705" y="136.281713"/>
</g>
<g fill="rgb(0%, 0%, 0%)" fill-opacity="1">
<use xlink:href="#glyph-12-10" x="182.817746" y="136.281713"/>
</g>
</svg>
